<?xml version="1.0" encoding="UTF-8"?>
<svg version="1.1" xmlns="http://www.w3.org/2000/svg" width="460" height="460">
<path d="M0 0 C151.8 0 303.6 0 460 0 C460 151.8 460 303.6 460 460 C308.2 460 156.4 460 0 460 C0 308.2 0 156.4 0 0 Z " fill="#ECE8E5" transform="translate(0,0)"/>
<path d="M0 0 C1.60572876 0.23505249 1.60572876 0.23505249 3.24389648 0.47485352 C9.24101626 1.45565353 14.57495582 2.9253493 20.13916016 5.38085938 C22.7966693 6.47509168 25.39940849 6.94993774 28.25 7.25 C28.25 7.91 28.25 8.57 28.25 9.25 C28.930625 9.353125 29.61125 9.45625 30.3125 9.5625 C35.24681039 10.7173386 39.76691999 12.9187984 44.25 15.25 C44.25 15.91 44.25 16.57 44.25 17.25 C45.075 17.4975 45.9 17.745 46.75 18 C53.4793148 20.40332672 58.33598316 22.94803446 63.25 28.25 C64.34380366 29.15845745 65.44816652 30.05434526 66.5625 30.9375 C67.8928125 32.0821875 67.8928125 32.0821875 69.25 33.25 C69.25 33.91 69.25 34.57 69.25 35.25 C70.178125 35.7140625 70.178125 35.7140625 71.125 36.1875 C72.5 36.875 73.875 37.5625 75.25 38.25 C75.58 39.24 75.91 40.23 76.25 41.25 C77.82033897 42.73182994 77.82033897 42.73182994 79.6875 44.125 C82.66355166 46.56438661 84.2395372 48.43269609 85.25 52.25 C85.91 52.25 86.57 52.25 87.25 52.25 C90.26704885 55.4499003 91.74890042 57.86537866 92.25 62.25 C92.91 62.25 93.57 62.25 94.25 62.25 C94.95576172 63.67892578 94.95576172 63.67892578 95.67578125 65.13671875 C96.30457916 66.40369961 96.93349148 67.67062369 97.5625 68.9375 C97.87123047 69.56333984 98.17996094 70.18917969 98.49804688 70.83398438 C99.86550914 73.58330325 101.26392154 76.27305543 102.8515625 78.90234375 C106.39281192 84.8472904 108.49136547 91.59231215 110.25 98.25 C110.62125 99.384375 110.9925 100.51875 111.375 101.6875 C112.37345314 105.75263065 112.39626642 109.08140698 112.25 113.25 C112.91 113.25 113.57 113.25 114.25 113.25 C116.04885931 132.10664733 116.15934349 150.66370952 112.25 169.25 C111.99863281 170.46945312 111.74726563 171.68890625 111.48828125 172.9453125 C109.73993087 180.62325333 109.73993087 180.62325333 107.78125 183.12890625 C105.72588607 185.97600475 105.19340039 188.87417548 104.25 192.25 C103.11996445 194.95811789 101.82711458 197.57117945 100.5 200.1875 C100.14583008 200.89189209 99.79166016 201.59628418 99.42675781 202.32202148 C97.15473882 206.74364906 94.69547111 210.74076123 91.5390625 214.59765625 C90.00788534 216.46388301 90.00788534 216.46388301 88.375 219.75 C85.86283064 224.35389197 82.01561418 227.67191641 78.25 231.25 C77.30969364 232.22647199 76.37169509 233.20517971 75.4375 234.1875 C73.25 236.25 73.25 236.25 70.25 237.25 C69.940625 237.889375 69.63125 238.52875 69.3125 239.1875 C67.99945658 241.736349 66.76625085 242.03245927 64.25 243.25 C63.92 244.24 63.59 245.23 63.25 246.25 C61.1875 246.9375 61.1875 246.9375 59.25 247.25 C59.25 247.91 59.25 248.57 59.25 249.25 C57.34375 250.58203125 57.34375 250.58203125 54.75 252.0625 C51.46034376 253.96752692 48.20259234 255.88933048 45 257.9375 C36.5171371 263.25 36.5171371 263.25 32.25 263.25 C32.57484375 264.04664063 32.57484375 264.04664063 32.90625 264.859375 C33.1846875 265.56578125 33.463125 266.2721875 33.75 267 C34.0284375 267.69609375 34.306875 268.3921875 34.59375 269.109375 C35.25 271.25 35.25 271.25 35.25 275.25 C35.91 275.25 36.57 275.25 37.25 275.25 C40.25 281 40.25 281 40.25 283.25 C40.91 283.25 41.57 283.25 42.25 283.25 C42.58 284.57 42.91 285.89 43.25 287.25 C43.91 287.25 44.57 287.25 45.25 287.25 C45.92154933 288.53913487 46.58708859 289.83140204 47.25 291.125 C47.62125 291.84429687 47.9925 292.56359375 48.375 293.3046875 C49.25 295.25 49.25 295.25 49.25 297.25 C50.57 297.25 51.89 297.25 53.25 297.25 C55.0625 299.0625 55.0625 299.0625 56.25 301.25 C55.92 302.24 55.59 303.23 55.25 304.25 C53.93 303.59 52.61 302.93 51.25 302.25 C51.25 301.59 51.25 300.93 51.25 300.25 C50.115625 300.105625 48.98125 299.96125 47.8125 299.8125 C44.25 299.25 44.25 299.25 43.25 298.25 C34.09174637 297.57017205 25.5582037 296.94887028 17.48828125 301.8828125 C15.04385927 303.37591493 12.6145189 304.36376885 9.9375 305.375 C6.46631318 306.71552113 3.41233995 308.27353753 0.25 310.25 C-0.41 310.25 -1.07 310.25 -1.75 310.25 C-2.08 311.24 -2.41 312.23 -2.75 313.25 C-4.52734375 314.85546875 -4.52734375 314.85546875 -6.6875 316.4375 C-7.39777344 316.96730469 -8.10804688 317.49710937 -8.83984375 318.04296875 C-10.75 319.25 -10.75 319.25 -12.75 319.25 C-12.75 319.91 -12.75 320.57 -12.75 321.25 C-13.41 321.25 -14.07 321.25 -14.75 321.25 C-14.75 322.24 -14.75 323.23 -14.75 324.25 C-15.636875 324.641875 -16.52375 325.03375 -17.4375 325.4375 C-20.90286101 327.33364093 -23.08107495 329.36467562 -25.75 332.25 C-27.4375 334.0625 -27.4375 334.0625 -28.75 335.25 C-29.41 335.25 -30.07 335.25 -30.75 335.25 C-30.75 335.91 -30.75 336.57 -30.75 337.25 C-33.5163534 338.59277732 -36.28876211 339.92255228 -39.0625 341.25 C-39.84818359 341.6315625 -40.63386719 342.013125 -41.44335938 342.40625 C-42.20068359 342.7671875 -42.95800781 343.128125 -43.73828125 343.5 C-44.43477783 343.83515625 -45.13127441 344.1703125 -45.84887695 344.515625 C-47.75 345.25 -47.75 345.25 -50.75 345.25 C-50.75 346.24 -50.75 347.23 -50.75 348.25 C-69.49334287 352.55432193 -89.58261451 351.52746189 -106.75 342.25 C-106.75 341.59 -106.75 340.93 -106.75 340.25 C-108.4 339.92 -110.05 339.59 -111.75 339.25 C-111.75 338.59 -111.75 337.93 -111.75 337.25 C-112.41 337.25 -113.07 337.25 -113.75 337.25 C-113.75 336.59 -113.75 335.93 -113.75 335.25 C-114.513125 335.146875 -115.27625 335.04375 -116.0625 334.9375 C-118.94807812 334.19932885 -120.01179817 333.62859197 -121.75 331.25 C-121.75 330.26 -121.75 329.27 -121.75 328.25 C-118.78824877 328.86277612 -117.36941217 329.50372522 -114.75 331.25 C-114.75 331.91 -114.75 332.57 -114.75 333.25 C-111.29196269 333.36795981 -107.83445443 333.43782752 -104.375 333.5 C-102.92673828 333.55027344 -102.92673828 333.55027344 -101.44921875 333.6015625 C-95.28599982 333.68429027 -90.62289676 332.84067458 -85.00488281 330.27490234 C-81.99829742 328.90833181 -78.90453967 327.94791835 -75.7578125 326.9609375 C-72.79094591 325.91041275 -70.36320996 324.86320996 -68.125 322.625 C-67.67125 322.17125 -67.2175 321.7175 -66.75 321.25 C-66.09 321.25 -65.43 321.25 -64.75 321.25 C-64.75 320.59 -64.75 319.93 -64.75 319.25 C-63.43 319.25 -62.11 319.25 -60.75 319.25 C-60.75 318.59 -60.75 317.93 -60.75 317.25 C-59.1 316.59 -57.45 315.93 -55.75 315.25 C-55.75 314.59 -55.75 313.93 -55.75 313.25 C-54.76 313.25 -53.77 313.25 -52.75 313.25 C-52.75 312.59 -52.75 311.93 -52.75 311.25 C-52.09 311.25 -51.43 311.25 -50.75 311.25 C-50.75 310.59 -50.75 309.93 -50.75 309.25 C-49.07278959 307.68041807 -47.28205886 306.3019475 -45.4765625 304.8828125 C-43.6462152 303.34130694 -43.6462152 303.34130694 -42.73046875 301.18359375 C-41.10425543 297.97651967 -37.82985539 296.84302865 -34.75 295.25 C-31.34553045 293.35862803 -29.94345665 292.54018498 -27.75 289.25 C-25.7265625 288.37109375 -25.7265625 288.37109375 -23.375 287.6875 C-20.99247154 286.98230345 -18.84826911 286.3002224 -16.6328125 285.16796875 C-14.24667123 284.00460112 -12.3695489 284.10446951 -9.75 284.25 C-9.75 283.59 -9.75 282.93 -9.75 282.25 C4.24051685 279.17044345 22.24581675 279.74790838 35.25 286.25 C35.25 286.91 35.25 287.57 35.25 288.25 C37.56 288.58 39.87 288.91 42.25 289.25 C41.5075 288.59 40.765 287.93 40 287.25 C36.78103571 284.02196821 35.08651434 280.37666968 33.25 276.25 C32.87488281 275.41984375 32.49976563 274.5896875 32.11328125 273.734375 C31.14693384 271.57789446 30.19295477 269.41678968 29.25 267.25 C25.15817157 266.86639108 22.28685445 267.99588152 18.51074219 269.45483398 C14.7106537 270.79143098 10.81698636 271.57508394 6.875 272.375 C6.08867187 272.54386719 5.30234375 272.71273438 4.4921875 272.88671875 C-16.83855924 277.31319724 -45.35174161 278.74582636 -65.484375 269.22265625 C-69.1775444 267.63714042 -73.06960032 266.90092703 -76.98828125 266.05859375 C-79.97434115 265.18431596 -82.22264452 264.05919982 -84.75 262.25 C-84.75 261.59 -84.75 260.93 -84.75 260.25 C-89.7 258.765 -89.7 258.765 -94.75 257.25 C-94.75 256.59 -94.75 255.93 -94.75 255.25 C-96.07 254.92 -97.39 254.59 -98.75 254.25 C-98.75 253.59 -98.75 252.93 -98.75 252.25 C-99.719375 251.981875 -100.68875 251.71375 -101.6875 251.4375 C-103.2034375 250.8496875 -103.2034375 250.8496875 -104.75 250.25 C-105.08 249.26 -105.41 248.27 -105.75 247.25 C-106.74 247.25 -107.73 247.25 -108.75 247.25 C-109.41 246.26 -110.07 245.27 -110.75 244.25 C-112.38631892 243.20107762 -114.05485863 242.20093297 -115.75 241.25 C-118.75 239.25 -118.75 239.25 -119.9375 237.0625 C-122.1467325 233.63438061 -124.8318949 231.51472437 -128.0078125 228.99609375 C-129.9271275 227.07247535 -130.36704411 225.90167943 -130.75 223.25 C-131.41 223.25 -132.07 223.25 -132.75 223.25 C-136.07802053 219.67237793 -138.01828622 216.82667214 -139.75 212.25 C-140.22050781 211.81300781 -140.69101563 211.37601563 -141.17578125 210.92578125 C-143.14967806 208.82453626 -143.83923041 206.82808883 -144.8125 204.125 C-145.90624859 200.43625758 -145.90624859 200.43625758 -148.75 198.25 C-148.75 196.6 -148.75 194.95 -148.75 193.25 C-149.41 193.25 -150.07 193.25 -150.75 193.25 C-152.9019437 190.02208445 -152.95086443 188.96599191 -152.75 185.25 C-153.41 185.25 -154.07 185.25 -154.75 185.25 C-154.86069824 184.69127197 -154.97139648 184.13254395 -155.08544922 183.55688477 C-155.59757383 180.97521184 -156.11127923 178.39385577 -156.625 175.8125 C-156.79902344 174.93400391 -156.97304687 174.05550781 -157.15234375 173.15039062 C-158.00176691 168.88754479 -158.87868731 164.63672235 -159.84375 160.3984375 C-165.10465492 136.92132535 -162.37086544 109.20258247 -152.75 87.25 C-152.37691369 85.92723944 -152.01953585 84.59767923 -151.75 83.25 C-151.09 83.25 -150.43 83.25 -149.75 83.25 C-149.51216797 82.30640625 -149.51216797 82.30640625 -149.26953125 81.34375 C-147.6018847 75.22597482 -145.30551498 70.46816588 -141.75 65.25 C-141.42 64.59 -141.09 63.93 -140.75 63.25 C-140.09 63.25 -139.43 63.25 -138.75 63.25 C-138.66363281 62.7034375 -138.57726562 62.156875 -138.48828125 61.59375 C-137.5125103 58.49606444 -135.86732376 56.35651521 -133.9375 53.75 C-133.25042969 52.8115625 -132.56335938 51.873125 -131.85546875 50.90625 C-129.75 48.25 -129.75 48.25 -127.55078125 46.09375 C-125.51757454 44.28045366 -125.51757454 44.28045366 -124.75 41.25 C-120.43181818 36.47727273 -120.43181818 36.47727273 -116.75 35.25 C-116.75 34.59 -116.75 33.93 -116.75 33.25 C-115.76 32.92 -114.77 32.59 -113.75 32.25 C-113.09 31.26 -112.43 30.27 -111.75 29.25 C-110.76 29.25 -109.77 29.25 -108.75 29.25 C-108.75 28.26 -108.75 27.27 -108.75 26.25 C-107.43 25.92 -106.11 25.59 -104.75 25.25 C-104.75 24.59 -104.75 23.93 -104.75 23.25 C-103.76 23.25 -102.77 23.25 -101.75 23.25 C-101.75 22.59 -101.75 21.93 -101.75 21.25 C-96.72412138 17.63764974 -90.73016816 15.66179916 -84.75 14.25 C-84.75 13.59 -84.75 12.93 -84.75 12.25 C-83.53183594 11.85167969 -82.31367188 11.45335938 -81.05859375 11.04296875 C-79.43484214 10.50797544 -77.81114722 9.97281004 -76.1875 9.4375 C-74.98770508 9.04594727 -74.98770508 9.04594727 -73.76367188 8.64648438 C-70.13051297 7.44531755 -66.61557899 6.19206239 -63.09765625 4.67578125 C-43.25830493 -3.77388413 -20.88434524 -3.09392201 0 0 Z " fill="#E7E3E0" transform="translate(252.75,94.75)"/>
<path d="M0 0 C0.33 0.66 0.66 1.32 1 2 C-0.65 2.33 -2.3 2.66 -4 3 C-3.67 3.66 -3.34 4.32 -3 5 C-7.07857939 4.34216461 -10.83598003 3.08592252 -14.71875 1.71875 C-21.81826061 -0.51808211 -28.9357108 -0.22085713 -36.3125 -0.25 C-37.60607422 -0.270625 -38.89964844 -0.29125 -40.23242188 -0.3125 C-47.28472357 -0.34135852 -52.5896486 0.0470835 -59 3 C-60.55127757 3.41900972 -62.11284989 3.80483085 -63.6875 4.125 C-64.43257813 4.2796875 -65.17765625 4.434375 -65.9453125 4.59375 C-66.62335938 4.7278125 -67.30140625 4.861875 -68 5 C-69.010625 5.20625 -70.02125 5.4125 -71.0625 5.625 C-71.701875 5.74875 -72.34125 5.8725 -73 6 C-73 6.66 -73 7.32 -73 8 C-74.0828125 8.4021875 -74.0828125 8.4021875 -75.1875 8.8125 C-80.46469972 10.89232621 -80.46469972 10.89232621 -84 15 C-84.76054687 15.28617188 -85.52109375 15.57234375 -86.3046875 15.8671875 C-89.38814859 17.16313491 -90.88198833 18.67088135 -93.125 21.125 C-95.1328125 23.3203125 -95.1328125 23.3203125 -97 25 C-97.99 25 -98.98 25 -100 25 C-100.495 26.485 -100.495 26.485 -101 28 C-101.66 28 -102.32 28 -103 28 C-103.103125 28.639375 -103.20625 29.27875 -103.3125 29.9375 C-103.539375 30.618125 -103.76625 31.29875 -104 32 C-105.485 32.495 -105.485 32.495 -107 33 C-108.12516085 34.83284443 -108.12516085 34.83284443 -109 37 C-109.66666667 38.33333333 -110.33333333 39.66666667 -111 41 C-111.66 41 -112.32 41 -113 41 C-113 41.99 -113 42.98 -113 44 C-113.66 44 -114.32 44 -115 44 C-115 44.99 -115 45.98 -115 47 C-115.66 47 -116.32 47 -117 47 C-117.268125 48.051875 -117.53625 49.10375 -117.8125 50.1875 C-118.87446215 53.59695742 -119.95409818 56.10163909 -122 59 C-122.99 59.495 -122.99 59.495 -124 60 C-124.77043342 61.77554321 -124.77043342 61.77554321 -125.375 63.9375 C-126.38644988 67.17919687 -127.51873134 70.26323845 -128.875 73.375 C-136.5652579 92.24570978 -139.19222383 112.51871597 -139.13037109 132.73266602 C-139.12503469 134.79906643 -139.1303372 136.86524696 -139.13671875 138.93164062 C-139.14163533 147.62713624 -139.04079136 156.35687115 -138 165 C-137.67 165.33 -137.34 165.66 -137 166 C-136.83974099 167.32955625 -136.72238997 168.66436608 -136.625 170 C-136.20417291 174.16224291 -135.22939006 177.76380444 -133.8125 181.6875 C-132.97116943 184.08205622 -132.29785799 186.49074367 -131.625 188.9375 C-130.27331179 193.5635987 -128.28775068 197.64522516 -125.98828125 201.87109375 C-125 204 -125 204 -125 207 C-124.34 207 -123.68 207 -123 207 C-122.32404685 208.41225926 -121.65959941 209.83002905 -121 211.25 C-120.62875 212.03890625 -120.2575 212.8278125 -119.875 213.640625 C-119 216 -119 216 -119 220 C-118.01 220.33 -117.02 220.66 -116 221 C-114.31640625 223.36328125 -114.31640625 223.36328125 -112.5625 226.3125 C-110.79242148 229.2784705 -109.25434062 231.75191732 -106.77734375 234.16796875 C-105 236 -105 236 -105 239 C-103.02 239.99 -103.02 239.99 -101 241 C-101 241.66 -101 242.32 -101 243 C-100.34 243 -99.68 243 -99 243 C-99 243.66 -99 244.32 -99 245 C-97.9171875 245.3403125 -97.9171875 245.3403125 -96.8125 245.6875 C-93.40835541 247.27610081 -91.63033337 249.30988632 -89 252 C-83.37414887 256.90064376 -77.89606222 260.23439171 -71 263 C-69.49899532 263.70620185 -67.99899364 264.41453947 -66.5 265.125 C-62.09775651 267.09097564 -57.71394499 268.08965881 -53 269 C-52.10716309 269.25559692 -52.10716309 269.25559692 -51.19628906 269.51635742 C-48.67963579 270.07054708 -46.3934189 270.12958922 -43.81640625 270.1328125 C-42.30916992 270.13571289 -42.30916992 270.13571289 -40.77148438 270.13867188 C-39.71251953 270.13416016 -38.65355469 270.12964844 -37.5625 270.125 C-36.48677734 270.12306641 -35.41105469 270.12113281 -34.30273438 270.11914062 C-26.82518219 270.07852628 -19.43803228 269.81353478 -12 269 C-12 268.34 -12 267.68 -12 267 C-10.23141309 266.32739649 -8.46003984 265.66211605 -6.6875 265 C-5.70136719 264.62875 -4.71523438 264.2575 -3.69921875 263.875 C-1 263 -1 263 2 263 C2 262.34 2 261.68 2 261 C3.45537568 260.16151196 4.91440373 259.32936066 6.375 258.5 C7.18710937 258.0359375 7.99921875 257.571875 8.8359375 257.09375 C11 256 11 256 13 256 C12.72285156 254.865625 12.44570313 253.73125 12.16015625 252.5625 C11.79404291 251.04172152 11.42817037 249.52088505 11.0625 248 C10.88009766 247.25621094 10.69769531 246.51242187 10.50976562 245.74609375 C8.24577939 236.27851496 7.78662899 227.14870891 7.75976562 217.4387207 C7.75010054 215.33438958 7.71901843 213.23105455 7.6875 211.12695312 C7.61744145 202.02455578 7.84614649 192.30770702 12 184 C11.443125 184.03480469 10.88625 184.06960938 10.3125 184.10546875 C3.62563626 184.34267169 -1.95256481 183.82934021 -7.01953125 179.125 C-11.51878416 174.14008435 -13.12777867 170.9504261 -13.11352539 164.15161133 C-13.11344986 162.9505928 -13.11337433 161.74957428 -13.11329651 160.51216125 C-13.10813522 159.21521835 -13.10297394 157.91827545 -13.09765625 156.58203125 C-13.09579077 155.24110466 -13.09436748 153.90017739 -13.09336853 152.55924988 C-13.08955356 149.03290927 -13.07973199 145.50660996 -13.06866455 141.98028564 C-13.0584285 138.38074299 -13.05386621 134.78119365 -13.04882812 131.18164062 C-13.0381088 124.12107687 -13.02104462 117.06054113 -13 110 C-9.49223216 108.39644899 -6.85645121 107.77963136 -3 108 C-2.99413376 108.7213916 -2.98826752 109.4427832 -2.98222351 110.18603516 C-2.92412062 117.0120341 -2.85194415 123.83775781 -2.76428509 130.66343689 C-2.71971488 134.17192246 -2.68043038 137.68029549 -2.65356445 141.18896484 C-2.62238034 145.23043489 -2.56759755 149.27129537 -2.51171875 153.3125 C-2.50213387 155.18639404 -2.50213387 155.18639404 -2.49235535 157.09814453 C-2.36303969 164.81116056 -1.9211018 171.10107175 2.84375 177.4609375 C7.12597662 180.51745432 12.00237634 179.80644811 17 179 C21.219841 177.34062262 25.05939423 175.22622642 29 173 C29.99 172.67 30.98 172.34 32 172 C32 151.87 32 131.74 32 111 C39 108 39 108 42 108 C42 132.42 42 156.84 42 182 C38.7 182 35.4 182 32 182 C32 179.69 32 177.38 32 175 C30.88625 175.66 29.7725 176.32 28.625 177 C25.25 179 25.25 179 23 179 C23 179.66 23 180.32 23 181 C22.01 181 21.02 181 20 181 C20 181.66 20 182.32 20 183 C18.02 183.33 16.04 183.66 14 184 C13.85691406 185.01191406 13.71382812 186.02382813 13.56640625 187.06640625 C13.21692392 189.49350081 12.85280872 191.91860252 12.46484375 194.33984375 C9.87906692 211.98058787 9.83459704 229.626169 14 247 C14.34017158 248.66528442 14.67634096 250.33142764 15 252 C15.99 252.33 16.98 252.66 18 253 C14.29909479 256.9252025 10.45040344 259.94580156 6 263 C8.53300059 263 10.9786919 262.90181119 13.5 262.6875 C14.2734375 262.62949219 15.046875 262.57148438 15.84375 262.51171875 C18.41834894 261.90071792 19.23543034 260.9087176 21 259 C23.6875 258.3125 23.6875 258.3125 26 258 C24.6875 259.5 24.6875 259.5 23 261 C22.01 261 21.02 261 20 261 C20.32484375 261.79664063 20.32484375 261.79664063 20.65625 262.609375 C20.9346875 263.31578125 21.213125 264.0221875 21.5 264.75 C21.7784375 265.44609375 22.056875 266.1421875 22.34375 266.859375 C23 269 23 269 23 273 C23.66 273 24.32 273 25 273 C28 278.75 28 278.75 28 281 C28.66 281 29.32 281 30 281 C30.33 282.32 30.66 283.64 31 285 C31.66 285 32.32 285 33 285 C33.67154933 286.28913487 34.33708859 287.58140204 35 288.875 C35.37125 289.59429687 35.7425 290.31359375 36.125 291.0546875 C37 293 37 293 37 295 C38.32 295 39.64 295 41 295 C42.8125 296.8125 42.8125 296.8125 44 299 C43.67 299.99 43.34 300.98 43 302 C41.68 301.34 40.36 300.68 39 300 C39 299.34 39 298.68 39 298 C37.865625 297.855625 36.73125 297.71125 35.5625 297.5625 C32 297 32 297 31 296 C21.84174637 295.32017205 13.3082037 294.69887028 5.23828125 299.6328125 C2.79385927 301.12591493 0.3645189 302.11376885 -2.3125 303.125 C-5.78368682 304.46552113 -8.83766005 306.02353753 -12 308 C-12.66 308 -13.32 308 -14 308 C-14.33 308.99 -14.66 309.98 -15 311 C-16.77734375 312.60546875 -16.77734375 312.60546875 -18.9375 314.1875 C-19.64777344 314.71730469 -20.35804688 315.24710937 -21.08984375 315.79296875 C-23 317 -23 317 -25 317 C-25 317.66 -25 318.32 -25 319 C-25.66 319 -26.32 319 -27 319 C-27 319.99 -27 320.98 -27 322 C-27.886875 322.391875 -28.77375 322.78375 -29.6875 323.1875 C-33.15286101 325.08364093 -35.33107495 327.11467562 -38 330 C-39.6875 331.8125 -39.6875 331.8125 -41 333 C-41.66 333 -42.32 333 -43 333 C-43 333.66 -43 334.32 -43 335 C-45.7663534 336.34277732 -48.53876211 337.67255228 -51.3125 339 C-52.09818359 339.3815625 -52.88386719 339.763125 -53.69335938 340.15625 C-54.45068359 340.5171875 -55.20800781 340.878125 -55.98828125 341.25 C-56.68477783 341.58515625 -57.38127441 341.9203125 -58.09887695 342.265625 C-60 343 -60 343 -63 343 C-63 343.99 -63 344.98 -63 346 C-81.74334287 350.30432193 -101.83261451 349.27746189 -119 340 C-119 339.34 -119 338.68 -119 338 C-120.65 337.67 -122.3 337.34 -124 337 C-124 336.34 -124 335.68 -124 335 C-124.66 335 -125.32 335 -126 335 C-126 334.34 -126 333.68 -126 333 C-126.763125 332.896875 -127.52625 332.79375 -128.3125 332.6875 C-131.19807812 331.94932885 -132.26179817 331.37859197 -134 329 C-134 328.01 -134 327.02 -134 326 C-131.03824877 326.61277612 -129.61941217 327.25372522 -127 329 C-127 329.66 -127 330.32 -127 331 C-123.54196269 331.11795981 -120.08445443 331.18782752 -116.625 331.25 C-115.17673828 331.30027344 -115.17673828 331.30027344 -113.69921875 331.3515625 C-107.53599982 331.43429027 -102.87289676 330.59067458 -97.25488281 328.02490234 C-94.24829742 326.65833181 -91.15453967 325.69791835 -88.0078125 324.7109375 C-85.04094591 323.66041275 -82.61320996 322.61320996 -80.375 320.375 C-79.92125 319.92125 -79.4675 319.4675 -79 319 C-78.34 319 -77.68 319 -77 319 C-77 318.34 -77 317.68 -77 317 C-75.68 317 -74.36 317 -73 317 C-73 316.34 -73 315.68 -73 315 C-71.35 314.34 -69.7 313.68 -68 313 C-68 312.34 -68 311.68 -68 311 C-67.01 311 -66.02 311 -65 311 C-65 310.34 -65 309.68 -65 309 C-64.34 309 -63.68 309 -63 309 C-63 308.34 -63 307.68 -63 307 C-61.32278959 305.43041807 -59.53205886 304.0519475 -57.7265625 302.6328125 C-55.8962152 301.09130694 -55.8962152 301.09130694 -54.98046875 298.93359375 C-53.35425543 295.72651967 -50.07985539 294.59302865 -47 293 C-43.59553045 291.10862803 -42.19345665 290.29018498 -40 287 C-37.9765625 286.12109375 -37.9765625 286.12109375 -35.625 285.4375 C-33.24247154 284.73230345 -31.09826911 284.0502224 -28.8828125 282.91796875 C-26.49667123 281.75460112 -24.6195489 281.85446951 -22 282 C-22 281.34 -22 280.68 -22 280 C-8.00948315 276.92044345 9.99581675 277.49790838 23 284 C23 284.66 23 285.32 23 286 C25.31 286.33 27.62 286.66 30 287 C29.2575 286.34 28.515 285.68 27.75 285 C24.53103571 281.77196821 22.83651434 278.12666968 21 274 C20.62488281 273.16984375 20.24976563 272.3396875 19.86328125 271.484375 C18.89693384 269.32789446 17.94295477 267.16678968 17 265 C12.90817157 264.61639108 10.03685445 265.74588152 6.26074219 267.20483398 C2.4606537 268.54143098 -1.43301364 269.32508394 -5.375 270.125 C-6.16132813 270.29386719 -6.94765625 270.46273438 -7.7578125 270.63671875 C-29.08855924 275.06319724 -57.60174161 276.49582636 -77.734375 266.97265625 C-81.4275444 265.38714042 -85.31960032 264.65092703 -89.23828125 263.80859375 C-92.22434115 262.93431596 -94.47264452 261.80919982 -97 260 C-97 259.34 -97 258.68 -97 258 C-101.95 256.515 -101.95 256.515 -107 255 C-107 254.34 -107 253.68 -107 253 C-108.32 252.67 -109.64 252.34 -111 252 C-111 251.34 -111 250.68 -111 250 C-111.969375 249.731875 -112.93875 249.46375 -113.9375 249.1875 C-115.4534375 248.5996875 -115.4534375 248.5996875 -117 248 C-117.33 247.01 -117.66 246.02 -118 245 C-118.99 245 -119.98 245 -121 245 C-121.66 244.01 -122.32 243.02 -123 242 C-124.63631892 240.95107762 -126.30485863 239.95093297 -128 239 C-131 237 -131 237 -132.1875 234.8125 C-134.3967325 231.38438061 -137.0818949 229.26472437 -140.2578125 226.74609375 C-142.1771275 224.82247535 -142.61704411 223.65167943 -143 221 C-143.66 221 -144.32 221 -145 221 C-148.32802053 217.42237793 -150.26828622 214.57667214 -152 210 C-152.47050781 209.56300781 -152.94101563 209.12601563 -153.42578125 208.67578125 C-155.39967806 206.57453626 -156.08923041 204.57808883 -157.0625 201.875 C-158.15624859 198.18625758 -158.15624859 198.18625758 -161 196 C-161 194.35 -161 192.7 -161 191 C-161.66 191 -162.32 191 -163 191 C-165.1519437 187.77208445 -165.20086443 186.71599191 -165 183 C-165.66 183 -166.32 183 -167 183 C-167.11069824 182.44127197 -167.22139648 181.88254395 -167.33544922 181.30688477 C-167.84757383 178.72521184 -168.36127923 176.14385577 -168.875 173.5625 C-169.04902344 172.68400391 -169.22304687 171.80550781 -169.40234375 170.90039062 C-170.25176691 166.63754479 -171.12868731 162.38672235 -172.09375 158.1484375 C-177.35465492 134.67132535 -174.62086544 106.95258247 -165 85 C-164.62691369 83.67723944 -164.26953585 82.34767923 -164 81 C-163.34 81 -162.68 81 -162 81 C-161.76216797 80.05640625 -161.76216797 80.05640625 -161.51953125 79.09375 C-159.8518847 72.97597482 -157.55551498 68.21816588 -154 63 C-153.67 62.34 -153.34 61.68 -153 61 C-152.34 61 -151.68 61 -151 61 C-150.91363281 60.4534375 -150.82726562 59.906875 -150.73828125 59.34375 C-149.7625103 56.24606444 -148.11732376 54.10651521 -146.1875 51.5 C-145.50042969 50.5615625 -144.81335938 49.623125 -144.10546875 48.65625 C-142 46 -142 46 -139.80078125 43.84375 C-137.76757454 42.03045366 -137.76757454 42.03045366 -137 39 C-132.68181818 34.22727273 -132.68181818 34.22727273 -129 33 C-129 32.34 -129 31.68 -129 31 C-128.01 30.67 -127.02 30.34 -126 30 C-125.34 29.01 -124.68 28.02 -124 27 C-123.01 27 -122.02 27 -121 27 C-121 26.01 -121 25.02 -121 24 C-119.68 23.67 -118.36 23.34 -117 23 C-117 22.34 -117 21.68 -117 21 C-116.01 21 -115.02 21 -114 21 C-114 20.34 -114 19.68 -114 19 C-108.97412138 15.38764974 -102.98016816 13.41179916 -97 12 C-97 11.34 -97 10.68 -97 10 C-95.78183594 9.60167969 -94.56367188 9.20335938 -93.30859375 8.79296875 C-91.68484214 8.25797544 -90.06114722 7.72281004 -88.4375 7.1875 C-87.23770508 6.79594727 -87.23770508 6.79594727 -86.01367188 6.39648438 C-82.38051297 5.19531755 -78.86557899 3.94206239 -75.34765625 2.42578125 C-52.71652487 -7.21291531 -23.33904334 -6.44730808 0 0 Z " fill="#CECAC7" transform="translate(265,97)"/>
<path d="M0 0 C0 0.66 0 1.32 0 2 C4.455 2.99 4.455 2.99 9 4 C9 4.66 9 5.32 9 6 C9.99 6 10.98 6 12 6 C12.99 8.475 12.99 8.475 14 11 C15.32 11 16.64 11 18 11 C19.8125 12.8125 19.8125 12.8125 21 15 C20.67 15.99 20.34 16.98 20 18 C18.02 17.01 18.02 17.01 16 16 C16 15.34 16 14.68 16 14 C14.865625 13.855625 13.73125 13.71125 12.5625 13.5625 C9 13 9 13 8 12 C-1.15825363 11.32017205 -9.6917963 10.69887028 -17.76171875 15.6328125 C-20.20614073 17.12591493 -22.6354811 18.11376885 -25.3125 19.125 C-28.78368682 20.46552113 -31.83766005 22.02353753 -35 24 C-35.66 24 -36.32 24 -37 24 C-37.495 25.485 -37.495 25.485 -38 27 C-39.77734375 28.60546875 -39.77734375 28.60546875 -41.9375 30.1875 C-42.64777344 30.71730469 -43.35804688 31.24710937 -44.08984375 31.79296875 C-46 33 -46 33 -48 33 C-48 33.66 -48 34.32 -48 35 C-48.66 35 -49.32 35 -50 35 C-50 35.99 -50 36.98 -50 38 C-51.3303125 38.5878125 -51.3303125 38.5878125 -52.6875 39.1875 C-56.15286101 41.08364093 -58.33107495 43.11467562 -61 46 C-62.6875 47.8125 -62.6875 47.8125 -64 49 C-64.66 49 -65.32 49 -66 49 C-66 49.66 -66 50.32 -66 51 C-68.7663534 52.34277732 -71.53876211 53.67255228 -74.3125 55 C-75.09818359 55.3815625 -75.88386719 55.763125 -76.69335938 56.15625 C-77.8293457 56.69765625 -77.8293457 56.69765625 -78.98828125 57.25 C-80.03302612 57.75273437 -80.03302612 57.75273437 -81.09887695 58.265625 C-83 59 -83 59 -86 59 C-86 59.99 -86 60.98 -86 62 C-104.74334287 66.30432193 -124.83261451 65.27746189 -142 56 C-142 55.34 -142 54.68 -142 54 C-143.65 53.67 -145.3 53.34 -147 53 C-147 52.34 -147 51.68 -147 51 C-147.66 51 -148.32 51 -149 51 C-149 50.34 -149 49.68 -149 49 C-150.1446875 48.8453125 -150.1446875 48.8453125 -151.3125 48.6875 C-154.19807812 47.94932885 -155.26179817 47.37859197 -157 45 C-157 44.01 -157 43.02 -157 42 C-154.03824877 42.61277612 -152.61941217 43.25372522 -150 45 C-150 45.66 -150 46.32 -150 47 C-146.54196269 47.11795981 -143.08445443 47.18782752 -139.625 47.25 C-138.17673828 47.30027344 -138.17673828 47.30027344 -136.69921875 47.3515625 C-130.53599982 47.43429027 -125.87289676 46.59067458 -120.25488281 44.02490234 C-117.24829742 42.65833181 -114.15453967 41.69791835 -111.0078125 40.7109375 C-108.04094591 39.66041275 -105.61320996 38.61320996 -103.375 36.375 C-102.92125 35.92125 -102.4675 35.4675 -102 35 C-101.34 35 -100.68 35 -100 35 C-100 34.34 -100 33.68 -100 33 C-98.68 33 -97.36 33 -96 33 C-96 32.34 -96 31.68 -96 31 C-94.35 30.34 -92.7 29.68 -91 29 C-91 28.34 -91 27.68 -91 27 C-90.01 27 -89.02 27 -88 27 C-88 26.34 -88 25.68 -88 25 C-87.34 25 -86.68 25 -86 25 C-86 24.34 -86 23.68 -86 23 C-84.32278959 21.43041807 -82.53205886 20.0519475 -80.7265625 18.6328125 C-78.8962152 17.09130694 -78.8962152 17.09130694 -77.98046875 14.93359375 C-76.35425543 11.72651967 -73.07985539 10.59302865 -70 9 C-66.59553045 7.10862803 -65.19345665 6.29018498 -63 3 C-60.9765625 2.12109375 -60.9765625 2.12109375 -58.625 1.4375 C-56.24247154 0.73230345 -54.09826911 0.0502224 -51.8828125 -1.08203125 C-49.49667123 -2.24539888 -47.6195489 -2.14553049 -45 -2 C-45 -2.66 -45 -3.32 -45 -4 C-31.00948315 -7.07955655 -13.00418325 -6.50209162 0 0 Z " fill="#CECAC7" transform="translate(288,381)"/>
<path d="M0 0 C2.88777197 13.83335927 1.3830911 29.16339888 -0.3125 43.0625 C-0.43012695 44.05427246 -0.54775391 45.04604492 -0.66894531 46.06787109 C-1.40944602 51.57996138 -2.66254111 55.96938194 -5 61 C-5.54448978 63.34880259 -5.54448978 63.34880259 -5.6875 65.4375 C-5.790625 66.613125 -5.89375 67.78875 -6 69 C-6.66 69 -7.32 69 -8 69 C-8.103125 69.825 -8.20625 70.65 -8.3125 71.5 C-9.11646056 75.59289012 -10.46352158 79.12540225 -12 83 C-12.66 83 -13.32 83 -14 83 C-14.03738281 83.59167969 -14.07476562 84.18335938 -14.11328125 84.79296875 C-14.51749642 89.65147663 -15.06219085 92.97411339 -18 97 C-18.680625 98.0725 -19.36125 99.145 -20.0625 100.25 C-22 103 -22 103 -24 104 C-24.474375 104.99 -24.94875 105.98 -25.4375 107 C-27 110 -27 110 -30 111 C-30.12592529 112.10057739 -30.12592529 112.10057739 -30.25439453 113.22338867 C-31.16077803 116.59873234 -32.46722533 117.96957174 -34.9296875 120.42578125 C-35.72503906 121.22177734 -36.52039063 122.01777344 -37.33984375 122.83789062 C-38.17644531 123.65451172 -39.01304687 124.47113281 -39.875 125.3125 C-40.70386719 126.14845703 -41.53273438 126.98441406 -42.38671875 127.84570312 C-48.60632653 134 -48.60632653 134 -52 134 C-52.65455759 132.00283825 -53.2981943 130.00209613 -53.9375 128 C-54.29714844 126.88625 -54.65679687 125.7725 -55.02734375 124.625 C-57.08743799 116.94721905 -57.19377627 109.40245215 -57.1875 101.5 C-57.18669434 100.44498291 -57.18588867 99.38996582 -57.18505859 98.30297852 C-57.09913034 87.24266474 -56.22126855 76.62477231 -53 66 C-50.03 65.505 -50.03 65.505 -47 65 C-47 64.34 -47 63.68 -47 63 C-46.01 63 -45.02 63 -44 63 C-44 62.34 -44 61.68 -44 61 C-38.70588235 57 -38.70588235 57 -35 57 C-35 59.31 -35 61.62 -35 64 C-31.37 64 -27.74 64 -24 64 C-24 48.49 -24 32.98 -24 17 C-23.34 17 -22.68 17 -22 17 C-22 16.34 -22 15.68 -22 15 C-21.34 15 -20.68 15 -20 15 C-20 14.34 -20 13.68 -20 13 C-5.99558499 0 -5.99558499 0 0 0 Z " fill="#ECE8E5" transform="translate(332,215)"/>
<path d="M0 0 C0.00586624 0.7213916 0.01173248 1.4427832 0.01777649 2.18603516 C0.07587938 9.0120341 0.14805585 15.83775781 0.23571491 22.66343689 C0.28028512 26.17192246 0.31956962 29.68029549 0.34643555 33.18896484 C0.37761966 37.23043489 0.43240245 41.27129537 0.48828125 45.3125 C0.49467117 46.5617627 0.5010611 47.81102539 0.50764465 49.09814453 C0.63696031 56.81116056 1.0788982 63.10107175 5.84375 69.4609375 C10.12597662 72.51745432 15.00237634 71.80644811 20 71 C24.219841 69.34062262 28.05939423 67.22622642 32 65 C32.99 64.67 33.98 64.34 35 64 C35 43.87 35 23.74 35 3 C42 0 42 0 45 0 C45 24.42 45 48.84 45 74 C41.7 74 38.4 74 35 74 C35 71.69 35 69.38 35 67 C33.88625 67.66 32.7725 68.32 31.625 69 C28.25 71 28.25 71 26 71 C26 71.66 26 72.32 26 73 C17.99870456 75.6126679 8.44600245 76.53925751 0.27734375 74.23046875 C-2.32693399 72.82335471 -3.84793522 71.32225395 -5.75 69.0625 C-6.63945312 68.02802734 -6.63945312 68.02802734 -7.546875 66.97265625 C-10.1504978 63.4381683 -10.12243478 60.40139174 -10.11352539 56.15161133 C-10.11344986 54.9505928 -10.11337433 53.74957428 -10.11329651 52.51216125 C-10.10813522 51.21521835 -10.10297394 49.91827545 -10.09765625 48.58203125 C-10.09579077 47.24110466 -10.09436748 45.90017739 -10.09336853 44.55924988 C-10.08955356 41.03290927 -10.07973199 37.50660996 -10.06866455 33.98028564 C-10.0584285 30.38074299 -10.05386621 26.78119365 -10.04882812 23.18164062 C-10.0381088 16.12107687 -10.02104462 9.06054113 -10 2 C-6.49223216 0.39644899 -3.85645121 -0.22036864 0 0 Z " fill="#9E9A97" transform="translate(262,205)"/>
<path d="M0 0 C3.63 0 7.26 0 11 0 C11.33 1.32 11.66 2.64 12 4 C12.66 4 13.32 4 14 4 C14.31453125 4.9178125 14.6290625 5.835625 14.953125 6.78125 C17.58304662 14.55504454 17.58304662 14.55504454 21 22 C22.89461496 25.54476348 24.18138946 29.20497454 25.5 33 C27.09573703 37.59141513 28.804196 41.89446565 31.0859375 46.1796875 C32.67635739 49.34693394 33.80907429 52.66540801 35 56 C35.66 56 36.32 56 37 56 C38.60960495 52.18977386 40.21167652 48.37642297 41.8125 44.5625 C42.26431641 43.49322266 42.71613281 42.42394531 43.18164062 41.32226562 C45.44691795 35.91536282 47.59740509 30.53650356 49.33691406 24.93603516 C50.06381386 22.81368045 50.96769735 20.83427086 51.9375 18.8125 C54.71153762 12.79315968 56.29262872 6.38447876 58 0 C59.65 0 61.3 0 63 0 C61.8900043 4.88398106 59.90030575 9.37952414 58 14 C57.60425781 14.96808594 57.20851562 15.93617188 56.80078125 16.93359375 C54.80237361 21.78146592 52.74326578 26.57280991 50.5 31.3125 C48.5009516 35.63544216 46.94657299 40.03107336 45.5 44.5625 C43.79008082 49.91491028 41.75785482 54.88601425 39.12890625 59.85546875 C36.73142325 64.40985686 34.8848388 69.21540921 33 74 C32.01 74 31.02 74 30 74 C29.82984375 73.38253906 29.6596875 72.76507813 29.484375 72.12890625 C27.49025252 65.16008459 25.13806122 58.53602433 21.375 52.3125 C20 50 20 50 19.09765625 47.2265625 C17.99520852 43.98591543 16.63186949 41.10140632 15.0625 38.0625 C11.83952783 31.69459373 9.13851838 25.54305067 7.125 18.6875 C5.55859997 13.42973865 3.56946901 8.74079989 0.953125 3.92578125 C0 2 0 2 0 0 Z " fill="#9F9B98" transform="translate(144,206)"/>
<path d="M0 0 C0 24.75 0 49.5 0 75 C-3.63 75 -7.26 75 -11 75 C-11 51.57 -11 28.14 -11 4 C-3 0 -3 0 0 0 Z " fill="#A39F9C" transform="translate(231,204)"/>
<path d="M0 0 C-3.75 2 -3.75 2 -6 2 C-6.14308594 3.01191406 -6.28617187 4.02382813 -6.43359375 5.06640625 C-6.78307608 7.49350081 -7.14719128 9.91860252 -7.53515625 12.33984375 C-10.12093308 29.98058787 -10.16540296 47.626169 -6 65 C-5.65982842 66.66528442 -5.32365904 68.33142764 -5 70 C-3.515 70.495 -3.515 70.495 -2 71 C-5.70090521 74.9252025 -9.54959656 77.94580156 -14 81 C-11.46699941 81 -9.0213081 80.90181119 -6.5 80.6875 C-5.7265625 80.62949219 -4.953125 80.57148438 -4.15625 80.51171875 C-1.58165106 79.90071792 -0.76456966 78.9087176 1 77 C3.6875 76.3125 3.6875 76.3125 6 76 C4.6875 77.5 4.6875 77.5 3 79 C2.01 79 1.02 79 0 79 C0.2165625 79.53109375 0.433125 80.0621875 0.65625 80.609375 C0.9346875 81.31578125 1.213125 82.0221875 1.5 82.75 C1.7784375 83.44609375 2.056875 84.1421875 2.34375 84.859375 C3 87 3 87 3 91 C3.66 91 4.32 91 5 91 C8 96.75 8 96.75 8 99 C8.66 99 9.32 99 10 99 C10.33 100.32 10.66 101.64 11 103 C11.66 103 12.32 103 13 103 C13.66 104.65 14.32 106.3 15 108 C13.68 108.33 12.36 108.66 11 109 C10.9071875 108.1646875 10.9071875 108.1646875 10.8125 107.3125 C10.11453723 104.77753713 10.11453723 104.77753713 7.6875 102.75 C4.45252602 99.43979407 2.86260175 96.18528839 1 92 C0.62488281 91.16984375 0.24976563 90.3396875 -0.13671875 89.484375 C-1.10306616 87.32789446 -2.05704523 85.16678968 -3 83 C-7.09182843 82.61639108 -9.96314555 83.74588152 -13.73925781 85.20483398 C-17.5393463 86.54143098 -21.43301364 87.32508394 -25.375 88.125 C-26.55449219 88.37830078 -26.55449219 88.37830078 -27.7578125 88.63671875 C-37.50508545 90.65943716 -47.06127798 91.16283777 -57 91.125 C-58.52367187 91.13080078 -58.52367187 91.13080078 -60.078125 91.13671875 C-66.44487395 91.12855625 -72.67952235 90.76733675 -79 90 C-78.01 89.01 -78.01 89.01 -77 88 C-77.99 87.34 -78.98 86.68 -80 86 C-73.40868021 86.88729305 -73.40868021 86.88729305 -71.08959961 87.52685547 C-68.61472373 88.08723746 -66.35397644 88.12963855 -63.81640625 88.1328125 C-62.30916992 88.13571289 -62.30916992 88.13571289 -60.77148438 88.13867188 C-59.71251953 88.13416016 -58.65355469 88.12964844 -57.5625 88.125 C-55.94891602 88.12209961 -55.94891602 88.12209961 -54.30273438 88.11914062 C-46.82518219 88.07852628 -39.43803228 87.81353478 -32 87 C-32 86.34 -32 85.68 -32 85 C-30.23141309 84.32739649 -28.46003984 83.66211605 -26.6875 83 C-25.20830078 82.443125 -25.20830078 82.443125 -23.69921875 81.875 C-21 81 -21 81 -18 81 C-18 80.34 -18 79.68 -18 79 C-16.54462432 78.16151196 -15.08559627 77.32936066 -13.625 76.5 C-12.81289063 76.0359375 -12.00078125 75.571875 -11.1640625 75.09375 C-9 74 -9 74 -7 74 C-7.41572266 72.2984375 -7.41572266 72.2984375 -7.83984375 70.5625 C-8.20595709 69.04172152 -8.57182963 67.52088505 -8.9375 66 C-9.21110352 64.88431641 -9.21110352 64.88431641 -9.49023438 63.74609375 C-11.75422061 54.27851496 -12.21337101 45.14870891 -12.24023438 35.4387207 C-12.24989946 33.33438958 -12.28098157 31.23105455 -12.3125 29.12695312 C-12.38255855 20.02455578 -12.15385351 10.30770702 -8 2 C-10.97 2 -13.94 2 -17 2 C-17 1.67 -17 1.34 -17 1 C-15.10440036 0.83069605 -13.20850769 0.66467136 -11.3125 0.5 C-10.25675781 0.4071875 -9.20101562 0.314375 -8.11328125 0.21875 C-5.39363975 0.0276585 -2.72460144 -0.04043935 0 0 Z " fill="#D5D1CE" transform="translate(285,279)"/>
<path d="M0 0 C0.33 0 0.66 0 1 0 C1.33 3.63 1.66 7.26 2 11 C1.01 11.495 1.01 11.495 0 12 C0 8.04 0 4.08 0 0 Z M-24 4 C-23.67 4 -23.34 4 -23 4 C-23 11.59 -23 19.18 -23 27 C-19.88353813 26.20963137 -19.88353813 26.20963137 -17.8125 23.8125 C-14.49177158 20.49177158 -10.95658277 17.54164588 -7 15 C-6.34 15 -5.68 15 -5 15 C-5 14.34 -5 13.68 -5 13 C-2.6875 12.375 -2.6875 12.375 0 12 C3 14 3 14 3.52490234 15.97192383 C4.03280676 22.58601245 3.9728412 29.06547323 3.625 35.6875 C3.58117187 36.68072266 3.53734375 37.67394531 3.4921875 38.69726562 C3.24528177 43.85828117 2.84143518 48.90147326 2 54 C1.67 54 1.34 54 1 54 C1 40.8 1 27.6 1 14 C-6.86183012 18.50554395 -6.86183012 18.50554395 -13.5 23.875 C-16.8008658 27 -16.8008658 27 -19 27 C-19 27.66 -19 28.32 -19 29 C-19.66 29 -20.32 29 -21 29 C-21 29.66 -21 30.32 -21 31 C-21.66 31 -22.32 31 -23 31 C-23 46.51 -23 62.02 -23 78 C-23.33 78 -23.66 78 -24 78 C-24 53.58 -24 29.16 -24 4 Z " fill="#D7D3D0" transform="translate(331,201)"/>
<path d="M0 0 C1.65 0 3.3 0 5 0 C3.8900043 4.88398106 1.90030575 9.37952414 0 14 C-0.39574219 14.96808594 -0.79148438 15.93617188 -1.19921875 16.93359375 C-3.19762639 21.78146592 -5.25673422 26.57280991 -7.5 31.3125 C-9.80353121 36.29505968 -11.51424706 41.41227545 -13.18432617 46.63037109 C-14.7247171 51.37126337 -16.59807098 55.64094363 -19 60 C-20.32 60 -21.64 60 -23 60 C-23.33 58.68 -23.66 57.36 -24 56 C-23.01 56 -22.02 56 -21 56 C-19.39039505 52.18977386 -17.78832348 48.37642297 -16.1875 44.5625 C-15.73568359 43.49322266 -15.28386719 42.42394531 -14.81835938 41.32226562 C-12.55308205 35.91536282 -10.40259491 30.53650356 -8.66308594 24.93603516 C-7.93618614 22.81368045 -7.03230265 20.83427086 -6.0625 18.8125 C-3.28846238 12.79315968 -1.70737128 6.38447876 0 0 Z " fill="#B1ADAA" transform="translate(202,206)"/>
<path d="M0 0 C0.66 0.33 1.32 0.66 2 1 C2 1.66 2 2.32 2 3 C2.66 3 3.32 3 4 3 C4.48372093 10.25581395 4.48372093 10.25581395 2.375 13.5 C-0.72140596 15.45562482 -2.39853135 15.60024477 -6 15 C-8.4375 13.5625 -8.4375 13.5625 -10 11 C-10.17728184 7.88094758 -9.96048032 4.97921442 -9 2 C-5.54337669 -0.30441554 -4.05142119 -0.25860135 0 0 Z " fill="#9F9B98" transform="translate(228,175)"/>
<path d="M0 0 C0.66 0.33 1.32 0.66 2 1 C1.67 21.13 1.34 41.26 1 62 C0.67 62 0.34 62 0 62 C0 55.07 0 48.14 0 41 C-0.66 41 -1.32 41 -2 41 C-2.0825 41.515625 -2.165 42.03125 -2.25 42.5625 C-3.09352709 45.30396303 -4.46552539 47.52761446 -5.89941406 49.99633789 C-7.75351817 53.37181093 -9.24079981 56.89768067 -10.75 60.4375 C-11.22373047 61.53481445 -11.22373047 61.53481445 -11.70703125 62.65429688 C-12.47501513 64.43462314 -13.23803568 66.21708911 -14 68 C-13.34 68.33 -12.68 68.66 -12 69 C-14.76452033 70.38226016 -17.0461363 70.09525387 -20.125 70.0625 C-21.22070312 70.05347656 -22.31640625 70.04445313 -23.4453125 70.03515625 C-24.70988281 70.01775391 -24.70988281 70.01775391 -26 70 C-26 69.67 -26 69.34 -26 69 C-23.03 69 -20.06 69 -17 69 C-16.62875 67.5975 -16.2575 66.195 -15.875 64.75 C-13.81334302 57.92919093 -11.08217984 50.43565878 -6.26928711 45.07080078 C0.75279598 36.81342587 0.00909486 28.16896777 -0.0625 17.875 C-0.04937034 16.1379942 -0.03312019 14.40100904 -0.01367188 12.6640625 C0.026883 8.44208666 0.02515035 4.22207479 0 0 Z " fill="#D6D2CF" transform="translate(296,207)"/>
<path d="M0 0 C12.30174644 -0.44375037 24.12840434 -0.00364234 36.3125 1.875 C37.45702637 2.04870117 38.60155273 2.22240234 39.78076172 2.40136719 C45.8049724 3.39363328 45.8049724 3.39363328 48 4 C48.495 4.99 48.495 4.99 49 6 C47.35 6.33 45.7 6.66 44 7 C44.495 7.99 44.495 7.99 45 9 C40.92142061 8.34216461 37.16401997 7.08592252 33.28125 5.71875 C27.63305435 3.93918151 22.06533807 3.70487369 16.1875 3.4375 C15.30384766 3.39431641 14.42019531 3.35113281 13.50976562 3.30664062 C11.34000377 3.20108464 9.1700209 3.10008929 7 3 C7 2.67 7 2.34 7 2 C4.69 1.67 2.38 1.34 0 1 C0 0.67 0 0.34 0 0 Z " fill="#D3CFCC" transform="translate(217,93)"/>
<path d="M0 0 C0.66 0 1.32 0 2 0 C2 0.99 2 1.98 2 3 C-4.75 7 -4.75 7 -7 7 C-7 7.66 -7 8.32 -7 9 C-15.03228647 11.62278742 -24.74052138 12.61830111 -32.89453125 10.109375 C-35 9 -35 9 -36 7 C-33.02148438 7.43945312 -33.02148438 7.43945312 -30.04296875 7.87890625 C-27.7974658 8.13904799 -27.7974658 8.13904799 -25 7 C-23.18637593 7.08230845 -21.37384106 7.18981953 -19.5625 7.3125 C-12.32142135 7.418467 -7.07725861 4.72477141 -1 1 C-0.67 0.67 -0.34 0.34 0 0 Z " fill="#A29E9C" transform="translate(295,269)"/>
<path d="M0 0 C0.1875 2.375 0.1875 2.375 0 5 C-3 7 -3 7 -6 7 C-6 7.99 -6 8.98 -6 10 C-5.34 10 -4.68 10 -4 10 C-4 10.66 -4 11.32 -4 12 C-6.16874252 11.49396008 -7.99967627 11.00016187 -10 10 C-10.48468708 3.57789614 -10.48468708 3.57789614 -8.375 1.0625 C-5.43969547 -0.25066255 -3.18136394 -0.21691118 0 0 Z " fill="#E2DAD8" transform="translate(268,177)"/>
<path d="M0 0 C0.33 0.99 0.66 1.98 1 3 C-0.41784621 5.36407833 -1.85376819 7.49155985 -3.5 9.6875 C-3.96486816 10.31962402 -4.42973633 10.95174805 -4.90869141 11.60302734 C-11.80372374 20.88782876 -19.77946017 28.90094598 -28 37 C-28.66 36.67 -29.32 36.34 -30 36 C-29.45996338 35.47567383 -28.91992676 34.95134766 -28.36352539 34.41113281 C-25.9220195 32.03197331 -23.49221044 29.64120182 -21.0625 27.25 C-20.21236328 26.425 -19.36222656 25.6 -18.48632812 24.75 C-17.67744141 23.95078125 -16.86855469 23.1515625 -16.03515625 22.328125 C-15.2862915 21.5949707 -14.53742676 20.86181641 -13.76586914 20.10644531 C-11.95003535 17.94039887 -11.53836787 16.7064476 -11 14 C-9.68799596 12.64567325 -8.35368596 11.31266518 -7 10 C-5.76487921 7.86690808 -5.76487921 7.86690808 -5 6 C-4.34 6 -3.68 6 -3 6 C-2.690625 5.38125 -2.38125 4.7625 -2.0625 4.125 C-1.375 2.75 -0.6875 1.375 0 0 Z " fill="#D9D5D2" transform="translate(313,312)"/>
<path d="M0 0 C1.65 0 3.3 0 5 0 C4.29573599 3.13651598 3.26593833 6.02092247 2.0625 9 C1.72347656 9.845625 1.38445312 10.69125 1.03515625 11.5625 C0.10255158 13.75852004 -0.90599241 15.88066691 -2 18 C-2.66 18 -3.32 18 -4 18 C-3.41632611 11.69632197 -1.95928381 6.01339937 0 0 Z " fill="#ABA7A4" transform="translate(202,206)"/>
<path d="M0 0 C3.47914843 -0.0294191 6.95826417 -0.04693792 10.4375 -0.0625 C11.41138672 -0.07087891 12.38527344 -0.07925781 13.38867188 -0.08789062 C19.34778969 -0.10782078 25.09067683 0.22390482 31 1 C31 1.33 31 1.66 31 2 C22.9874678 3.03387512 15.07094823 3.10466648 7 3 C7 2.67 7 2.34 7 2 C4.69 1.67 2.38 1.34 0 1 C0 0.67 0 0.34 0 0 Z " fill="#DCD8D5" transform="translate(217,93)"/>
<path d="M0 0 C0.66 0 1.32 0 2 0 C2 0.99 2 1.98 2 3 C-4.75 7 -4.75 7 -7 7 C-7 7.66 -7 8.32 -7 9 C-8.65 9.33 -10.3 9.66 -12 10 C-12.33 9.01 -12.66 8.02 -13 7 C-12.14535156 6.57847656 -11.29070312 6.15695312 -10.41015625 5.72265625 C-9.30542969 5.17480469 -8.20070313 4.62695312 -7.0625 4.0625 C-5.96035156 3.51722656 -4.85820312 2.97195313 -3.72265625 2.41015625 C-1.15205586 1.25295022 -1.15205586 1.25295022 0 0 Z " fill="#B2AEAB" transform="translate(295,269)"/>
<path d="M0 0 C0.99 0.33 1.98 0.66 3 1 C1.86059291 4.85645478 0.82205934 8.06505829 -2 11 C-2.99 11 -3.98 11 -5 11 C-5.33 9.68 -5.66 8.36 -6 7 C-5.01 7 -4.02 7 -3 7 C-2.01 4.69 -1.02 2.38 0 0 Z " fill="#BEBAB7" transform="translate(184,255)"/>
<path d="M0 0 C2.64 0.66 5.28 1.32 8 2 C8 1.34 8 0.68 8 0 C8.66 0 9.32 0 10 0 C11.6875 1.8125 11.6875 1.8125 13 4 C12.67 4.99 12.34 5.98 12 7 C10.68 6.34 9.36 5.68 8 5 C8 4.34 8 3.68 8 3 C6.865625 2.87625 5.73125 2.7525 4.5625 2.625 C3.386875 2.41875 2.21125 2.2125 1 2 C0.67 1.34 0.34 0.68 0 0 Z " fill="#DCD8D5" transform="translate(296,392)"/>
<path d="M0 0 C0.33 0 0.66 0 1 0 C1.31563182 5.26053037 0.66590937 8.44573816 -2 13 C-2.66 13 -3.32 13 -4 13 C-3.67 10.36 -3.34 7.72 -3 5 C-2.34 5 -1.68 5 -1 5 C-0.67 3.35 -0.34 1.7 0 0 Z " fill="#A19D9A" transform="translate(202,211)"/>
<path d="M0 0 C0.33 0 0.66 0 1 0 C1.33188114 4.756963 0.62235719 7.06646421 -2 11 C-2.69822617 12.65369357 -3.37498605 14.31727014 -4 16 C-4.33 16 -4.66 16 -5 16 C-5 14.02 -5 12.04 -5 10 C-4.34 10 -3.68 10 -3 10 C-2.87625 9.278125 -2.7525 8.55625 -2.625 7.8125 C-2.0095069 5.04278106 -1.11555626 2.6029646 0 0 Z " fill="#DAD6D3" transform="translate(323,288)"/>
<path d="M0 0 C0.33 0.99 0.66 1.98 1 3 C1.66 3.33 2.32 3.66 3 4 C1.35 7.3 -0.3 10.6 -2 14 C-3.21065165 10.36804504 -2.62784815 8.93468371 -1.5625 5.3125 C-1.27503906 4.31863281 -0.98757812 3.32476562 -0.69140625 2.30078125 C-0.46324219 1.54152344 -0.23507813 0.78226563 0 0 Z " fill="#AAA6A3" transform="translate(197,221)"/>
<path d="M0 0 C0.33 0.66 0.66 1.32 1 2 C-0.04714924 3.32477959 -1.11344669 4.63443746 -2.1875 5.9375 C-2.77917969 6.66839844 -3.37085938 7.39929688 -3.98046875 8.15234375 C-6.32505203 10.29738803 -7.88391498 10.66094412 -11 11 C-7.33333333 7.33333333 -3.66666667 3.66666667 0 0 Z " fill="#E1DDDA" transform="translate(233,420)"/>
<path d="M0 0 C2.97 0 5.94 0 9 0 C8.01 0.495 8.01 0.495 7 1 C7 4.3 7 7.6 7 11 C6.67 11 6.34 11 6 11 C6 8.36 6 5.72 6 3 C5.01 3.33 4.02 3.66 3 4 C3 3.34 3 2.68 3 2 C2.01 2 1.02 2 0 2 C0 1.34 0 0.68 0 0 Z " fill="#E3DCDA" transform="translate(238,177)"/>
<path d="M0 0 C0.99 0.33 1.98 0.66 3 1 C1.54782324 2.50596108 0.08807139 4.00462104 -1.375 5.5 C-2.18710938 6.3353125 -2.99921875 7.170625 -3.8359375 8.03125 C-6 10 -6 10 -8 10 C-8 8 -8 8 -5.6875 5.4375 C-3 3 -3 3 0 2 C0 1.34 0 0.68 0 0 Z " fill="#D6D2CF" transform="translate(136,128)"/>
<path d="M0 0 C0 0.33 0 0.66 0 1 C-5.30094216 2.80304155 -10.60308488 4.50723624 -16 6 C-15.67 5.34 -15.34 4.68 -15 4 C-13.68 4 -12.36 4 -11 4 C-10.67 3.01 -10.34 2.02 -10 1 C-6.76421296 -0.31828361 -3.44785988 -0.07836045 0 0 Z " fill="#DDD9D6" transform="translate(243,378)"/>
<path d="M0 0 C3.26954202 0.56371414 4.82575883 1.49962266 7 4 C6.34 4 5.68 4 5 4 C5 4.66 5 5.32 5 6 C3.0625 5.25 3.0625 5.25 1 4 C0.25 1.875 0.25 1.875 0 0 Z " fill="#DAD6D3" transform="translate(131,423)"/>
<path d="M0 0 C-3.88309282 3.64775386 -6.71201818 4.58525633 -12 5 C-10.7410501 2.4821002 -9.60942883 2.07291536 -7.125 0.8125 C-6.42632812 0.44769531 -5.72765625 0.08289063 -5.0078125 -0.29296875 C-3 -1 -3 -1 0 0 Z " fill="#EEEAE7" transform="translate(279,357)"/>
<path d="M0 0 C0.66 0.33 1.32 0.66 2 1 C2 2.98 2 4.96 2 7 C0.02 7.99 0.02 7.99 -2 9 C-1.34 6.03 -0.68 3.06 0 0 Z " fill="#D5D1CE" transform="translate(232,180)"/>
<path d="M0 0 C1.32 1.65 2.64 3.3 4 5 C-1.75 4.25 -1.75 4.25 -4 2 C-2.68 2 -1.36 2 0 2 C0 1.34 0 0.68 0 0 Z " fill="#E6E2DF" transform="translate(292,380)"/>
</svg>
