<?xml version="1.0" encoding="UTF-8"?>
<svg version="1.1" xmlns="http://www.w3.org/2000/svg" width="500" height="500">
<path d="M0 0 C165 0 330 0 500 0 C500 165 500 330 500 500 C335 500 170 500 0 500 C0 335 0 170 0 0 Z M143.37207031 142.68359375 C142.22683736 143.7823653 141.05051984 144.84861963 139.8671875 145.90625 C116.32466164 167.57719431 101.45136382 203.39348129 99 235 C98.4794235 249.01101173 98.25636585 263.2038851 101 277 C101.12890625 277.66080566 101.2578125 278.32161133 101.390625 279.00244141 C108.47595668 314.45370163 128.32424047 348.2488047 157.5625 369.9375 C158.25722412 370.45401123 158.95194824 370.97052246 159.66772461 371.50268555 C192.69508687 395.64254817 233.7270555 405.39386619 274.10839844 399.49389648 C283.00366927 398.02383068 291.49388545 395.38112738 300.05078125 392.59667969 C302.34217492 391.89525607 304.63626248 391.39077919 307 391 C307.61875 392.30710937 307.61875 392.30710937 308.25 393.640625 C312.23947737 401.91864452 316.69379962 409.4748431 322 417 C319.19299722 416.06433241 316.7212674 414.91338949 314.0625 413.625 C295.86135238 405.29484514 274.69193548 404.52347727 255.9140625 411.44140625 C244.26816817 416.06101353 235.03386751 422.73669773 226.3125 431.75 C210.42551375 448.13995565 188.87570414 463.48645197 165.37573242 464.46508789 C158.32056745 464.57452369 152.97808748 463.98539166 147 460 C145.67476594 459.31737499 144.34309181 458.64678174 143 458 C143.94336232 463.50493707 147.65540827 465.84477877 152 469 C170.24731243 481.02322205 190.3041321 485.8492098 212.06640625 481.6875 C228.65074433 477.80089081 241.39883453 469.8122902 253.1875 457.75 C270.71533633 439.90445402 291.25876019 426.87424481 316.625 424.6875 C323.22632325 425.29873363 328.73495185 426.97511308 334 431 C334.66 431 335.32 431 336 431 C334.58903007 427.590156 332.4333053 425.02614323 330.06396484 422.22827148 C324.79485548 415.98446736 320.31960874 409.5970533 316.375 402.4375 C315.96185547 401.68839355 315.54871094 400.93928711 315.12304688 400.16748047 C312.99842161 396.19764493 311.27514801 392.33961661 310 388 C310.86238281 387.73703125 311.72476563 387.4740625 312.61328125 387.203125 C344.15083227 375.99947366 371.65596162 345.50693737 386.0078125 315.98828125 C404.09791613 276.94444501 405.06937227 234.45879503 390.34301758 194.24438477 C383.26937265 175.82588106 372.539735 160.28104095 359 146 C357.66001953 144.56333984 357.66001953 144.56333984 356.29296875 143.09765625 C329.33923654 114.76344533 291.48449522 100.29349263 252.83984375 98.8125 C211.37650512 98.15889072 173.00775802 113.94827923 143.37207031 142.68359375 Z " fill="#000000" transform="translate(0,0)"/>
<path d="M0 0 C1.05219727 0.00491455 2.10439453 0.0098291 3.18847656 0.01489258 C25.42001033 0.34744467 45.56228213 8.68670001 62.3125 23.3125 C63.15683594 24.03566406 64.00117188 24.75882813 64.87109375 25.50390625 C92.24341889 49.45989857 109.45307645 86.23339449 113.3125 122.3125 C113.3046875 124.9609375 113.3046875 124.9609375 112.3125 127.3125 C110.05618796 129.05912993 107.93514129 130.49104928 105.5 131.9375 C98.86060949 136.09120736 93.2329966 140.73534202 87.60546875 146.16015625 C85.3125 148.3125 85.3125 148.3125 83.3125 149.3125 C83.3125 139.4125 83.3125 129.5125 83.3125 119.3125 C81.0025 120.3025 78.6925 121.2925 76.3125 122.3125 C74.9925 122.3125 73.6725 122.3125 72.3125 122.3125 C72.34915771 123.53243652 72.38581543 124.75237305 72.42358398 126.00927734 C72.55115953 130.57498626 72.63095922 135.14054082 72.69702148 139.70751953 C72.73202701 141.67653983 72.77964907 143.64538079 72.84057617 145.61376953 C73.4329949 165.25817549 73.4329949 165.25817549 65.3125 174.3125 C63.67562913 177.18466935 62.33759609 180.16623573 61 183.1875 C60.33744657 184.64332339 59.67469289 186.09905566 59.01171875 187.5546875 C58.71571777 188.21307617 58.4197168 188.87146484 58.11474609 189.54980469 C57.22889739 191.49619168 56.29266768 193.41187028 55.3125 195.3125 C48.71931513 195.85071917 44.65144921 195.3701014 39.3125 191.3125 C35.79085348 185.79525378 35.18565683 180.57775319 35.19897461 174.14526367 C35.19905014 172.92437546 35.19912567 171.70348724 35.19920349 170.44560242 C35.20436478 169.13710831 35.20952606 167.8286142 35.21484375 166.48046875 C35.21671039 165.11998039 35.21813313 163.75949135 35.21913147 162.39900208 C35.22293725 158.82994713 35.23275086 155.26093331 35.24383545 151.69189453 C35.25409137 148.04525305 35.25863803 144.39860489 35.26367188 140.75195312 C35.27437497 133.60545199 35.29142796 126.45897869 35.3125 119.3125 C34.24 119.8075 33.1675 120.3025 32.0625 120.8125 C29.05833192 122.19903911 27.85315105 122.3125 24.3125 122.3125 C24.39719743 129.73676281 24.49219233 137.16082046 24.60002708 144.58478546 C24.64979207 148.03272038 24.69612222 151.48062756 24.734375 154.92871094 C24.77859356 158.90056023 24.83816141 162.87211071 24.8984375 166.84375 C24.91576431 168.68483337 24.91576431 168.68483337 24.93344116 170.56311035 C25.0210084 182.23463842 25.0210084 182.23463842 30.3125 192.3125 C30.3125 192.9725 30.3125 193.6325 30.3125 194.3125 C31.034375 194.60125 31.75625 194.89 32.5 195.1875 C34.19411 195.865144 35.87662832 196.57470049 37.53125 197.34375 C40.94000413 198.53106886 44.02556602 198.73566258 47.625 198.9375 C48.87925781 199.01226562 50.13351562 199.08703125 51.42578125 199.1640625 C52.85470703 199.23753906 52.85470703 199.23753906 54.3125 199.3125 C54.03535156 200.59125 53.75820313 201.87 53.47265625 203.1875 C53.10659299 204.89579523 52.74071757 206.60413073 52.375 208.3125 C52.19259766 209.15167969 52.01019531 209.99085938 51.82226562 210.85546875 C47.46417297 231.29888522 48.12904505 252.35453206 53.4140625 272.5625 C54.3125 276.3125 54.3125 276.3125 54.3125 280.3125 C44.25223369 286.3803873 34.66441516 291.15778251 23.3125 294.3125 C22.67513916 294.49216309 22.03777832 294.67182617 21.38110352 294.85693359 C-2.07734313 301.15561662 -25.9981049 294.90630219 -46.6875 283.3125 C-49.83295219 281.47297215 -52.77894067 279.50592731 -55.6875 277.3125 C-56.54472656 276.66925781 -57.40195313 276.02601563 -58.28515625 275.36328125 C-90.67256661 249.99086554 -106.90468918 209.84126889 -111.81225586 169.95410156 C-115.45974433 136.08040326 -111.24849594 102.26383686 -96.6875 71.3125 C-96.35911133 70.61318359 -96.03072266 69.91386719 -95.69238281 69.19335938 C-88.56401754 54.31382769 -78.82289354 39.63161146 -66.6875 28.3125 C-66.0275 28.3125 -65.3675 28.3125 -64.6875 28.3125 C-64.6875 27.6525 -64.6875 26.9925 -64.6875 26.3125 C-46.81945635 10.12723444 -24.230769 -0.13444219 0 0 Z M-10.6875 93.3125 C-11.52083333 96.3125 -11.52083333 96.3125 -10.6875 99.3125 C-8.19665752 102.68246335 -6.80161135 104.13060427 -2.625 104.8125 C0.70420557 104.24582671 2.09084456 103.86328958 4.3125 101.3125 C5.18531149 97.88359774 5.64172829 95.41990423 4.625 92 C2.43887221 89.18926426 0.32042476 88.49340957 -3.125 87.875 C-6.96731988 88.53100583 -8.36659692 90.26217024 -10.6875 93.3125 Z M32.4375 94.5 C30.02874882 97.08262981 30.02874882 97.08262981 30.375 100 C31.19553421 102.4552942 31.19553421 102.4552942 33.3125 104.3125 C36.87842619 104.14832968 36.87842619 104.14832968 40.3125 103.3125 C40.6425 102.6525 40.9725 101.9925 41.3125 101.3125 C39.6625 101.3125 38.0125 101.3125 36.3125 101.3125 C35.9825 100.3225 35.6525 99.3325 35.3125 98.3125 C37.2925 97.9825 39.2725 97.6525 41.3125 97.3125 C40.9825 95.6625 40.6525 94.0125 40.3125 92.3125 C36.59185697 91.78097957 35.49772818 92.17156552 32.4375 94.5 Z M8.3125 94.3125 C8.498125 94.84875 8.68375 95.385 8.875 95.9375 C9.3125 98.3125 9.3125 98.3125 8.3125 104.3125 C12.9325 104.3125 17.5525 104.3125 22.3125 104.3125 C21.9825 101.3425 21.6525 98.3725 21.3125 95.3125 C21.9725 95.6425 22.6325 95.9725 23.3125 96.3125 C23.3125 98.9525 23.3125 101.5925 23.3125 104.3125 C25.2925 104.3125 27.2725 104.3125 29.3125 104.3125 C29.19851335 102.68669034 29.07094341 101.06182843 28.9375 99.4375 C28.86789062 98.53257812 28.79828125 97.62765625 28.7265625 96.6953125 C28.51681868 94.13308097 28.51681868 94.13308097 26.3125 92.3125 C23.78774284 92.11356201 21.39735251 92.03402565 18.875 92.0625 C18.19373047 92.05476563 17.51246094 92.04703125 16.81054688 92.0390625 C13.09840558 92.05360566 11.47660628 92.20309582 8.3125 94.3125 Z M-8.6875 122.3125 C-8.6875 147.0625 -8.6875 171.8125 -8.6875 197.3125 C-4.7275 197.3125 -0.7675 197.3125 3.3125 197.3125 C3.3125 171.5725 3.3125 145.8325 3.3125 119.3125 C-1.48728117 119.07841771 -1.48728117 119.07841771 -8.6875 122.3125 Z M-88.6875 121.3125 C-86.60051285 127.957297 -84.08603961 134.33864148 -81.3359375 140.734375 C-80.91760651 141.71504944 -80.49927551 142.69572388 -80.06826782 143.70611572 C-78.73632639 146.82633907 -77.39950221 149.94444234 -76.0625 153.0625 C-75.18847946 155.10793509 -74.3147791 157.15350702 -73.44140625 159.19921875 C-72.14333773 162.23964442 -70.84351745 165.27924795 -69.53753662 168.31628418 C-67.37078802 173.35582932 -65.22946973 178.40343323 -63.13769531 183.47460938 C-62.73144928 184.4498053 -62.32520325 185.42500122 -61.90664673 186.42974854 C-61.13668854 188.28004554 -60.37518721 190.13389105 -59.62338257 191.99163818 C-59.2805423 192.81069641 -58.93770203 193.62975464 -58.58447266 194.47363281 C-58.28916656 195.19383606 -57.99386047 195.91403931 -57.68960571 196.65606689 C-56.72079213 198.6614104 -56.72079213 198.6614104 -53.6875 199.3125 C-53.3565332 198.49499268 -53.02556641 197.67748535 -52.68457031 196.83520508 C-30.73418976 142.64284264 -30.73418976 142.64284264 -23.56494141 126.61132812 C-22.24200777 124.05932866 -22.24200777 124.05932866 -21.6875 121.3125 C-23.6675 121.3125 -25.6475 121.3125 -27.6875 121.3125 C-27.89205811 121.95759521 -28.09661621 122.60269043 -28.30737305 123.26733398 C-32.96897001 137.85699675 -38.0560574 152.19750757 -43.6875 166.4375 C-43.97821381 167.17467255 -44.26892761 167.91184509 -44.56845093 168.6713562 C-49.4844861 181.1094861 -49.4844861 181.1094861 -50.6875 182.3125 C-53.16864732 176.4383346 -55.64751231 170.56320979 -58.125 164.6875 C-58.48965363 163.82291168 -58.85430725 162.95832336 -59.23001099 162.0675354 C-63.96371568 150.83985195 -68.66993657 139.60386157 -73.21069336 128.29638672 C-74.49874534 124.53006323 -74.49874534 124.53006323 -76.6875 121.3125 C-78.70714199 121.24005947 -80.72917124 121.22872812 -82.75 121.25 C-83.85472656 121.25902344 -84.95945313 121.26804687 -86.09765625 121.27734375 C-86.95230469 121.28894531 -87.80695313 121.30054688 -88.6875 121.3125 Z " fill="#000000" transform="translate(248.6875,101.6875)"/>
<path d="M0 0 C0.99 0.33 1.98 0.66 3 1 C3 2.98 3 4.96 3 7 C2.01 7.33 1.02 7.66 0 8 C0 5.36 0 2.72 0 0 Z " fill="#000000" transform="translate(263,197)"/>
<path d="M0 0 C2.8433238 2.8433238 2.32319984 5.63592954 2.3359375 9.4453125 C2.34431641 10.19888535 2.35269531 10.95245819 2.36132812 11.72886658 C2.38101735 14.19445271 2.38088312 16.65934764 2.375 19.125 C2.37445618 19.96400848 2.37391235 20.80301697 2.37335205 21.66744995 C2.2399071 66.32186534 -12.85473859 108.55673168 -44.58056641 140.59619141 C-53.24403565 149 -53.24403565 149 -56 149 C-56.82382258 145.71106422 -57.63189415 142.41844099 -58.4375 139.125 C-58.66759766 138.2071875 -58.89769531 137.289375 -59.13476562 136.34375 C-63.43726967 118.63489276 -62.85836705 100.86197353 -59.38378906 83.06933594 C-59.04575284 81.24669281 -58.79337263 79.40860678 -58.5546875 77.5703125 C-58.04825905 74.60408874 -57.58455439 72.5610821 -56 70 C-52.22628412 67.33237325 -48.2955344 65.65478976 -44 64 C-42.65840056 63.35012835 -41.32101778 62.69074905 -40 62 C-39.67 64.31 -39.34 66.62 -39 69 C-35.7 69.33 -32.4 69.66 -29 70 C-29.0942627 68.00404785 -29.0942627 68.00404785 -29.19042969 65.96777344 C-29.40934377 60.98147304 -29.54598263 55.9955858 -29.65917969 51.00585938 C-29.7191476 48.85604205 -29.80076 46.70670632 -29.90527344 44.55859375 C-30.84209407 24.79351525 -30.84209407 24.79351525 -25.03630066 18.37075806 C-22.49347034 15.99678803 -19.85021766 14.00206063 -17 12 C-16.2570166 11.40509766 -15.5140332 10.81019531 -14.74853516 10.19726562 C-13.02321096 8.83136527 -11.27013218 7.59106559 -9.4375 6.375 C-8.55481445 5.76591797 -8.55481445 5.76591797 -7.65429688 5.14453125 C-5.12124622 3.40216043 -2.55806283 1.70537522 0 0 Z " fill="#000000" transform="translate(361,230)"/>
<path d="M0 0 C0.33 0 0.66 0 1 0 C2.46777482 17.88928963 2.46777482 17.88928963 -0.828125 22.62890625 C-4.71446118 25.19620449 -8.44283959 26.19865208 -13 27 C-11.49647475 22.02200709 -9.41126073 17.55313807 -7.0625 12.9375 C-6.54139648 11.89625977 -6.54139648 11.89625977 -6.00976562 10.83398438 C-4.14496919 7.13599822 -2.26724509 3.47193054 0 0 Z " fill="#000000" transform="translate(320,269)"/>
<path d="M0 0 C0.99 0 1.98 0 3 0 C2.67 1.65 2.34 3.3 2 5 C0.08802961 5.70045456 -1.82980435 6.384919 -3.75 7.0625 C-4.81734375 7.44535156 -5.8846875 7.82820313 -6.984375 8.22265625 C-9.92280042 8.98010011 -11.22348948 9.07151741 -14 8 C-13.07316406 7.50628906 -12.14632813 7.01257813 -11.19140625 6.50390625 C-9.98172045 5.85686501 -8.77208778 5.20972446 -7.5625 4.5625 C-6.95083984 4.23701172 -6.33917969 3.91152344 -5.70898438 3.57617188 C-2.66283794 2.06284858 -2.66283794 2.06284858 0 0 Z " fill="#000000" transform="translate(302,384)"/>
</svg>
