<?xml version="1.0" encoding="UTF-8"?>
<svg version="1.1" xmlns="http://www.w3.org/2000/svg" width="500" height="500">
<path d="M0 0 C165 0 330 0 500 0 C500 165 500 330 500 500 C335 500 170 500 0 500 C0 335 0 170 0 0 Z " fill="#170801" transform="translate(0,0)"/>
<path d="M0 0 C0.87527344 0.60714844 1.75054687 1.21429688 2.65234375 1.83984375 C10.01498679 7.00531355 16.50240361 12.81399498 23 19 C23.69738281 19.63292969 24.39476562 20.26585937 25.11328125 20.91796875 C39.09730331 34.03341801 49.08469445 51.31277619 56 69 C56.7734375 70.7325 56.7734375 70.7325 57.5625 72.5 C68.75025913 99.73976137 70.24830823 134.64809809 62 163 C61.80212891 163.71478516 61.60425781 164.42957031 61.40039062 165.16601562 C60.09530964 169.84149994 58.61401468 174.42197689 57 179 C56.46632813 180.51400391 56.46632813 180.51400391 55.921875 182.05859375 C48.76607528 200.62839796 36.52009704 216.62487706 23 231 C22.20722656 231.85464844 22.20722656 231.85464844 21.3984375 232.7265625 C20.31196809 233.86386089 19.16381622 234.94198526 18 236 C17.34 236 16.68 236 16 236 C16 236.66 16 237.32 16 238 C14.64575195 239.29345703 14.64575195 239.29345703 12.73828125 240.7578125 C12.03759521 241.29736572 11.33690918 241.83691895 10.61499023 242.39282227 C9.85516846 242.96444092 9.09534668 243.53605957 8.3125 244.125 C7.54172119 244.70886475 6.77094238 245.29272949 5.97680664 245.89428711 C-16.88047458 263 -16.88047458 263 -24 263 C-19.40402705 276.65936016 -11.33548489 288.18297544 -2 299 C2 303.73920553 2 303.73920553 2 306 C1.484375 305.731875 0.96875 305.46375 0.4375 305.1875 C-12.805722 298.7356739 -25.90382465 298.88704756 -39.78125 303.64453125 C-56.97372085 310.88456448 -71.30026959 322.93498815 -84.125 336.25 C-98.24947072 350.43223952 -118.5450342 358.31950908 -138.4375 358.375 C-144.50211759 358.27522582 -150.19661726 357.86652236 -156 356 C-157.33998047 355.63261719 -157.33998047 355.63261719 -158.70703125 355.2578125 C-170.59535471 351.73650044 -182.67558597 345.38148248 -191 336 C-191 335.34 -191 334.68 -191 334 C-190.01 334.4021875 -190.01 334.4021875 -189 334.8125 C-188.01 335.204375 -187.02 335.59625 -186 336 C-184.88625 336.53625 -183.7725 337.0725 -182.625 337.625 C-171.06049959 341.85591478 -157.07209879 338.90243134 -146.10888672 334.18652344 C-133.41961453 328.27860243 -121.79585894 320.02764027 -111.671875 310.3984375 C-110 309 -110 309 -108 309 C-107.7628125 308.43023437 -107.525625 307.86046875 -107.28125 307.2734375 C-102.8626522 299.43312066 -93.74617215 294.12296259 -86 290 C-85.06800781 289.4946875 -84.13601562 288.989375 -83.17578125 288.46875 C-79.64392371 286.83532019 -76.20528517 285.84070881 -72.4375 284.875 C-71.79103516 284.70613281 -71.14457031 284.53726562 -70.47851562 284.36328125 C-68.65649528 283.89248454 -66.82835812 283.4455494 -65 283 C-64.19304687 282.80277344 -63.38609375 282.60554688 -62.5546875 282.40234375 C-47.65818854 280.05625905 -34.05397374 283.21475127 -20 288 C-20 288.66 -20 289.32 -20 290 C-19.236875 290.144375 -18.47375 290.28875 -17.6875 290.4375 C-15 291 -15 291 -12 292 C-12.36351562 291.47792969 -12.72703125 290.95585937 -13.1015625 290.41796875 C-16.64369755 285.23191974 -19.76272124 279.93163895 -22.703125 274.3828125 C-24.036464 271.8483939 -24.036464 271.8483939 -26 269 C-26 267.68 -26 266.36 -26 265 C-27.09054687 265.38671875 -28.18109375 265.7734375 -29.3046875 266.171875 C-37.329572 268.96325628 -45.32145252 271.48519346 -53.625 273.3125 C-54.3454248 273.47137695 -55.06584961 273.63025391 -55.80810547 273.79394531 C-87.06603175 280.38905612 -123.88122772 275.4170028 -152 260 C-153.32064453 259.30583984 -153.32064453 259.30583984 -154.66796875 258.59765625 C-163.23566455 254.04191391 -171.44740538 249.10688344 -179 243 C-179.99 242.34 -180.98 241.68 -182 241 C-182 240.34 -182 239.68 -182 239 C-182.56847656 238.75765625 -183.13695312 238.5153125 -183.72265625 238.265625 C-190.27477922 234.62430795 -195.32725911 227.77220933 -200 222 C-200.7734375 221.2575 -200.7734375 221.2575 -201.5625 220.5 C-204.07040565 217.88305498 -207 214.73153036 -207 211 C-207.66 211 -208.32 211 -209 211 C-211.33125811 207.0319011 -213.62024688 203.04312682 -215.86669922 199.02636719 C-216.59020588 197.73272107 -217.31797315 196.44144243 -218.05126953 195.15332031 C-224.84351927 183.09781212 -228.66427845 170.38475718 -232 157 C-232.1949707 156.23526367 -232.38994141 155.47052734 -232.59082031 154.68261719 C-240.7572157 121.15823688 -232.97474337 88.03362198 -220 57 C-219.34 57 -218.68 57 -218 57 C-218 55.68 -218 54.36 -218 53 C-217.34 53 -216.68 53 -216 53 C-215.690625 52.05125 -215.38125 51.1025 -215.0625 50.125 C-214 47 -214 47 -213 45 C-212.34 45 -211.68 45 -211 45 C-210.855625 44.38125 -210.71125 43.7625 -210.5625 43.125 C-210 41 -210 41 -209 39 C-208.34 39 -207.68 39 -207 39 C-206.7834375 38.14148438 -206.566875 37.28296875 -206.34375 36.3984375 C-204.71785379 32.28643256 -202.51799183 29.78336354 -199.5 26.625 C-199.00113281 26.07972656 -198.50226563 25.53445312 -197.98828125 24.97265625 C-196.70686813 23.60192211 -195.35788564 22.29502056 -194 21 C-193.34 21 -192.68 21 -192 21 C-191.7834375 20.44957031 -191.566875 19.89914063 -191.34375 19.33203125 C-189.55853717 16.23385666 -187.13351089 14.05014956 -184.5 11.6875 C-183.96173584 11.20112061 -183.42347168 10.71474121 -182.86889648 10.21362305 C-133.65517047 -33.56661706 -53.56689522 -39.17334781 0 0 Z " fill="#170902" transform="translate(334,125)"/>
<path d="M0 0 C0.87527344 0.60714844 1.75054687 1.21429688 2.65234375 1.83984375 C10.01498679 7.00531355 16.50240361 12.81399498 23 19 C23.69738281 19.63292969 24.39476562 20.26585937 25.11328125 20.91796875 C39.09730331 34.03341801 49.08469445 51.31277619 56 69 C56.7734375 70.7325 56.7734375 70.7325 57.5625 72.5 C68.75025913 99.73976137 70.24830823 134.64809809 62 163 C61.80212891 163.71478516 61.60425781 164.42957031 61.40039062 165.16601562 C60.09530964 169.84149994 58.61401468 174.42197689 57 179 C56.46632813 180.51400391 56.46632813 180.51400391 55.921875 182.05859375 C48.76607528 200.62839796 36.52009704 216.62487706 23 231 C22.20722656 231.85464844 22.20722656 231.85464844 21.3984375 232.7265625 C20.31196809 233.86386089 19.16381622 234.94198526 18 236 C17.34 236 16.68 236 16 236 C16 236.66 16 237.32 16 238 C14.64575195 239.29345703 14.64575195 239.29345703 12.73828125 240.7578125 C12.03759521 241.29736572 11.33690918 241.83691895 10.61499023 242.39282227 C9.85516846 242.96444092 9.09534668 243.53605957 8.3125 244.125 C7.54172119 244.70886475 6.77094238 245.29272949 5.97680664 245.89428711 C-16.88047458 263 -16.88047458 263 -24 263 C-19.40402705 276.65936016 -11.33548489 288.18297544 -2 299 C2 303.73920553 2 303.73920553 2 306 C1.484375 305.731875 0.96875 305.46375 0.4375 305.1875 C-12.805722 298.7356739 -25.90382465 298.88704756 -39.78125 303.64453125 C-56.97372085 310.88456448 -71.30026959 322.93498815 -84.125 336.25 C-98.24947072 350.43223952 -118.5450342 358.31950908 -138.4375 358.375 C-144.50211759 358.27522582 -150.19661726 357.86652236 -156 356 C-157.33998047 355.63261719 -157.33998047 355.63261719 -158.70703125 355.2578125 C-170.59535471 351.73650044 -182.67558597 345.38148248 -191 336 C-191 335.34 -191 334.68 -191 334 C-190.01 334.4021875 -190.01 334.4021875 -189 334.8125 C-188.01 335.204375 -187.02 335.59625 -186 336 C-184.88625 336.53625 -183.7725 337.0725 -182.625 337.625 C-171.06049959 341.85591478 -157.07209879 338.90243134 -146.10888672 334.18652344 C-133.41961453 328.27860243 -121.79585894 320.02764027 -111.671875 310.3984375 C-110 309 -110 309 -108 309 C-107.7628125 308.43023437 -107.525625 307.86046875 -107.28125 307.2734375 C-102.8626522 299.43312066 -93.74617215 294.12296259 -86 290 C-85.06800781 289.4946875 -84.13601562 288.989375 -83.17578125 288.46875 C-79.64392371 286.83532019 -76.20528517 285.84070881 -72.4375 284.875 C-71.79103516 284.70613281 -71.14457031 284.53726562 -70.47851562 284.36328125 C-68.65649528 283.89248454 -66.82835812 283.4455494 -65 283 C-64.19304687 282.80277344 -63.38609375 282.60554688 -62.5546875 282.40234375 C-47.65818854 280.05625905 -34.05397374 283.21475127 -20 288 C-20 288.66 -20 289.32 -20 290 C-19.236875 290.144375 -18.47375 290.28875 -17.6875 290.4375 C-15 291 -15 291 -12 292 C-12.36351562 291.47792969 -12.72703125 290.95585937 -13.1015625 290.41796875 C-16.64369755 285.23191974 -19.76272124 279.93163895 -22.703125 274.3828125 C-24.036464 271.8483939 -24.036464 271.8483939 -26 269 C-26 267.68 -26 266.36 -26 265 C-27.09054687 265.38671875 -28.18109375 265.7734375 -29.3046875 266.171875 C-37.329572 268.96325628 -45.32145252 271.48519346 -53.625 273.3125 C-54.3454248 273.47137695 -55.06584961 273.63025391 -55.80810547 273.79394531 C-87.06603175 280.38905612 -123.88122772 275.4170028 -152 260 C-153.32064453 259.30583984 -153.32064453 259.30583984 -154.66796875 258.59765625 C-163.23566455 254.04191391 -171.44740538 249.10688344 -179 243 C-179.99 242.34 -180.98 241.68 -182 241 C-182 240.34 -182 239.68 -182 239 C-182.56847656 238.75765625 -183.13695312 238.5153125 -183.72265625 238.265625 C-190.27477922 234.62430795 -195.32725911 227.77220933 -200 222 C-200.7734375 221.2575 -200.7734375 221.2575 -201.5625 220.5 C-204.07040565 217.88305498 -207 214.73153036 -207 211 C-207.66 211 -208.32 211 -209 211 C-211.33125811 207.0319011 -213.62024688 203.04312682 -215.86669922 199.02636719 C-216.59020588 197.73272107 -217.31797315 196.44144243 -218.05126953 195.15332031 C-224.84351927 183.09781212 -228.66427845 170.38475718 -232 157 C-232.1949707 156.23526367 -232.38994141 155.47052734 -232.59082031 154.68261719 C-240.7572157 121.15823688 -232.97474337 88.03362198 -220 57 C-219.34 57 -218.68 57 -218 57 C-218 55.68 -218 54.36 -218 53 C-217.34 53 -216.68 53 -216 53 C-215.690625 52.05125 -215.38125 51.1025 -215.0625 50.125 C-214 47 -214 47 -213 45 C-212.34 45 -211.68 45 -211 45 C-210.855625 44.38125 -210.71125 43.7625 -210.5625 43.125 C-210 41 -210 41 -209 39 C-208.34 39 -207.68 39 -207 39 C-206.7834375 38.14148438 -206.566875 37.28296875 -206.34375 36.3984375 C-204.71785379 32.28643256 -202.51799183 29.78336354 -199.5 26.625 C-199.00113281 26.07972656 -198.50226563 25.53445312 -197.98828125 24.97265625 C-196.70686813 23.60192211 -195.35788564 22.29502056 -194 21 C-193.34 21 -192.68 21 -192 21 C-191.7834375 20.44957031 -191.566875 19.89914063 -191.34375 19.33203125 C-189.55853717 16.23385666 -187.13351089 14.05014956 -184.5 11.6875 C-183.96173584 11.20112061 -183.42347168 10.71474121 -182.86889648 10.21362305 C-133.65517047 -33.56661706 -53.56689522 -39.17334781 0 0 Z M-110 -20 C-110.76304443 -19.75000244 -111.52608887 -19.50000488 -112.31225586 -19.24243164 C-123.00168245 -15.60913799 -133.09293444 -11.03114018 -142 -4 C-142 -3.34 -142 -2.68 -142 -2 C-142.81597656 -1.65582031 -142.81597656 -1.65582031 -143.6484375 -1.3046875 C-163.32580391 9.61265533 -177.40922788 34.71840574 -185 55 C-185.391875 55.84046875 -185.78375 56.6809375 -186.1875 57.546875 C-202.96651539 93.83149578 -203.06944095 143.69884131 -190 181 C-189.72559082 181.81307617 -189.45118164 182.62615234 -189.16845703 183.46386719 C-181.37517743 206.32243081 -169.92610444 225.38883645 -153.6875 243.1875 C-153.10057373 243.83630127 -152.51364746 244.48510254 -151.90893555 245.15356445 C-148.84462191 248.42791244 -146.45521791 250.7712626 -142 252 C-142 252.66 -142 253.32 -142 254 C-139.4828811 256.03715614 -136.64024408 257.63400766 -133.875 259.3125 C-132.64898071 260.05790039 -132.64898071 260.05790039 -131.39819336 260.81835938 C-124.48647216 264.91079927 -117.73388535 267.76049455 -110 270 C-109.00097656 270.30421875 -108.00195312 270.6084375 -106.97265625 270.921875 C-85.09198621 277.28497795 -61.86407475 273.75098602 -42 262.9375 C-41.15566406 262.49083984 -40.31132812 262.04417969 -39.44140625 261.58398438 C-34.91495261 259.21750483 -34.91495261 259.21750483 -31 256 C-31.21868719 253.3314609 -31.21868719 253.3314609 -32 250 C-36.55349261 227.91579974 -37.71493608 207.14869975 -33 185 C-32.78730469 183.97519531 -32.57460938 182.95039063 -32.35546875 181.89453125 C-31.93073702 179.92365381 -31.4718815 177.96012315 -31 176 C-31.99 175.97421875 -32.98 175.9484375 -34 175.921875 C-48.95545512 175.35948323 -48.95545512 175.35948323 -54 171 C-58.90589604 165.09315287 -60.09168033 159.59789771 -60.20532227 152.01635742 C-60.22526749 150.83551071 -60.24521271 149.654664 -60.26576233 148.43803406 C-60.29083107 146.54091423 -60.29083107 146.54091423 -60.31640625 144.60546875 C-60.33718735 143.30297684 -60.35796844 142.00048492 -60.37937927 140.65852356 C-60.43438184 137.20790737 -60.48388659 133.75723365 -60.53222656 130.30651855 C-60.58260164 126.78046594 -60.63820387 123.25449613 -60.69335938 119.72851562 C-60.8006738 112.81908081 -60.90169377 105.90956879 -61 99 C-55.555 98.01 -55.555 98.01 -50 97 C-50.01332367 97.78181137 -50.02664734 98.56362274 -50.04037476 99.36912537 C-50.16103308 106.76846176 -50.25216565 114.16731538 -50.31087303 121.56738186 C-50.34207123 125.37111614 -50.38432752 129.17403173 -50.45263672 132.97729492 C-50.51824878 136.65376284 -50.55379243 140.32944778 -50.56926346 144.00645638 C-50.58027576 145.40305965 -50.60177999 146.79962426 -50.63438034 148.19589043 C-50.81203884 156.126683 -50.51259201 161.87806153 -45.68252563 168.35902405 C-43.11623596 170.86193964 -40.99333441 171.92474739 -37.421875 172.1953125 C-36.54015625 172.17210937 -35.6584375 172.14890625 -34.75 172.125 C-33.85796875 172.10695313 -32.9659375 172.08890625 -32.046875 172.0703125 C-31.37140625 172.04710937 -30.6959375 172.02390625 -30 172 C-29.5875 171.07960938 -29.175 170.15921875 -28.75 169.2109375 C-18.38713945 146.38713945 -18.38713945 146.38713945 -13 141 C-12.70896291 139.10203262 -12.70896291 139.10203262 -12.77294922 136.91748047 C-12.77310028 136.07675995 -12.77325134 135.23603943 -12.77340698 134.36984253 C-12.78372955 133.46146637 -12.79405212 132.55309021 -12.8046875 131.6171875 C-12.8075174 130.68778351 -12.81034729 129.75837952 -12.81326294 128.80081177 C-12.82447931 125.8254115 -12.8495864 122.85030965 -12.875 119.875 C-12.88502792 117.86068142 -12.8941541 115.84635814 -12.90234375 113.83203125 C-12.92442339 108.88790544 -12.95896307 103.94400335 -13 99 C-7.555 98.01 -7.555 98.01 -2 97 C-2 106.57 -2 116.14 -2 126 C0.31 124.02 2.62 122.04 5 120 C19.56636156 108.03832952 19.56636156 108.03832952 28 104 C26.89623097 71.76994434 12.28139412 36.47246163 -9.234375 12.51171875 C-10.86580807 10.78320797 -10.86580807 10.78320797 -13 11 C-13.35578125 10.14341797 -13.35578125 10.14341797 -13.71875 9.26953125 C-21.66656168 -4.80875712 -43.70322145 -15.97452923 -58.8671875 -20.2109375 C-59.90101563 -20.47132812 -60.93484375 -20.73171875 -62 -21 C-63.15113281 -21.35707031 -64.30226563 -21.71414062 -65.48828125 -22.08203125 C-71.65627466 -23.6078907 -77.99910018 -23.32856463 -84.3125 -23.3125 C-85.56740234 -23.32861328 -86.82230469 -23.34472656 -88.11523438 -23.36132812 C-95.91399725 -23.3653921 -102.62379542 -22.52403027 -110 -20 Z " fill="#F7F5F3" transform="translate(334,125)"/>
<path d="M0 0 C0.99 0.99 0.99 0.99 2 2 C0.948125 2.28875 -0.10375 2.5775 -1.1875 2.875 C-4.22818711 3.77225193 -7.08712344 4.76423419 -10 6 C-9.42655063 8.86724686 -9.1385485 9.8614515 -7 12 C-7.99 12.33 -8.98 12.66 -10 13 C-10.61875 12.360625 -11.2375 11.72125 -11.875 11.0625 C-26.17821097 -3.1601295 -42.2407244 -15.02322485 -62 -20 C-63.15113281 -20.35707031 -64.30226563 -20.71414062 -65.48828125 -21.08203125 C-71.65627466 -22.6078907 -77.99910018 -22.32856463 -84.3125 -22.3125 C-86.19485352 -22.33666992 -86.19485352 -22.33666992 -88.11523438 -22.36132812 C-95.9135095 -22.36539184 -102.6251325 -21.52767928 -110 -19 C-110.7736792 -18.74468506 -111.5473584 -18.48937012 -112.34448242 -18.22631836 C-114.56210211 -17.46653586 -116.7504998 -16.6561623 -118.9375 -15.8125 C-119.70384766 -15.51786865 -120.47019531 -15.2232373 -121.25976562 -14.91967773 C-127.36353591 -12.46959978 -132.49497564 -9.39603866 -137.8125 -5.50390625 C-140 -4 -140 -4 -142 -4 C-142 -3.34 -142 -2.68 -142 -2 C-143.6376272 -0.54597658 -145.33734196 0.83848678 -147.0625 2.1875 C-158.12638785 11.08671414 -165.70411782 21.21139177 -173.25 33.1875 C-173.6622583 33.84032959 -174.0745166 34.49315918 -174.49926758 35.16577148 C-198.43333043 73.72917228 -202.51689963 124.51314976 -192.96875 168.08984375 C-191.88119452 172.47844997 -190.49427423 176.73522997 -189 181 C-188.72559082 181.81307617 -188.45118164 182.62615234 -188.16845703 183.46386719 C-180.46734374 206.05209666 -169.22449236 225.04729631 -153.1875 242.625 C-152.64818848 243.21780762 -152.10887695 243.81061523 -151.55322266 244.42138672 C-148.57807782 247.59973921 -145.7917647 249.79923454 -142 252 C-142 252.66 -142 253.32 -142 254 C-141.29746094 254.25136719 -140.59492188 254.50273437 -139.87109375 254.76171875 C-136.6664251 256.14386836 -133.97531177 257.89144003 -131.0625 259.8125 C-124.40888659 264.0430493 -117.54537868 266.69251791 -110 269 C-108.99453125 269.30808594 -107.9890625 269.61617188 -106.953125 269.93359375 C-85.09116647 276.24457349 -61.89119931 272.7919354 -42.0625 261.9375 C-41.22654297 261.49083984 -40.39058594 261.04417969 -39.52929688 260.58398438 C-36.25447619 258.82426145 -33.09604784 257.06403189 -30 255 C-29.01 258.3 -28.02 261.6 -27 265 C-35.73985298 268.31893151 -44.41931553 271.30719623 -53.5625 273.3125 C-54.28679199 273.47137695 -55.01108398 273.63025391 -55.75732422 273.79394531 C-87.06072672 280.3500089 -123.83915064 275.44007289 -152 260 C-153.32064453 259.30583984 -153.32064453 259.30583984 -154.66796875 258.59765625 C-163.23566455 254.04191391 -171.44740538 249.10688344 -179 243 C-179.99 242.34 -180.98 241.68 -182 241 C-182 240.34 -182 239.68 -182 239 C-182.56847656 238.75765625 -183.13695312 238.5153125 -183.72265625 238.265625 C-190.27477922 234.62430795 -195.32725911 227.77220933 -200 222 C-200.7734375 221.2575 -200.7734375 221.2575 -201.5625 220.5 C-204.07040565 217.88305498 -207 214.73153036 -207 211 C-207.66 211 -208.32 211 -209 211 C-211.33125811 207.0319011 -213.62024688 203.04312682 -215.86669922 199.02636719 C-216.59020588 197.73272107 -217.31797315 196.44144243 -218.05126953 195.15332031 C-224.84351927 183.09781212 -228.66427845 170.38475718 -232 157 C-232.1949707 156.23526367 -232.38994141 155.47052734 -232.59082031 154.68261719 C-240.7572157 121.15823688 -232.97474337 88.03362198 -220 57 C-219.34 57 -218.68 57 -218 57 C-218 55.68 -218 54.36 -218 53 C-217.34 53 -216.68 53 -216 53 C-215.690625 52.05125 -215.38125 51.1025 -215.0625 50.125 C-214 47 -214 47 -213 45 C-212.34 45 -211.68 45 -211 45 C-210.855625 44.38125 -210.71125 43.7625 -210.5625 43.125 C-210 41 -210 41 -209 39 C-208.34 39 -207.68 39 -207 39 C-206.7834375 38.14148438 -206.566875 37.28296875 -206.34375 36.3984375 C-204.71785379 32.28643256 -202.51799183 29.78336354 -199.5 26.625 C-199.00113281 26.07972656 -198.50226563 25.53445312 -197.98828125 24.97265625 C-196.70686813 23.60192211 -195.35788564 22.29502056 -194 21 C-193.34 21 -192.68 21 -192 21 C-191.7834375 20.44957031 -191.566875 19.89914063 -191.34375 19.33203125 C-189.55853717 16.23385666 -187.13351089 14.05014956 -184.5 11.6875 C-183.96173584 11.20112061 -183.42347168 10.71474121 -182.86889648 10.21362305 C-134.43657927 -32.8714804 -52.61333921 -40.1682609 0 0 Z " fill="#F7F5F3" transform="translate(334,125)"/>
<path d="M0 0 C0.28431885 0.57113525 0.5686377 1.14227051 0.86157227 1.73071289 C6.77859589 13.52542329 12.74475891 24.68276447 21.6875 34.46875 C27 40.28378378 27 40.28378378 27 43 C26.484375 42.731875 25.96875 42.46375 25.4375 42.1875 C12.194278 35.7356739 -0.90382465 35.88704756 -14.78125 40.64453125 C-31.97372085 47.88456448 -46.30026959 59.93498815 -59.125 73.25 C-73.24947072 87.43223952 -93.5450342 95.31950908 -113.4375 95.375 C-119.50211759 95.27522582 -125.19661726 94.86652236 -131 93 C-132.33998047 92.63261719 -132.33998047 92.63261719 -133.70703125 92.2578125 C-145.59535471 88.73650044 -157.67558597 82.38148248 -166 73 C-166 72.34 -166 71.68 -166 71 C-165.34 71.268125 -164.68 71.53625 -164 71.8125 C-163.01 72.204375 -162.02 72.59625 -161 73 C-159.88625 73.53625 -158.7725 74.0725 -157.625 74.625 C-146.06049959 78.85591478 -132.07209879 75.90243134 -121.10888672 71.18652344 C-108.41961453 65.27860243 -96.79585894 57.02764027 -86.671875 47.3984375 C-85 46 -85 46 -83 46 C-82.7628125 45.43023437 -82.525625 44.86046875 -82.28125 44.2734375 C-77.8626522 36.43312066 -68.74617215 31.12296259 -61 27 C-60.06800781 26.4946875 -59.13601562 25.989375 -58.17578125 25.46875 C-54.64392371 23.83532019 -51.20528517 22.84070881 -47.4375 21.875 C-46.46780273 21.62169922 -46.46780273 21.62169922 -45.47851562 21.36328125 C-43.65649528 20.89248454 -41.82835812 20.4455494 -40 20 C-39.19304687 19.80277344 -38.38609375 19.60554688 -37.5546875 19.40234375 C-22.65818854 17.05625905 -9.05397374 20.21475127 5 25 C5 25.66 5 26.32 5 27 C5.763125 27.144375 6.52625 27.28875 7.3125 27.4375 C10 28 10 28 13 29 C12.63648438 28.47792969 12.27296875 27.95585937 11.8984375 27.41796875 C8.35630245 22.23191974 5.23727876 16.93163895 2.296875 11.3828125 C0.963536 8.8483939 0.963536 8.8483939 -1 6 C-0.625 2.8125 -0.625 2.8125 0 0 Z " fill="#F6F5F3" transform="translate(309,388)"/>
<path d="M0 0 C0.99 0.33 1.98 0.66 3 1 C3.48060427 22.08189097 3.10599417 42.21894995 -1 63 C-1.1642749 63.8353125 -1.3285498 64.670625 -1.49780273 65.53125 C-2.3930494 69.82344307 -3.52692911 73.72519525 -5.3125 77.75 C-7.15211399 81.98326377 -8.84444739 86.23042467 -10.4375 90.5625 C-14.94276078 102.26231569 -21.67640391 112.17904354 -28.85839844 122.36523438 C-29.92698451 123.89544232 -30.96471297 125.44706945 -32 127 C-32.66 127 -33.32 127 -34 127 C-34.40798828 127.88171875 -34.40798828 127.88171875 -34.82421875 128.78125 C-37.70549938 134.21835099 -42.15756713 138.30445913 -47 142 C-48.0828125 143.11375 -48.0828125 143.11375 -49.1875 144.25 C-51 146 -51 146 -53 146 C-53 146.66 -53 147.32 -53 148 C-53.66 148 -54.32 148 -55 148 C-55.82136504 145.00235701 -56.63042488 142.00151902 -57.4375 139 C-57.78264648 137.74123047 -57.78264648 137.74123047 -58.13476562 136.45703125 C-63.05023495 118.07745029 -62.18030931 98.43674155 -58 80 C-57.74476563 78.36224609 -57.74476563 78.36224609 -57.484375 76.69140625 C-56.22135837 69.89818107 -56.22135837 69.89818107 -52.7265625 67.328125 C-50.0625 66 -50.0625 66 -47.47265625 65 C-44.93974964 63.97563335 -43.16116541 62.64304584 -41 61 C-40.34 61 -39.68 61 -39 61 C-39 63.64 -39 66.28 -39 69 C-35.37 69 -31.74 69 -28 69 C-28.02618408 67.63794434 -28.05236816 66.27588867 -28.0793457 64.87255859 C-28.17001403 59.80729675 -28.22731039 54.7421063 -28.2746582 49.67626953 C-28.29976434 47.48604256 -28.33385637 45.29589906 -28.37719727 43.10595703 C-28.43801907 39.95324078 -28.46624923 36.80163447 -28.48828125 33.6484375 C-28.51408768 32.67321136 -28.5398941 31.69798523 -28.56648254 30.69320679 C-28.56832053 26.21327746 -28.53560275 23.03714476 -25.62841797 19.47875977 C-18.02038535 12.30391719 -9.41636958 4.70818479 0 0 Z " fill="#170902" transform="translate(360,231)"/>
<path d="M0 0 C0.00142502 0.78403198 0.00285004 1.56806396 0.00431824 2.37585449 C0.02220094 9.79063273 0.06396893 17.20472076 0.13209057 24.61919403 C0.16627748 28.43045306 0.19145746 32.2413148 0.19555664 36.05273438 C0.19985768 39.73599241 0.22846704 43.41835552 0.27343178 47.10133362 C0.28634969 48.50137607 0.29073477 49.90152593 0.28615379 51.30162048 C0.2679637 58.55388559 0.27761498 64.50130733 4.54048157 70.57434082 C6.9905358 72.96755644 9.17767798 73.93770288 12.578125 74.1953125 C13.45984375 74.17210937 14.3415625 74.14890625 15.25 74.125 C16.14203125 74.10695313 17.0340625 74.08890625 17.953125 74.0703125 C18.62859375 74.04710937 19.3040625 74.02390625 20 74 C20.29132813 73.26136719 20.58265625 72.52273438 20.8828125 71.76171875 C24.25870887 63.40690602 27.72337364 54.90755289 33.55737305 47.95019531 C36.73563467 43.50260519 36.73078055 39.45875381 36.70703125 34.12890625 C36.72215256 33.206577 36.73727386 32.28424774 36.75285339 31.33396912 C36.79558213 28.4098945 36.80455404 25.48685513 36.8125 22.5625 C36.83565583 20.5709363 36.86102343 18.57939702 36.88867188 16.58789062 C36.95137783 11.72516949 36.98382881 6.86308951 37 2 C40.87684087 0.80712589 43.91621923 0 48 0 C48.33 9.24 48.66 18.48 49 28 C51.64 25.36 54.28 22.72 57 20 C59.58311401 17.96512835 62.13433435 16.01738913 64.8125 14.125 C65.46669922 13.65320313 66.12089844 13.18140625 66.79492188 12.6953125 C69.50209112 10.74858406 72.2250837 8.8499442 75 7 C77.1875 7.375 77.1875 7.375 79 8 C78.67 8.66 78.34 9.32 78 10 C77.13503906 10.26039063 76.27007812 10.52078125 75.37890625 10.7890625 C71.17871177 12.29433451 68.3505653 14.56467538 64.9375 17.375 C64.33873047 17.85710937 63.73996094 18.33921875 63.12304688 18.8359375 C61.94891917 19.78244132 60.77871022 20.73383034 59.61279297 21.69042969 C58.20321757 22.83498954 56.76215326 23.9405473 55.31640625 25.0390625 C50.73880181 28.81906693 50.73880181 28.81906693 48.61268616 34.22491455 C48.4407597 37.00610991 48.39411712 39.76425527 48.390625 42.55078125 C48.37408875 43.56472458 48.35755249 44.57866791 48.34051514 45.62333679 C48.29203658 48.8531195 48.27066398 52.08243133 48.25 55.3125 C48.22184028 57.50588306 48.19191286 59.69924419 48.16015625 61.89257812 C48.08627725 67.26167999 48.03670141 72.63052048 48 78 C44.37 78 40.74 78 37 78 C37 75.36 37 72.72 37 70 C35.87851562 70.74056641 35.87851562 70.74056641 34.734375 71.49609375 C33.74953125 72.13675781 32.7646875 72.77742188 31.75 73.4375 C30.77546875 74.07558594 29.8009375 74.71367187 28.796875 75.37109375 C26.41618385 76.7576136 24.68219693 77.546581 22 78 C14.96312603 100.4770052 13.80292527 122.97668965 19 146 C19.72265625 149.80859375 19.72265625 149.80859375 20 153 C19.01 153.99 19.01 153.99 18 155 C16.95397317 150.67642245 15.96646528 146.34202204 15 142 C14.78730469 141.11183594 14.57460938 140.22367188 14.35546875 139.30859375 C10.3697836 120.06834383 11.86462426 97.34810904 19 79 C18.01 79.04640625 17.02 79.0928125 16 79.140625 C1.20442802 79.6371207 1.20442802 79.6371207 -4 75 C-9.40206249 68.62223459 -11.13132022 63.32654204 -11.11352539 55.01635742 C-11.11344986 53.83551071 -11.11337433 52.654664 -11.11329651 51.43803406 C-11.10813522 50.17328751 -11.10297394 48.90854095 -11.09765625 47.60546875 C-11.0962413 46.30297684 -11.09482635 45.00048492 -11.09336853 43.65852356 C-11.08956355 40.20783546 -11.07975064 36.75718992 -11.06866455 33.30651855 C-11.05840689 29.78052343 -11.0538616 26.25452139 -11.04882812 22.72851562 C-11.03812644 15.81899301 -11.02107443 8.90949855 -11 2 C-7.12315913 0.80712589 -4.08378077 0 0 0 Z " fill="#F5F3F0" transform="translate(284,222)"/>
<path d="M0 0 C4.29 0 8.58 0 13 0 C13.721875 1.8975 14.44375 3.795 15.1875 5.75 C17.22209275 11.0410778 19.35148695 16.27971506 21.55078125 21.50390625 C23.7688561 26.85478763 25.90216446 32.23921357 28.04248047 37.62158203 C30.3108257 43.31462015 32.64772323 48.96882737 35.08984375 54.58984375 C36.01857989 57.04920082 36.56019969 59.41212241 37 62 C37.66 62 38.32 62 39 62 C39.13341797 61.05060547 39.13341797 61.05060547 39.26953125 60.08203125 C40.29394343 55.7597788 41.99966361 51.788752 43.6875 47.6875 C44.42046227 45.87808634 45.15222061 44.06818455 45.8828125 42.2578125 C46.24407227 41.36352539 46.60533203 40.46923828 46.97753906 39.54785156 C52.19422448 26.54848933 56.64745038 13.31002684 61 0 C62.98 0 64.96 0 67 0 C65.5742368 4.79891027 63.93641736 9.30216217 61.625 13.75 C59.07630146 18.67136085 57.12538448 23.72956558 55.1796875 28.9140625 C53.92618569 32.19309042 52.54048087 35.38131646 51.09375 38.578125 C47.0550983 47.52085377 43.39605928 56.51094796 40.16796875 65.77734375 C38.65142999 69.96177344 36.87773511 73.9663468 35 78 C34.01 78 33.02 78 32 78 C31.64808594 77.030625 31.29617187 76.06125 30.93359375 75.0625 C27.31575359 65.20096795 23.299727 55.5819469 19 46 C14.26702148 35.39614918 9.69267855 24.72860847 5.25 14 C4.95633545 13.29423828 4.6626709 12.58847656 4.36010742 11.86132812 C4.08142822 11.18521484 3.80274902 10.50910156 3.515625 9.8125 C3.27102539 9.22082031 3.02642578 8.62914062 2.77441406 8.01953125 C1.76164911 5.37842417 0.89449088 2.68347265 0 0 Z " fill="#F4F1EF" transform="translate(160,223)"/>
<path d="M0 0 C0.00142502 0.78403198 0.00285004 1.56806396 0.00431824 2.37585449 C0.02220094 9.79063273 0.06396893 17.20472076 0.13209057 24.61919403 C0.16627748 28.43045306 0.19145746 32.2413148 0.19555664 36.05273438 C0.19985768 39.73599241 0.22846704 43.41835552 0.27343178 47.10133362 C0.28634969 48.50137607 0.29073477 49.90152593 0.28615379 51.30162048 C0.26591851 59.36928944 0.38093258 65.81267508 6 72 C8.12139833 73.95408024 8.12139833 73.95408024 10 75 C9.67 75.99 9.34 76.98 9 78 C0.06341686 77.80912153 0.06341686 77.80912153 -3.875 74.8125 C-9.07099836 67.93544335 -11.1319983 63.64320695 -11.11352539 55.01635742 C-11.11344986 53.83551071 -11.11337433 52.654664 -11.11329651 51.43803406 C-11.10813522 50.17328751 -11.10297394 48.90854095 -11.09765625 47.60546875 C-11.0962413 46.30297684 -11.09482635 45.00048492 -11.09336853 43.65852356 C-11.08956355 40.20783546 -11.07975064 36.75718992 -11.06866455 33.30651855 C-11.05840689 29.78052343 -11.0538616 26.25452139 -11.04882812 22.72851562 C-11.03812644 15.81899301 -11.02107443 8.90949855 -11 2 C-7.12315913 0.80712589 -4.08378077 0 0 0 Z " fill="#FAF8F6" transform="translate(284,222)"/>
<path d="M0 0 C0 25.74 0 51.48 0 78 C-3.63 78 -7.26 78 -11 78 C-11 53.25 -11 28.5 -11 3 C-3 0 -3 0 0 0 Z " fill="#F1EEED" transform="translate(251,221)"/>
<path d="M0 0 C0.99 0.99 0.99 0.99 2 2 C0.948125 2.28875 -0.10375 2.5775 -1.1875 2.875 C-4.22818711 3.77225193 -7.08712344 4.76423419 -10 6 C-9.42655063 8.86724686 -9.1385485 9.8614515 -7 12 C-8.485 12.495 -8.485 12.495 -10 13 C-10.61875 12.360625 -11.2375 11.72125 -11.875 11.0625 C-26.17821097 -3.1601295 -42.2407244 -15.02322485 -62 -20 C-63.15113281 -20.35707031 -64.30226563 -20.71414062 -65.48828125 -21.08203125 C-71.65627466 -22.6078907 -77.99910018 -22.32856463 -84.3125 -22.3125 C-85.56740234 -22.32861328 -86.82230469 -22.34472656 -88.11523438 -22.36132812 C-99.09714943 -22.36705085 -108.01491904 -20.08301175 -118.00390625 -15.671875 C-118.66261719 -15.45015625 -119.32132813 -15.2284375 -120 -15 C-120.66 -15.33 -121.32 -15.66 -122 -16 C-121.67 -16.99 -121.34 -17.98 -121 -19 C-122.32 -19.33 -123.64 -19.66 -125 -20 C-85.56448181 -34.1523326 -33.25761908 -25.39091303 0 0 Z " fill="#F0EDEA" transform="translate(334,125)"/>
<path d="M0 0 C1.65 0.66 3.3 1.32 5 2 C5 2.66 5 3.32 5 4 C5.70253906 4.25136719 6.40507812 4.50273437 7.12890625 4.76171875 C10.3335749 6.14386836 13.02468823 7.89144003 15.9375 9.8125 C22.59111341 14.0430493 29.45462132 16.69251791 37 19 C38.00546875 19.30808594 39.0109375 19.61617188 40.046875 19.93359375 C61.90883353 26.24457349 85.10880069 22.7919354 104.9375 11.9375 C105.77345703 11.49083984 106.60941406 11.04417969 107.47070312 10.58398438 C110.74552381 8.82426145 113.90395216 7.06403189 117 5 C117.99 8.3 118.98 11.6 120 15 C111.26014702 18.31893151 102.58068447 21.30719623 93.4375 23.3125 C92.71320801 23.47137695 91.98891602 23.63025391 91.24267578 23.79394531 C59.96839778 30.34390917 23.12749633 25.46560088 -5 10 C-6.00804687 9.45601563 -7.01609375 8.91203125 -8.0546875 8.3515625 C-10.70969825 6.91258721 -13.35755474 5.46188511 -16 4 C-12.06204091 2.77580837 -9.83887763 3.51679728 -6 5 C-6 4.34 -6 3.68 -6 3 C-5.195625 2.690625 -4.39125 2.38125 -3.5625 2.0625 C-1.10919595 1.23664655 -1.10919595 1.23664655 0 0 Z " fill="#F1ECEA" transform="translate(187,375)"/>
<path d="M0 0 C2 2 2 2 2.22705078 4.15478516 C2.21657715 5.02409668 2.20610352 5.8934082 2.1953125 6.7890625 C2.18886719 7.73007812 2.18242187 8.67109375 2.17578125 9.640625 C2.15902344 10.62546875 2.14226562 11.6103125 2.125 12.625 C2.11597656 13.61757813 2.10695313 14.61015625 2.09765625 15.6328125 C2.07404116 18.08878134 2.04110799 20.54427168 2 23 C1.01 23.495 1.01 23.495 0 24 C-0.29132813 24.62519531 -0.58265625 25.25039063 -0.8828125 25.89453125 C-2.21504191 28.40527129 -3.45449399 29.23976339 -5.875 30.6875 C-6.55304688 31.10386719 -7.23109375 31.52023437 -7.9296875 31.94921875 C-9.95605274 32.97769469 -11.78081315 33.54720627 -14 34 C-21.03687397 56.4770052 -22.19707473 78.97668965 -17 102 C-16.27734375 105.80859375 -16.27734375 105.80859375 -16 109 C-16.99 109.99 -16.99 109.99 -18 111 C-19.04602683 106.67642245 -20.03353472 102.34202204 -21 98 C-21.21269531 97.11183594 -21.42539062 96.22367187 -21.64453125 95.30859375 C-25.6302164 76.06834383 -24.13537574 53.34810904 -17 35 C-18.04800781 35.02320313 -19.09601563 35.04640625 -20.17578125 35.0703125 C-21.55468037 35.08907303 -22.9335872 35.10727293 -24.3125 35.125 C-25.00279297 35.14175781 -25.69308594 35.15851563 -26.40429688 35.17578125 C-30.17135396 35.21217794 -31.78431704 35.14378864 -35 33 C-32.36 33.33 -29.72 33.66 -27 34 C-27 33.01 -27 32.02 -27 31 C-23.37 30.67 -19.74 30.34 -16 30 C-15.70867187 29.26136719 -15.41734375 28.52273438 -15.1171875 27.76171875 C-11.09618878 17.81037916 -6.48169376 8.57871233 0 0 Z " fill="#E4DCD8" transform="translate(320,266)"/>
<path d="M0 0 C4.29 0 8.58 0 13 0 C13.721875 1.8975 14.44375 3.795 15.1875 5.75 C16.89544852 10.19547727 18.65172718 14.6110855 20.5 19 C28 36.85714286 28 36.85714286 28 40 C26.515 40.495 26.515 40.495 25 41 C24.34 39.68 23.68 38.36 23 37 C22.01 37.495 22.01 37.495 21 38 C20.26924352 40.3140622 19.59861742 42.64828869 19 45 C16.91233282 42.91233282 16.35259138 41.7108264 15.3125 39 C14.96703125 38.113125 14.6215625 37.22625 14.265625 36.3125 C13.58024385 34.51866293 12.89531554 32.72465129 12.21289062 30.9296875 C11.33306357 28.61837981 10.44917562 26.30868908 9.5625 24 C9.26174561 23.21665283 8.96099121 22.43330566 8.65112305 21.6262207 C6.69517177 16.60047593 4.54803053 11.77439987 1.9453125 7.04296875 C1 5 1 5 0 0 Z " fill="#F1EEEC" transform="translate(160,223)"/>
<path d="M0 0 C0.21914063 0.60585938 0.43828125 1.21171875 0.6640625 1.8359375 C4.41732378 11.75309128 10.05522872 20.27256982 16 29 C12.66666667 27.66666667 9.33333333 26.33333333 6 25 C6 24.34 6 23.68 6 23 C5.319375 23.061875 4.63875 23.12375 3.9375 23.1875 C0.92215055 22.99503089 -0.98724912 22.1329301 -3.6875 20.8671875 C-8.91523826 18.90678565 -14.53323242 18.06909047 -20 17 C-20 16.67 -20 16.34 -20 16 C-22.64 15.67 -25.28 15.34 -28 15 C-28.33 14.01 -28.66 13.02 -29 12 C-24.545 11.505 -24.545 11.505 -20 11 C-20 10.01 -20 9.02 -20 8 C-21.98 8 -23.96 8 -26 8 C-23.42889979 6.2859332 -21.92681724 5.55414399 -19.05859375 4.74609375 C-17.93614258 4.42415039 -17.93614258 4.42415039 -16.79101562 4.09570312 C-16.01435547 3.87849609 -15.23769531 3.66128906 -14.4375 3.4375 C-2.30102041 0 -2.30102041 0 0 0 Z " fill="#1C100A" transform="translate(308,390)"/>
<path d="M0 0 C2.18975773 3.28463659 2.99806563 6.20696275 4 10 C-4.73985298 13.31893151 -13.41931553 16.30719623 -22.5625 18.3125 C-23.28679199 18.47137695 -24.01108398 18.63025391 -24.75732422 18.79394531 C-33.3813898 20.60013626 -41.7019877 21.19309314 -50.5 21.1875 C-51.54994141 21.18814453 -52.59988281 21.18878906 -53.68164062 21.18945312 C-62.25570809 21.13176827 -70.54113142 20.39322541 -79 19 C-79.66 17.35 -80.32 15.7 -81 14 C-80.154375 14.20496094 -79.30875 14.40992188 -78.4375 14.62109375 C-55.00241435 20.18692659 -32.4136151 18.59451551 -11 6.9375 C-10.15566406 6.49083984 -9.31132812 6.04417969 -8.44140625 5.58398438 C-3.91495261 3.21750483 -3.91495261 3.21750483 0 0 Z " fill="#DFD9D4" transform="translate(303,380)"/>
<path d="M0 0 C1.98 0 3.96 0 6 0 C4.5742368 4.79891027 2.93641736 9.30216217 0.625 13.75 C-1.92369854 18.67136085 -3.87461552 23.72956558 -5.8203125 28.9140625 C-7.07381431 32.19309042 -8.45951913 35.38131646 -9.90625 38.578125 C-13.9449017 47.52085377 -17.60394072 56.51094796 -20.83203125 65.77734375 C-22.34857001 69.96177344 -24.12226489 73.9663468 -26 78 C-26.99 78 -27.98 78 -29 78 C-29.66 75.69 -30.32 73.38 -31 71 C-30.01 71.33 -29.02 71.66 -28 72 C-27.34 70.02 -26.68 68.04 -26 66 C-26.33 66 -26.66 66 -27 66 C-26.979375 64.88625 -26.95875 63.7725 -26.9375 62.625 C-26.73619282 59.16784079 -26.73619282 59.16784079 -28 57 C-28.039992 55.00039988 -28.04346799 52.99952758 -28 51 C-25.55160412 54.67259383 -24 57.54648201 -24 62 C-23.34 62 -22.68 62 -22 62 C-21.91105469 61.36707031 -21.82210937 60.73414063 -21.73046875 60.08203125 C-20.70605657 55.7597788 -19.00033639 51.788752 -17.3125 47.6875 C-16.57953773 45.87808634 -15.84777939 44.06818455 -15.1171875 42.2578125 C-14.75592773 41.36352539 -14.39466797 40.46923828 -14.02246094 39.54785156 C-8.80577552 26.54848933 -4.35254962 13.31002684 0 0 Z " fill="#E0DAD5" transform="translate(221,223)"/>
<path d="M0 0 C1.1859375 0.19722656 2.371875 0.39445312 3.59375 0.59765625 C4.3878125 0.73042969 5.181875 0.86320312 6 1 C5.01 1.33 4.02 1.66 3 2 C3.495 3.98 3.495 3.98 4 6 C1.65313623 5.45488494 -0.5860435 4.80146281 -2.87109375 4.02734375 C-12.20217491 1.17589617 -21.06340587 0.59270586 -30.8125 0.5625 C-32.03960693 0.55275146 -33.26671387 0.54300293 -34.53100586 0.53295898 C-45.29230425 0.63256698 -54.21112059 3.00363085 -64.00390625 7.328125 C-64.66261719 7.54984375 -65.32132813 7.7715625 -66 8 C-66.66 7.67 -67.32 7.34 -68 7 C-67.67 6.01 -67.34 5.02 -67 4 C-68.32 3.67 -69.64 3.34 -71 3 C-47.86255647 -5.30339783 -23.87681459 -4.11764511 0 0 Z " fill="#E8E4E0" transform="translate(280,102)"/>
<path d="M0 0 C4.63235294 2.26470588 4.63235294 2.26470588 6 5 C6.4375 8.375 6.4375 8.375 6 12 C2.9626028 14.82044026 0.91691584 15.87414881 -3.1875 16.4375 C-6.39309597 15.93885174 -7.0371515 15.48405686 -9 13 C-9.92089351 10.00571749 -10.18050973 7.1250747 -10 4 C-7.40674553 -0.25293733 -4.7859371 -0.6837053 0 0 Z " fill="#EDEBE7" transform="translate(248,190)"/>
<path d="M0 0 C0.28431885 0.57113525 0.5686377 1.14227051 0.86157227 1.73071289 C6.77859589 13.52542329 12.74475891 24.68276447 21.6875 34.46875 C27 40.28378378 27 40.28378378 27 43 C26.484375 42.731875 25.96875 42.46375 25.4375 42.1875 C19.43836549 39.26484473 13.34835641 37.02974661 7 35 C7.66 34.01 8.32 33.02 9 32 C8.34 31.34 7.68 30.68 7 30 C8.65 29.67 10.3 29.34 12 29 C12 27.00903524 10.31331772 25.13357653 9.3125 23.5 C6.79710478 19.35524713 4.39632087 15.16790932 2.078125 10.91015625 C1.12861996 9.22788102 0.07153517 7.60730276 -1 6 C-0.625 2.8125 -0.625 2.8125 0 0 Z " fill="#EFEDE9" transform="translate(309,388)"/>
<path d="M0 0 C0 3 0 3 -2 6 C-2.63292383 8.11280345 -2.63292383 8.11280345 -3 10 C-2.01 10.33 -1.02 10.66 0 11 C0 11.99 0 12.98 0 14 C0.66 14.66 1.32 15.32 2 16 C0.56705502 16.84114171 -0.87154405 17.67265687 -2.3125 18.5 C-3.11300781 18.9640625 -3.91351563 19.428125 -4.73828125 19.90625 C-7 21 -7 21 -10 21 C-10 21.66 -10 22.32 -10 23 C-10.99 22.67 -11.98 22.34 -13 22 C-13.12375 21.030625 -13.2475 20.06125 -13.375 19.0625 C-13.684375 17.5465625 -13.684375 17.5465625 -14 16 C-14.66 15.67 -15.32 15.34 -16 15 C-16 12.69 -16 10.38 -16 8 C-15.01 8.495 -15.01 8.495 -14 9 C-14 9.99 -14 10.98 -14 12 C-13.34 12 -12.68 12 -12 12 C-12 11.34 -12 10.68 -12 10 C-11.21625 9.7525 -10.4325 9.505 -9.625 9.25 C-6.52432668 7.7734889 -6.40795828 6.99191134 -5 4 C-2.375 1.75 -2.375 1.75 0 0 Z " fill="#F7F4F2" transform="translate(319,367)"/>
<path d="M0 0 C1.22589844 0.01353516 1.22589844 0.01353516 2.4765625 0.02734375 C3.41628906 0.04474609 3.41628906 0.04474609 4.375 0.0625 C5.57772819 2.46795638 5.47571472 4.01246953 5.4375 6.6875 C5.42847656 7.50476563 5.41945313 8.32203125 5.41015625 9.1640625 C5.39855469 9.79054687 5.38695312 10.41703125 5.375 11.0625 C6.695 11.0625 8.015 11.0625 9.375 11.0625 C9.375 7.7625 9.375 4.4625 9.375 1.0625 C10.695 1.3925 12.015 1.7225 13.375 2.0625 C13.705 5.3625 14.035 8.6625 14.375 12.0625 C7.445 12.0625 0.515 12.0625 -6.625 12.0625 C-6.625 8.4325 -6.625 4.8025 -6.625 1.0625 C-4.21954362 -0.14022819 -2.67503047 -0.03821472 0 0 Z " fill="#DFD7D4" transform="translate(263.625,193.9375)"/>
<path d="M0 0 C0.99 0.4021875 0.99 0.4021875 2 0.8125 C2.99 1.204375 3.98 1.59625 5 2 C6.175625 2.515625 7.35125 3.03125 8.5625 3.5625 C13.39958834 5.37253226 17.8910137 5.34053415 23 5.1875 C23.87011719 5.17396484 24.74023438 5.16042969 25.63671875 5.14648438 C27.75808627 5.11151678 29.87912974 5.0577253 32 5 C29.38058783 6.74627478 27.96175123 7.38722388 25 8 C25.33 8.66 25.66 9.32 26 10 C25.67 10.66 25.34 11.32 25 12 C25.66 12.33 26.32 12.66 27 13 C26.34 13.66 25.68 14.32 25 15 C25 15.99 25 16.98 25 18 C20.05468547 16.58813158 16.19081717 14.47542729 11.9375 11.6875 C11.33873047 11.30916016 10.73996094 10.93082031 10.12304688 10.54101562 C6.30048708 8.06660945 3.04211541 5.43316238 0 2 C0 1.34 0 0.68 0 0 Z " fill="#E9E5E2" transform="translate(143,459)"/>
<path d="M0 0 C0.33 0 0.66 0 1 0 C2.46777482 17.88928963 2.46777482 17.88928963 -0.828125 22.62890625 C-4.71446118 25.19620449 -8.44283959 26.19865208 -13 27 C-11.49647475 22.02200709 -9.41126073 17.55313807 -7.0625 12.9375 C-6.54139648 11.89625977 -6.54139648 11.89625977 -6.00976562 10.83398438 C-4.14496919 7.13599822 -2.26724509 3.47193054 0 0 Z " fill="#1A0E09" transform="translate(320,269)"/>
<path d="M0 0 C-0.25 1.8515625 -0.25 1.8515625 -1 4 C-2.75 5.2734375 -2.75 5.2734375 -5 6.375 C-9.29295935 8.57986392 -13.20155022 11.09702899 -17.15234375 13.86328125 C-19 15 -19 15 -21 15 C-21 15.66 -21 16.32 -21 17 C-22.53125 18.2890625 -22.53125 18.2890625 -24.5 19.625 C-25.1496875 20.07101563 -25.799375 20.51703125 -26.46875 20.9765625 C-26.9740625 21.31429687 -27.479375 21.65203125 -28 22 C-28 20.35 -28 18.7 -28 17 C-27.01 16.67 -26.02 16.34 -25 16 C-23.31461399 14.00334686 -23.31461399 14.00334686 -22 12 C-20.68 12.33 -19.36 12.66 -18 13 C-17.67 11.35 -17.34 9.7 -17 8 C-17.66 8 -18.32 8 -19 8 C-19 7.01 -19 6.02 -19 5 C-19.66 4.67 -20.32 4.34 -21 4 C-18.44165429 3.13118459 -15.87957539 2.2797867 -13.3125 1.4375 C-12.59126953 1.19064453 -11.87003906 0.94378906 -11.12695312 0.68945312 C-7.05647168 -0.63020068 -4.21972067 -1.38992772 0 0 Z " fill="#F5F3F0" transform="translate(213,106)"/>
<path d="M0 0 C2.34602422 1.79728137 2.95565875 2.68805087 3.37854004 5.6631012 C3.38059448 6.7340654 3.38264893 7.8050296 3.38476562 8.90844727 C3.39487671 10.12303116 3.40498779 11.33761505 3.41540527 12.58900452 C3.41238403 13.90154709 3.40936279 15.21408966 3.40625 16.56640625 C3.41548068 17.9249751 3.42645041 19.28353315 3.43908691 20.64207458 C3.48212021 25.68142355 3.49313397 30.72075339 3.50531006 35.76025391 C3.51682164 40.02167698 3.54032901 44.28270191 3.58000183 48.54395866 C3.59361065 50.54590745 3.58919586 52.54795227 3.58459473 54.54994202 C3.59470581 55.76137375 3.60481689 56.97280548 3.61523438 58.22094727 C3.61728882 59.29111588 3.61934326 60.36128448 3.62145996 61.46388245 C3.74637817 62.30080124 3.87129639 63.13772003 4 64 C4.99 64.66 5.98 65.32 7 66 C6 68 6 68 4 69 C0.49194873 63.6616611 -0.12704918 59.33196782 -0.11352539 53.01635742 C-0.11344986 51.83551071 -0.11337433 50.654664 -0.11329651 49.43803406 C-0.10813522 48.17328751 -0.10297394 46.90854095 -0.09765625 45.60546875 C-0.0962413 44.30297684 -0.09482635 43.00048492 -0.09336853 41.65852356 C-0.08956355 38.20783546 -0.07975064 34.75718992 -0.06866455 31.30651855 C-0.05840689 27.78052343 -0.0538616 24.25452139 -0.04882812 20.72851562 C-0.03812644 13.81899301 -0.02107443 6.90949855 0 0 Z " fill="#DFDBD7" transform="translate(273,224)"/>
<path d="M0 0 C2.1519437 3.22791555 2.20086443 4.28400809 2 8 C-15.02030457 15 -15.02030457 15 -21 15 C-21 14.01 -21 13.02 -21 12 C-20.43490723 11.70754395 -19.86981445 11.41508789 -19.28759766 11.11376953 C-16.73136334 9.7880615 -14.17816553 8.45660789 -11.625 7.125 C-10.73554688 6.66480469 -9.84609375 6.20460938 -8.9296875 5.73046875 C-7.65351563 5.06337891 -7.65351563 5.06337891 -6.3515625 4.3828125 C-5.56604004 3.97434082 -4.78051758 3.56586914 -3.97119141 3.14501953 C-1.86103134 2.03187615 -1.86103134 2.03187615 0 0 Z " fill="#CAC0BD" transform="translate(303,380)"/>
<path d="M0 0 C-0.33 0.66 -0.66 1.32 -1 2 C-3.15234375 2.7109375 -3.15234375 2.7109375 -5.9375 3.375 C-10.85265723 4.61983094 -15.37014369 6.28185545 -20.00390625 8.328125 C-20.66261719 8.54984375 -21.32132813 8.7715625 -22 9 C-22.66 8.67 -23.32 8.34 -24 8 C-23.67 7.01 -23.34 6.02 -23 5 C-24.32 4.67 -25.64 4.34 -27 4 C-19.12244611 1.01196232 -8.30213699 -2.86987452 0 0 Z " fill="#ECE6E2" transform="translate(236,101)"/>
<path d="M0 0 C0.99 0 1.98 0 3 0 C4.24609375 1.64453125 4.24609375 1.64453125 5.4375 3.8125 C7.27329099 6.95559669 8.80099476 9.10429319 12 11 C11.67 11.99 11.34 12.98 11 14 C9.4156683 13.91231752 7.83246433 13.80412671 6.25 13.6875 C4.92742187 13.60048828 4.92742187 13.60048828 3.578125 13.51171875 C0.64584554 12.92970571 -0.8402919 12.04364902 -3 10 C-3 9.34 -3 8.68 -3 8 C-2.01 8 -1.02 8 0 8 C0 5.36 0 2.72 0 0 Z " fill="#E9E6E4" transform="translate(282,286)"/>
<path d="M0 0 C2 2 2 2 2.22705078 4.15478516 C2.21657715 5.02409668 2.20610352 5.8934082 2.1953125 6.7890625 C2.18886719 7.73007812 2.18242187 8.67109375 2.17578125 9.640625 C2.15902344 10.62546875 2.14226562 11.6103125 2.125 12.625 C2.11597656 13.61757813 2.10695313 14.61015625 2.09765625 15.6328125 C2.07404116 18.08878134 2.04110799 20.54427168 2 23 C1.67 23 1.34 23 1 23 C0.67 17.06 0.34 11.12 0 5 C-4.40784929 12.56680794 -8.64846347 19.90045339 -12 28 C-12.66 27.67 -13.32 27.34 -14 27 C-13.39758696 22.37559398 -11.45878649 18.66016675 -9.25 14.625 C-8.71246094 13.62907837 -8.71246094 13.62907837 -8.1640625 12.61303711 C-5.72846488 8.16292428 -3.12599258 4.005178 0 0 Z " fill="#DCD5CF" transform="translate(320,266)"/>
<path d="M0 0 C2.44839588 3.67259383 4 6.54648201 4 11 C4.99 11 5.98 11 7 11 C6.49228528 16.96564796 4.61407872 21.63809899 2 27 C1.01 27 0.02 27 -1 27 C-1.66 24.69 -2.32 22.38 -3 20 C-2.01 20.33 -1.02 20.66 0 21 C0.66 19.02 1.32 17.04 2 15 C1.67 15 1.34 15 1 15 C1.020625 13.88625 1.04125 12.7725 1.0625 11.625 C1.26380718 8.16784079 1.26380718 8.16784079 0 6 C-0.039992 4.00039988 -0.04346799 1.99952758 0 0 Z " fill="#E5E0DD" transform="translate(193,274)"/>
<path d="M0 0 C0 3.63 0 7.26 0 11 C-0.99 11.33 -1.98 11.66 -3 12 C-3.061875 11.38125 -3.12375 10.7625 -3.1875 10.125 C-3.828919 7.72238859 -3.828919 7.72238859 -6.5625 6.75 C-7.366875 6.5025 -8.17125 6.255 -9 6 C-10.32 7.65 -11.64 9.3 -13 11 C-14.32 10.34 -15.64 9.68 -17 9 C-15.42040347 7.70376621 -13.83616587 6.41318673 -12.25 5.125 C-11.36828125 4.40570313 -10.4865625 3.68640625 -9.578125 2.9453125 C-3.93593315 -1.31197772 -3.93593315 -1.31197772 0 0 Z " fill="#1F140F" transform="translate(363,232)"/>
<path d="M0 0 C0.9075 0.103125 1.815 0.20625 2.75 0.3125 C3.08 1.9625 3.41 3.6125 3.75 5.3125 C1.77 5.6425 -0.21 5.9725 -2.25 6.3125 C-2.25 7.6325 -2.25 8.9525 -2.25 10.3125 C-0.27 9.9825 1.71 9.6525 3.75 9.3125 C2.6875 10.875 2.6875 10.875 0.75 12.3125 C-2.9375 12 -2.9375 12 -6.25 11.3125 C-7.30082025 7.54706077 -7.5891456 5.9365279 -5.6875 2.4375 C-3.25 0.3125 -3.25 0.3125 0 0 Z " fill="#9E9894" transform="translate(286.25,193.6875)"/>
<path d="M0 0 C0 3 0 3 -2 6 C-2.63292383 8.11280345 -2.63292383 8.11280345 -3 10 C-2.01 10.33 -1.02 10.66 0 11 C0 11.99 0 12.98 0 14 C0.66 14.66 1.32 15.32 2 16 C0.35 16.66 -1.3 17.32 -3 18 C-3.66 16.35 -4.32 14.7 -5 13 C-7.31 12.67 -9.62 12.34 -12 12 C-12 11.34 -12 10.68 -12 10 C-11.21625 9.7525 -10.4325 9.505 -9.625 9.25 C-6.52432668 7.7734889 -6.40795828 6.99191134 -5 4 C-2.375 1.75 -2.375 1.75 0 0 Z " fill="#EAE6E2" transform="translate(319,367)"/>
<path d="M0 0 C0.27924316 0.56605957 0.55848633 1.13211914 0.84619141 1.71533203 C2.92065774 5.82300362 5.16267046 9.84040954 7.375 13.875 C7.85710937 14.76058594 8.33921875 15.64617187 8.8359375 16.55859375 C11.37499986 21.18824278 13.98206266 25.66618476 17 30 C16.67 30.66 16.34 31.32 16 32 C9.59383583 28.79691792 5.52577408 17.46502073 2.26171875 11.3125 C0.95572532 8.83779758 0.95572532 8.83779758 -1 6 C-0.625 2.8125 -0.625 2.8125 0 0 Z " fill="#D0C8C2" transform="translate(309,388)"/>
<path d="M0 0 C3.99500618 1.3697164 6.80009492 3.25722422 10 6 C8.35 6 6.7 6 5 6 C5 6.66 5 7.32 5 8 C4.01 8.495 4.01 8.495 3 9 C4.98 9 6.96 9 9 9 C8.67 9.99 8.34 10.98 8 12 C6.54096742 11.69078116 5.08279278 11.37751201 3.625 11.0625 C2.81289062 10.88847656 2.00078125 10.71445312 1.1640625 10.53515625 C-1 10 -1 10 -3 9 C-3.75 6.0625 -3.75 6.0625 -4 3 C-3.34 2.34 -2.68 1.68 -2 1 C-1.34 1.33 -0.68 1.66 0 2 C0 1.34 0 0.68 0 0 Z " fill="#EAE7E3" transform="translate(195,381)"/>
<path d="M0 0 C-1.49907474 4.49722423 -4.9120455 5.88686562 -9 8 C-12 8.8125 -12 8.8125 -14 9 C-14 8.34 -14 7.68 -14 7 C-16.64 7 -19.28 7 -22 7 C-22.33 7.99 -22.66 8.98 -23 10 C-24.258125 10.04125 -25.51625 10.0825 -26.8125 10.125 C-27.52019531 10.14820313 -28.22789062 10.17140625 -28.95703125 10.1953125 C-31 10 -31 10 -34 8 C-31.36 8.33 -28.72 8.66 -26 9 C-26 8.01 -26 7.02 -26 6 C-20.555 5.505 -20.555 5.505 -15 5 C-14.67 4.01 -14.34 3.02 -14 2 C-13.34 2 -12.68 2 -12 2 C-12 2.99 -12 3.98 -12 5 C-11.30132812 4.6390625 -10.60265625 4.278125 -9.8828125 3.90625 C-8.97273438 3.4421875 -8.06265625 2.978125 -7.125 2.5 C-6.22007812 2.0359375 -5.31515625 1.571875 -4.3828125 1.09375 C-2 0 -2 0 0 0 Z " fill="#DCD5D1" transform="translate(319,291)"/>
<path d="M0 0 C2.64 0 5.28 0 8 0 C8.23681093 4.90427807 7.35386915 9.18317436 6.0625 13.875 C4.59565135 19.25517278 3.58994184 24.44833681 3 30 C-0.06948537 25.39577194 1.07674971 21.3006188 2 16 C3.17260188 11.60867719 4.53011895 7.30025666 6 3 C3.69 3 1.38 3 -1 3 C-0.67 2.01 -0.34 1.02 0 0 Z " fill="#E6DFDB" transform="translate(297,298)"/>
<path d="M0 0 C0.66 1.32 1.32 2.64 2 4 C-0.72770166 4.98341615 -3.45702105 5.96185053 -6.1875 6.9375 C-6.95642578 7.21529297 -7.72535156 7.49308594 -8.51757812 7.77929688 C-14.41604928 9.880469 -19.50125827 11.13853906 -25.8125 11.0625 C-27.27623047 11.04896484 -27.27623047 11.04896484 -28.76953125 11.03515625 C-29.87361328 11.01775391 -29.87361328 11.01775391 -31 11 C-30.34 10.67 -29.68 10.34 -29 10 C-29 9.34 -29 8.68 -29 8 C-27.02 7.67 -25.04 7.34 -23 7 C-23 7.66 -23 8.32 -23 9 C-20.45810688 8.20905464 -17.91648159 7.41726571 -15.375 6.625 C-14.66214844 6.40328125 -13.94929688 6.1815625 -13.21484375 5.953125 C-11.80604536 5.5136833 -10.39814769 5.07134256 -8.99121094 4.62597656 C-7.17843559 4.05609476 -5.35905114 3.50734493 -3.5390625 2.9609375 C-0.85379961 2.27278809 -0.85379961 2.27278809 0 0 Z " fill="#F1EDE8" transform="translate(305,386)"/>
<path d="M0 0 C0.8971875 0.309375 0.8971875 0.309375 1.8125 0.625 C1.4825 1.285 1.1525 1.945 0.8125 2.625 C-0.05246094 2.88539063 -0.91742188 3.14578125 -1.80859375 3.4140625 C-6.00878823 4.91933451 -8.8369347 7.18967538 -12.25 10 C-12.84876953 10.48210937 -13.44753906 10.96421875 -14.06445312 11.4609375 C-15.23620827 12.40552873 -16.40485572 13.35399052 -17.57006836 14.30664062 C-19.01741599 15.48636549 -20.48038964 16.64685895 -21.9453125 17.8046875 C-24.54352066 19.9140342 -26.85612511 22.2270144 -29.1875 24.625 C-27.50489537 14.80980632 -14.35079926 8.11928334 -6.77807617 2.73486328 C-2.2948663 -0.39340565 -2.2948663 -0.39340565 0 0 Z " fill="#DCD3CC" transform="translate(361.1875,229.375)"/>
<path d="M0 0 C0.33 0 0.66 0 1 0 C1.16918268 1.58306647 1.33523936 3.16646719 1.5 4.75 C1.5928125 5.63171875 1.685625 6.5134375 1.78125 7.421875 C2 10 2 10 2 14 C-2.455 15.485 -2.455 15.485 -7 17 C-5.24009216 11.08030998 -2.60305395 5.58365008 0 0 Z " fill="#211713" transform="translate(314,279)"/>
<path d="M0 0 C4.29 0 8.58 0 13 0 C13.33 1.65 13.66 3.3 14 5 C11.69 4.34 9.38 3.68 7 3 C6.34 4.98 5.68 6.96 5 9 C5.66 9 6.32 9 7 9 C6.67 10.65 6.34 12.3 6 14 C4.18616153 11.27924229 3.06463979 8.89756628 1.875 5.875 C1.52179688 4.98554688 1.16859375 4.09609375 0.8046875 3.1796875 C0 1 0 1 0 0 Z " fill="#E8E2DF" transform="translate(160,223)"/>
<path d="M0 0 C3.875 1.75 3.875 1.75 5 4 C5.2322646 6.71262116 5.41936235 9.40773126 5.5625 12.125 C5.60568359 12.87910156 5.64886719 13.63320313 5.69335938 14.41015625 C5.7994832 16.27321888 5.90025001 18.13658524 6 20 C5.34 19.34 4.68 18.68 4 18 C4 19.98 4 21.96 4 24 C2.3226387 21.02730987 1.67146103 18.62485146 1.3671875 15.234375 C1.28339844 14.34492188 1.19960937 13.45546875 1.11328125 12.5390625 C1.03464844 11.61867188 0.95601562 10.69828125 0.875 9.75 C0.78863281 8.81414062 0.70226562 7.87828125 0.61328125 6.9140625 C0.40167692 4.60992647 0.19751323 2.30537956 0 0 Z " fill="#241712" transform="translate(137,268)"/>
<path d="M0 0 C0 4.0333534 -1.60879918 5.83517538 -4 9 C-4.66 9 -5.32 9 -6 9 C-6 23.19 -6 37.38 -6 52 C-6.33 52 -6.66 52 -7 52 C-7.1270508 45.70139162 -7.21445561 39.4031151 -7.2746582 33.10351562 C-7.29976163 30.96178844 -7.33385168 28.82014659 -7.37719727 26.67871094 C-7.4380315 23.5954887 -7.46625181 20.51340157 -7.48828125 17.4296875 C-7.51408768 16.47633514 -7.5398941 15.52298279 -7.56648254 14.54074097 C-7.56836017 10.06373616 -7.47665372 6.97606039 -4.59448242 3.41064453 C-2 1 -2 1 0 0 Z " fill="#281E19" transform="translate(339,247)"/>
<path d="M0 0 C0.66 0.33 1.32 0.66 2 1 C2 4 2 4 0.57421875 5.60546875 C-0.04839844 6.12753906 -0.67101562 6.64960938 -1.3125 7.1875 C-1.92738281 7.71730469 -2.54226562 8.24710937 -3.17578125 8.79296875 C-5 10 -5 10 -8 10 C-8 10.66 -8 11.32 -8 12 C-10.375 13.0625 -10.375 13.0625 -13 14 C-13.66 13.67 -14.32 13.34 -15 13 C-10.35827355 8.09717644 -5.50719921 3.90510489 0 0 Z " fill="#E8E2DF" transform="translate(242,418)"/>
<path d="M0 0 C2 2 2 2 2.1953125 3.9453125 C2.13020833 5.96354167 2.06510417 7.98177083 2 10 C0.68 10 -0.64 10 -2 10 C-2 8.02 -2 6.04 -2 4 C-2.66 4 -3.32 4 -4 4 C-4.33 5.98 -4.66 7.96 -5 10 C-5.33 10 -5.66 10 -6 10 C-6.33 6.7 -6.66 3.4 -7 0 C-4.29393021 -1.35303489 -2.8671629 -0.7884698 0 0 Z " fill="#B4ADAA" transform="translate(264,195)"/>
<path d="M0 0 C0.66 0.33 1.32 0.66 2 1 C2 1.66 2 2.32 2 3 C2.66 3 3.32 3 4 3 C6 6 6 6 5.75 9.5 C5 13 5 13 3 16 C2.01 15.34 1.02 14.68 0 14 C-0.29296875 11.50390625 -0.29296875 11.50390625 -0.1875 8.5625 C-0.16042969 7.59441406 -0.13335937 6.62632812 -0.10546875 5.62890625 C-0.07066406 4.76136719 -0.03585938 3.89382813 0 3 C0 2.01 0 1.02 0 0 Z " fill="#F9F8F7" transform="translate(190,280)"/>
<path d="M0 0 C3.43214135 6.40666385 3.43214135 6.40666385 2.46557617 9.97045898 C2.18174072 10.65954346 1.89790527 11.34862793 1.60546875 12.05859375 C-0.31443521 17.38996052 -0.55047101 22.43648115 -0.6875 28.0625 C-0.72166016 29.02349609 -0.75582031 29.98449219 -0.79101562 30.97460938 C-0.87256667 33.31628927 -0.94200966 35.65763863 -1 38 C-1.33 38 -1.66 38 -2 38 C-2.41277905 12.23623663 -2.41277905 12.23623663 0 0 Z " fill="#443935" transform="translate(301,314)"/>
<path d="M0 0 C1.06323242 1.765625 1.06323242 1.765625 2 4 C1.23861245 6.82213145 0.40532765 9.31295828 -0.6875 12 C-1.09258789 13.06734375 -1.09258789 13.06734375 -1.50585938 14.15625 C-2.9439743 17.83562756 -4.39075646 20.97296217 -7 24 C-8.24540698 20.48604716 -7.76387905 18.63330973 -6.34765625 15.234375 C-5.98349609 14.34492188 -5.61933594 13.45546875 -5.24414062 12.5390625 C-4.85419922 11.61867188 -4.46425781 10.69828125 -4.0625 9.75 C-3.67642578 8.81414062 -3.29035156 7.87828125 -2.89257812 6.9140625 C-1.93833169 4.60502173 -0.97388338 2.30081138 0 0 Z " fill="#CAC3BC" transform="translate(207,262)"/>
<path d="M0 0 C3.0683258 3.70917866 5.10673884 7.84613218 7.25 12.125 C7.62640625 12.85332031 8.0028125 13.58164062 8.390625 14.33203125 C9.32491431 16.19030521 10.17006746 18.09283178 11 20 C10.67 20.66 10.34 21.32 10 22 C9.01 22 8.02 22 7 22 C6.67 20.02 6.34 18.04 6 16 C5.34 16 4.68 16 4 16 C3.896875 14.906875 3.79375 13.81375 3.6875 12.6875 C3.37456435 9.08001834 3.37456435 9.08001834 1.4375 7.4375 C0 6 0 6 -0.1875 2.8125 C-0.125625 1.884375 -0.06375 0.95625 0 0 Z " fill="#E2DEDC" transform="translate(149,320)"/>
<path d="M0 0 C2 1 2 1 5 3 C3.02 3.99 3.02 3.99 1 5 C1.33 5.66 1.66 6.32 2 7 C2.33 6.34 2.66 5.68 3 5 C3.66 5 4.32 5 5 5 C4.67 7.64 4.34 10.28 4 13 C3.01 13.33 2.02 13.66 1 14 C0.32332002 12.75539217 -0.34094719 11.50403104 -1 10.25 C-1.37125 9.55390625 -1.7425 8.8578125 -2.125 8.140625 C-3 6 -3 6 -3 2 C-2.01 1.34 -1.02 0.68 0 0 Z " fill="#241915" transform="translate(313,386)"/>
<path d="M0 0 C0.90596924 0.01571045 1.81193848 0.0314209 2.74536133 0.04760742 C3.72827148 0.05727539 4.71118164 0.06694336 5.72387695 0.0769043 C6.74803711 0.10204102 7.77219727 0.12717773 8.82739258 0.15307617 C9.8631543 0.16661133 10.89891602 0.18014648 11.96606445 0.1940918 C14.52452957 0.22946228 17.08195038 0.27882073 19.63989258 0.34057617 C19.63989258 1.00057617 19.63989258 1.66057617 19.63989258 2.34057617 C7.26489258 2.83557617 7.26489258 2.83557617 -5.36010742 3.34057617 C-2.36010742 0.34057617 -2.36010742 0.34057617 0 0 Z " fill="#D0C9C6" transform="translate(239.360107421875,98.659423828125)"/>
<path d="M0 0 C0.99 0.66 1.98 1.32 3 2 C1.66666667 6 0.33333333 10 -1 14 C-1.66 14 -2.32 14 -3 14 C-4.83691257 10.21812119 -5.15837626 8.05431692 -4 4 C-3.01 3.67 -2.02 3.34 -1 3 C-0.67 2.01 -0.34 1.02 0 0 Z " fill="#1F1510" transform="translate(200,271)"/>
<path d="M0 0 C2 1 2 1 2 1 Z M-1 1 C-0.67 1.66 -0.34 2.32 0 3 C0.66 3.33 1.32 3.66 2 4 C-3.94 9.445 -3.94 9.445 -10 15 C-10.33 14.01 -10.66 13.02 -11 12 C-10.34 11.01 -9.68 10.02 -9 9 C-8.34 9 -7.68 9 -7 9 C-6.7525 8.236875 -6.505 7.47375 -6.25 6.6875 C-4.89004442 3.7635955 -3.68414174 2.69995644 -1 1 Z " fill="#221511" transform="translate(153,129)"/>
<path d="M0 0 C0.66 1.32 1.32 2.64 2 4 C1.54109375 4.38671875 1.0821875 4.7734375 0.609375 5.171875 C-2.725081 8.00195951 -5.96501303 10.84361355 -9 14 C-9.66 13.67 -10.32 13.34 -11 13 C-11 11.68 -11 10.36 -11 9 C-9.68 8.67 -8.36 8.34 -7 8 C-7 7.34 -7 6.68 -7 6 C-5.69417053 4.96434215 -4.35622245 3.96873032 -3 3 C-1.98198643 2.01834406 -0.9753197 1.02408568 0 0 Z " fill="#1F140F" transform="translate(318,363)"/>
<path d="M0 0 C1.98 0 3.96 0 6 0 C4.46356148 3.68069887 2.21849055 5.98775204 -0.625 8.75 C-1.85089844 9.94882812 -1.85089844 9.94882812 -3.1015625 11.171875 C-3.72804687 11.77515625 -4.35453125 12.3784375 -5 13 C-5.99 12.01 -6.98 11.02 -8 10 C-7.360625 9.71125 -6.72125 9.4225 -6.0625 9.125 C-3.84793921 8.17176549 -3.84793921 8.17176549 -3 6 C-2.484375 5.525625 -1.96875 5.05125 -1.4375 4.5625 C0.33852827 2.98589466 0.33852827 2.98589466 0 0 Z " fill="#F1EDE9" transform="translate(252,451)"/>
<path d="M0 0 C0.99 0 1.98 0 3 0 C2.67 1.65 2.34 3.3 2 5 C0.08802961 5.70045456 -1.82980435 6.384919 -3.75 7.0625 C-4.81734375 7.44535156 -5.8846875 7.82820313 -6.984375 8.22265625 C-9.92280042 8.98010011 -11.22348948 9.07151741 -14 8 C-13.07316406 7.50628906 -12.14632813 7.01257813 -11.19140625 6.50390625 C-9.98172045 5.85686501 -8.77208778 5.20972446 -7.5625 4.5625 C-6.95083984 4.23701172 -6.33917969 3.91152344 -5.70898438 3.57617188 C-2.66283794 2.06284858 -2.66283794 2.06284858 0 0 Z " fill="#241B19" transform="translate(302,384)"/>
<path d="M0 0 C4.51617599 -0.07654536 8.59085217 -0.10228696 13 1 C12.01 2.485 12.01 2.485 11 4 C10.01 4 9.02 4 8 4 C8 4.66 8 5.32 8 6 C5 5 5 5 3 4 C3 4.66 3 5.32 3 6 C1.35 5.67 -0.3 5.34 -2 5 C0 3 0 3 3 2 C2.01 1.34 1.02 0.68 0 0 Z " fill="#281B16" transform="translate(312,424)"/>
<path d="M0 0 C-0.33 1.65 -0.66 3.3 -1 5 C-3.97 4.67 -6.94 4.34 -10 4 C-9.67 4.66 -9.34 5.32 -9 6 C-9.99 6.33 -10.98 6.66 -12 7 C-12 6.34 -12 5.68 -12 5 C-12.66 4.67 -13.32 4.34 -14 4 C-12.730447 3.35165346 -11.45930294 2.70642185 -10.1875 2.0625 C-9.47980469 1.70285156 -8.77210938 1.34320313 -8.04296875 0.97265625 C-3.52913386 -1.17637795 -3.52913386 -1.17637795 0 0 Z M-6 5 C-5.34 5.33 -4.68 5.66 -4 6 C-4.99 6 -5.98 6 -7 6 C-6.67 5.67 -6.34 5.34 -6 5 Z " fill="#E5DFDD" transform="translate(193,112)"/>
<path d="M0 0 C-0.66 0 -1.32 0 -2 0 C-2 3.3 -2 6.6 -2 10 C-3.32 10 -4.64 10 -6 10 C-6.33 6.7 -6.66 3.4 -7 0 C-3 -1 -3 -1 0 0 Z " fill="#6D6461" transform="translate(275,195)"/>
<path d="M0 0 C1.32 0.33 2.64 0.66 4 1 C-1.75 5 -1.75 5 -4 5 C-4 5.66 -4 6.32 -4 7 C-5.53125 8.2890625 -5.53125 8.2890625 -7.5 9.625 C-8.1496875 10.07101563 -8.799375 10.51703125 -9.46875 10.9765625 C-9.9740625 11.31429687 -10.479375 11.65203125 -11 12 C-11 10.35 -11 8.7 -11 7 C-10.01 6.67 -9.02 6.34 -8 6 C-6.31461399 4.00334686 -6.31461399 4.00334686 -5 2 C-3.68 2.33 -2.36 2.66 -1 3 C-0.67 2.01 -0.34 1.02 0 0 Z " fill="#E7E2DE" transform="translate(196,116)"/>
<path d="M0 0 C4.455 0.99 4.455 0.99 9 2 C9 2.99 9 3.98 9 5 C8.34 5.66 7.68 6.32 7 7 C6.01 7 5.02 7 4 7 C3.67 6.34 3.34 5.68 3 5 C0.47266765 4.34444881 0.47266765 4.34444881 -2 4 C-1.01 3.67 -0.02 3.34 1 3 C0.67 2.01 0.34 1.02 0 0 Z " fill="#F9F7F6" transform="translate(199,386)"/>
<path d="M0 0 C0.33 1.65 0.66 3.3 1 5 C-0.65 5.33 -2.3 5.66 -4 6 C-3.34 5.67 -2.68 5.34 -2 5 C-2 4.01 -2 3.02 -2 2 C-2.99 2.33 -3.98 2.66 -5 3 C-5.33 3.99 -5.66 4.98 -6 6 C-8.0625 7.6875 -8.0625 7.6875 -10 9 C-9.40425532 3.63829787 -9.40425532 3.63829787 -7.8125 1.125 C-5.19985125 -0.49664405 -3.00479298 -0.20031953 0 0 Z " fill="#D8CFCB" transform="translate(289,194)"/>
<path d="M0 0 C2.73264029 2.73264029 3.72720597 5.36344564 5 9 C4.6875 12.4375 4.6875 12.4375 4 15 C3.67 14.34 3.34 13.68 3 13 C2.34 13 1.68 13 1 13 C-0.32229189 10.35541621 -0.09677194 8.32238699 -0.0625 5.375 C-0.05347656 4.37210937 -0.04445312 3.36921875 -0.03515625 2.3359375 C-0.02355469 1.56507813 -0.01195312 0.79421875 0 0 Z " fill="#302421" transform="translate(185,283)"/>
<path d="M0 0 C0.66 0.66 1.32 1.32 2 2 C1 3 1 3 -1.59204102 3.02172852 C-2.71795654 2.97459717 -3.84387207 2.92746582 -5.00390625 2.87890625 C-6.21884766 2.83056641 -7.43378906 2.78222656 -8.68554688 2.73242188 C-9.96494141 2.67634766 -11.24433594 2.62027344 -12.5625 2.5625 C-13.84576172 2.51029297 -15.12902344 2.45808594 -16.45117188 2.40429688 C-19.63433391 2.2741304 -22.81722004 2.13914999 -26 2 C-26 1.67 -26 1.34 -26 1 C-5.74418605 -0.30232558 -5.74418605 -0.30232558 0 0 Z " fill="#DDD6D3" transform="translate(268,100)"/>
<path d="M0 0 C2.475 0.99 2.475 0.99 5 2 C5 3.65 5 5.3 5 7 C-1.625 6.25 -1.625 6.25 -5 4 C-3.35 2.68 -1.7 1.36 0 0 Z " fill="#F0ECE9" transform="translate(209,389)"/>
<path d="M0 0 C0.33 0.66 0.66 1.32 1 2 C0.10333658 4.24310013 -0.89146683 6.44754321 -1.9375 8.625 C-2.50339844 9.81351562 -3.06929688 11.00203125 -3.65234375 12.2265625 C-4.09707031 13.14179688 -4.54179687 14.05703125 -5 15 C-5.66 14.67 -6.32 14.34 -7 14 C-6.53395685 9.24635987 -5.87250217 5.86682984 -3 2 C-2.01 1.34 -1.02 0.68 0 0 Z " fill="#180F0A" transform="translate(311,278)"/>
<path d="M0 0 C0.7425 0.185625 1.485 0.37125 2.25 0.5625 C2.8275 0.706875 3.405 0.85125 4 1 C4 1.66 4 2.32 4 3 C-0.455 4.485 -0.455 4.485 -5 6 C-4.67 4.68 -4.34 3.36 -4 2 C-5.32 1.67 -6.64 1.34 -8 1 C-4.88241926 -0.89281688 -3.44056457 -1.18269407 0 0 Z " fill="#DCD6D2" transform="translate(217,104)"/>
<path d="M0 0 C0 0.66 0 1.32 0 2 C0.66 2.33 1.32 2.66 2 3 C-6.41826913 4.69882188 -14.41922945 5.24911914 -23 5 C-23 4.67 -23 4.34 -23 4 C-22.14535156 3.95101563 -21.29070312 3.90203125 -20.41015625 3.8515625 C-19.30542969 3.77679688 -18.20070312 3.70203125 -17.0625 3.625 C-15.40927734 3.52058594 -15.40927734 3.52058594 -13.72265625 3.4140625 C-12.37494141 3.20910156 -12.37494141 3.20910156 -11 3 C-10.67 2.34 -10.34 1.68 -10 1 C-6.63471927 0.46582846 -3.40372484 0 0 0 Z " fill="#463D38" transform="translate(266,394)"/>
<path d="M0 0 C0.66 0.33 1.32 0.66 2 1 C2 1.99 2 2.98 2 4 C2.99 4.33 3.98 4.66 5 5 C6.37868281 6.62935241 7.71274093 8.29749607 9 10 C9.66 10.66 10.32 11.32 11 12 C10.01 12.33 9.02 12.66 8 13 C6.46452525 11.59921602 4.94694852 10.17879097 3.4375 8.75 C2.59058594 7.96109375 1.74367187 7.1721875 0.87109375 6.359375 C-1 4 -1 4 -0.77734375 1.703125 C-0.52082031 1.14109375 -0.26429688 0.5790625 0 0 Z " fill="#E8E4DF" transform="translate(140,349)"/>
<path d="M0 0 C1.98 0 3.96 0 6 0 C4.69117841 3.92646477 3.1255472 6.27774921 0 9 C-0.33 9 -0.66 9 -1 9 C-0.67 6.03 -0.34 3.06 0 0 Z " fill="#EBE5E1" transform="translate(221,223)"/>
<path d="M0 0 C8.31335586 1.16770407 8.31335586 1.16770407 11.0625 4.5 C12 7 12 7 12 9 C10.35 8.67 8.7 8.34 7 8 C7 6.68 7 5.36 7 4 C6.67 4 6.34 4 6 4 C5.34 4.66 4.68 5.32 4 6 C3.896875 5.360625 3.79375 4.72125 3.6875 4.0625 C3.460625 3.381875 3.23375 2.70125 3 2 C2.01 1.67 1.02 1.34 0 1 C0 0.67 0 0.34 0 0 Z " fill="#FAF8F6" transform="translate(308,113)"/>
<path d="M0 0 C2.1490452 0.42144002 4.29422788 0.86262049 6.4375 1.3125 C7.63246094 1.55613281 8.82742187 1.79976563 10.05859375 2.05078125 C11.02925781 2.36402344 11.99992188 2.67726563 13 3 C13.33 3.99 13.66 4.98 14 6 C5.15902579 6.17335244 5.15902579 6.17335244 2 5 C0.86328125 2.44921875 0.86328125 2.44921875 0 0 Z " fill="#D2CAC6" transform="translate(222,394)"/>
<path d="M0 0 C1.41750563 0.11509661 2.83401169 0.24253658 4.25 0.375 C5.03890625 0.44460938 5.8278125 0.51421875 6.640625 0.5859375 C9.13704633 1.02405118 10.85062474 1.66590501 13 3 C14.75 5.625 14.75 5.625 16 8 C12.66666667 6.66666667 9.33333333 5.33333333 6 4 C6 3.34 6 2.68 6 2 C4.35 2 2.7 2 1 2 C0.67 1.34 0.34 0.68 0 0 Z " fill="#382E2A" transform="translate(308,411)"/>
<path d="M0 0 C0.66 0 1.32 0 2 0 C0.40956621 5.08938811 -2.7446951 8.87456643 -6 13 C-6.66 12.67 -7.32 12.34 -8 12 C-7.67 10.68 -7.34 9.36 -7 8 C-6.34 8 -5.68 8 -5 8 C-4.67 6.68 -4.34 5.36 -4 4 C-3.34 4 -2.68 4 -2 4 C-2 3.34 -2 2.68 -2 2 C-1.34 2 -0.68 2 0 2 C0 1.34 0 0.68 0 0 Z " fill="#EFEBE8" transform="translate(376,328)"/>
<path d="M0 0 C0.99 0.495 0.99 0.495 2 1 C4.09821215 0.60061233 4.09821215 0.60061233 6 0 C5.49202991 4.3177458 4.80317221 8.03302114 3 12 C0.60926555 8.17482487 0.44033448 4.40334476 0 0 Z " fill="#3A2F2A" transform="translate(352,296)"/>
<path d="M0 0 C0.33 0.66 0.66 1.32 1 2 C1.66 2 2.32 2 3 2 C2.72510809 6.03174806 2.46508424 7.56894631 -0.5625 10.375 C-1.366875 10.91125 -2.17125 11.4475 -3 12 C-2.49202991 7.6822542 -1.80317221 3.96697886 0 0 Z " fill="#312723" transform="translate(147,184)"/>
<path d="M0 0 C2 4 2 4 2 6 C1.34 6 0.68 6 0 6 C-0.103125 6.928125 -0.20625 7.85625 -0.3125 8.8125 C-1.0070192 12.03254358 -1.47740939 13.02579865 -4 15 C-4.66 14.67 -5.32 14.34 -6 14 C-4.02 9.38 -2.04 4.76 0 0 Z " fill="#DED9D4" transform="translate(349,320)"/>
<path d="M0 0 C1.32 0.66 2.64 1.32 4 2 C4 3.65 4 5.3 4 7 C2.02 7.99 2.02 7.99 0 9 C0 8.34 0 7.68 0 7 C-0.66 7 -1.32 7 -2 7 C-1.125 1.125 -1.125 1.125 0 0 Z " fill="#F8F6F6" transform="translate(167,225)"/>
<path d="M0 0 C0.33 0.99 0.66 1.98 1 3 C-1.65308425 6.63851555 -4.23172413 9.48781609 -8 12 C-8.66 11.67 -9.32 11.34 -10 11 C-8.89718873 9.72799029 -7.79269231 8.45744147 -6.6875 7.1875 C-6.07261719 6.47980469 -5.45773438 5.77210938 -4.82421875 5.04296875 C-3.26665665 3.29863261 -1.67341125 1.63221959 0 0 Z " fill="#332A27" transform="translate(182,130)"/>
<path d="M0 0 C0.66 0 1.32 0 2 0 C2.70226141 1.24176695 3.38629109 2.49385599 4.0625 3.75 C4.44535156 4.44609375 4.82820313 5.1421875 5.22265625 5.859375 C6.1312406 8.36140628 5.88336837 9.5332355 5 12 C1.75254486 7.86687528 0 5.36067372 0 0 Z " fill="#F1EDEA" transform="translate(114,312)"/>
<path d="M0 0 C1.04211409 3.12634226 0.99926113 4.04848841 0.25 7.125 C0.01023438 8.18074219 0.01023438 8.18074219 -0.234375 9.2578125 C-0.48703125 9.83273438 -0.7396875 10.40765625 -1 11 C-1.99 11.33 -2.98 11.66 -4 12 C-4 9.36 -4 6.72 -4 4 C-3.34 4 -2.68 4 -2 4 C-1.67 3.01 -1.34 2.02 -1 1 C-0.67 0.67 -0.34 0.34 0 0 Z " fill="#EBE7E3" transform="translate(142,197)"/>
<path d="M0 0 C0.99 0.33 1.98 0.66 3 1 C2.07456291 2.34173403 1.13422595 3.67320159 0.1875 5 C-0.33457031 5.7425 -0.85664063 6.485 -1.39453125 7.25 C-1.92433594 7.8275 -2.45414063 8.405 -3 9 C-3.99 9 -4.98 9 -6 9 C-5.67 7.68 -5.34 6.36 -5 5 C-4.34 5 -3.68 5 -3 5 C-3 4.34 -3 3.68 -3 3 C-2.34 3 -1.68 3 -1 3 C-0.67 2.01 -0.34 1.02 0 0 Z " fill="#1F1310" transform="translate(135,147)"/>
<path d="M0 0 C0.99 0.4021875 0.99 0.4021875 2 0.8125 C5.64939067 2.25705047 9.32245433 3.62871178 13 5 C13 5.33 13 5.66 13 6 C10.23735711 6.59732819 7.83967231 7 5 7 C2.3125 4.625 2.3125 4.625 0 2 C0 1.34 0 0.68 0 0 Z " fill="#D6D1C9" transform="translate(143,459)"/>
<path d="M0 0 C0.66 1.32 1.32 2.64 2 4 C0.25766175 4.72697561 -1.49427345 5.43098244 -3.25 6.125 C-4.22453125 6.51945312 -5.1990625 6.91390625 -6.203125 7.3203125 C-9 8 -9 8 -11.359375 7.1171875 C-11.90078125 6.74851562 -12.4421875 6.37984375 -13 6 C-11.71802734 5.60167969 -11.71802734 5.60167969 -10.41015625 5.1953125 C-9.30542969 4.84210938 -8.20070313 4.48890625 -7.0625 4.125 C-5.96035156 3.77695312 -4.85820312 3.42890625 -3.72265625 3.0703125 C-0.87121196 2.29975705 -0.87121196 2.29975705 0 0 Z " fill="#D7CFCC" transform="translate(305,386)"/>
<path d="M0 0 C0.66 0.99 1.32 1.98 2 3 C1.57847656 3.62648438 1.15695312 4.25296875 0.72265625 4.8984375 C0.17480469 5.71570313 -0.37304688 6.53296875 -0.9375 7.375 C-1.48277344 8.18710937 -2.02804687 8.99921875 -2.58984375 9.8359375 C-4.01093879 11.92719184 -4.01093879 11.92719184 -5 14 C-5.66 14 -6.32 14 -7 14 C-5.53967505 8.68972746 -3.01679014 4.53669968 0 0 Z " fill="#312824" transform="translate(385,316)"/>
<path d="M0 0 C1.99788438 0.34578768 3.99759451 0.68143549 6 1 C6 1.33 6 1.66 6 2 C4.41913952 2.36504603 2.83516093 2.71660506 1.25 3.0625 C0.36828125 3.25972656 -0.5134375 3.45695312 -1.421875 3.66015625 C-3.98679028 3.99825872 -5.57091639 3.81158635 -8 3 C-7.34 2.67 -6.68 2.34 -6 2 C-6.66 1.34 -7.32 0.68 -8 0 C-4.8787889 -1.00324642 -3.11668059 -0.91667076 0 0 Z " fill="#D0C9C5" transform="translate(276,396)"/>
<path d="M0 0 C2.97 0.495 2.97 0.495 6 1 C5.67 2.32 5.34 3.64 5 5 C-1.15234375 4.4140625 -1.15234375 4.4140625 -3 4 C-3.33 3.34 -3.66 2.68 -4 2 C-2.68 2 -1.36 2 0 2 C0 1.34 0 0.68 0 0 Z " fill="#F5F3F1" transform="translate(288,295)"/>
<path d="M0 0 C0.99 0.33 1.98 0.66 3 1 C2.25 2.9375 2.25 2.9375 1 5 C-1.125 5.75 -1.125 5.75 -3 6 C-3.33 7.65 -3.66 9.3 -4 11 C-4.66 11 -5.32 11 -6 11 C-5.17857636 6.56431237 -3.17658845 3.17658845 0 0 Z " fill="#1D110C" transform="translate(344,242)"/>
<path d="M0 0 C3.34726719 1.11575573 3.62079748 1.51344622 5.25 4.4375 C5.8275 5.613125 6.405 6.78875 7 8 C6.67 8.66 6.34 9.32 6 10 C3.5625 8.9375 3.5625 8.9375 1 7 C0.1875 3.3125 0.1875 3.3125 0 0 Z " fill="#291F1D" transform="translate(333,151)"/>
<path d="M0 0 C2.96404505 2.80804268 5.44499019 5.18315774 7 9 C3.88801935 7.50163895 0.9465385 5.80066242 -2 4 C-1.34 3.67 -0.68 3.34 0 3 C0 2.01 0 1.02 0 0 Z " fill="#D9D5CF" transform="translate(329,422)"/>
<path d="M0 0 C0.33 0 0.66 0 1 0 C1.39169887 2.66355234 1.40564529 4.39224373 -0.11328125 6.66796875 C-1.36389317 8.1510888 -2.67864514 9.57954352 -4 11 C-4.99 10.67 -5.98 10.34 -7 10 C-5.85821872 8.33055479 -4.71147095 6.6645052 -3.5625 5 C-2.92441406 4.071875 -2.28632813 3.14375 -1.62890625 2.1875 C-1.09136719 1.465625 -0.55382812 0.74375 0 0 Z " fill="#2A1F1D" transform="translate(377,330)"/>
<path d="M0 0 C0.99 0.66 1.98 1.32 3 2 C2.25 7.75 2.25 7.75 0 10 C-0.99 10 -1.98 10 -3 10 C-2.01 6.7 -1.02 3.4 0 0 Z " fill="#DCD7D4" transform="translate(355,304)"/>
<path d="M0 0 C0.99 0 1.98 0 3 0 C3.28571429 8.57142857 3.28571429 8.57142857 1 12 C-1.83022097 8.00439392 -0.76210446 4.57262677 0 0 Z " fill="#342924" transform="translate(99,216)"/>
<path d="M0 0 C3.0916909 2.52956528 3.90931332 5.22454612 5 9 C4.01 9.495 4.01 9.495 3 10 C2.34 9.67 1.68 9.34 1 9 C1.33 8.34 1.66 7.68 2 7 C1.01 7 0.02 7 -1 7 C-1.33 5.68 -1.66 4.36 -2 3 C-1.34 2.67 -0.68 2.34 0 2 C0 1.34 0 0.68 0 0 Z " fill="#DCD7D5" transform="translate(379,173)"/>
<path d="M0 0 C0.99 0.33 1.98 0.66 3 1 C1.47291037 4.43595166 -0.59927045 7.11912454 -3 10 C-3.66 9.67 -4.32 9.34 -5 9 C-3.50163895 5.88801935 -1.80066242 2.9465385 0 0 Z " fill="#1C0F0A" transform="translate(333,344)"/>
<path d="M0 0 C0.66 0.99 1.32 1.98 2 3 C1.3203125 5.26171875 1.3203125 5.26171875 0.125 7.6875 C-0.45894531 8.89986328 -0.45894531 8.89986328 -1.0546875 10.13671875 C-1.52261719 11.05904297 -1.52261719 11.05904297 -2 12 C-2.66 11.67 -3.32 11.34 -4 11 C-3.39301257 6.87248551 -1.96189209 3.6678852 0 0 Z " fill="#C8C1BB" transform="translate(310,282)"/>
<path d="M0 0 C0.97608217 2.92824652 1.08226668 4.95613276 1 8 C-1 8 -3 8 -5 8 C-3.375 2.25 -3.375 2.25 0 0 Z " fill="#211712" transform="translate(205,280)"/>
<path d="M0 0 C3.78834395 1.26278132 4.22011278 2.52112952 6 6 C6.6875 8.3125 6.6875 8.3125 7 10 C6.01 10.495 6.01 10.495 5 11 C4.15841464 9.73461631 3.32700252 8.46246221 2.5 7.1875 C1.80390625 6.12595703 1.80390625 6.12595703 1.09375 5.04296875 C0 3 0 3 0 0 Z " fill="#F0EBEA" transform="translate(337,153)"/>
<path d="M0 0 C0.88336837 2.4667645 1.1312406 3.63859372 0.22265625 6.140625 C-0.16019531 6.83671875 -0.54304687 7.5328125 -0.9375 8.25 C-1.31777344 8.95640625 -1.69804687 9.6628125 -2.08984375 10.390625 C-2.39019531 10.92171875 -2.69054687 11.4528125 -3 12 C-3.66 11.01 -4.32 10.02 -5 9 C-3.50163895 5.88801935 -1.80066242 2.9465385 0 0 Z " fill="#2D2420" transform="translate(167,147)"/>
<path d="M0 0 C0.66 0 1.32 0 2 0 C1.54738642 1.43931117 1.08767021 2.87638999 0.625 4.3125 C0.36976563 5.11300781 0.11453125 5.91351563 -0.1484375 6.73828125 C-1 9 -1 9 -3 12 C-3.88336837 9.5332355 -4.1312406 8.36140628 -3.22265625 5.859375 C-2.83980469 5.16328125 -2.45695313 4.4671875 -2.0625 3.75 C-1.68222656 3.04359375 -1.30195313 2.3371875 -0.91015625 1.609375 C-0.60980469 1.07828125 -0.30945313 0.5471875 0 0 Z " fill="#D3CCC7" transform="translate(203,274)"/>
<path d="M0 0 C1.67588141 2.51382212 2.94030311 4.82947288 4.1875 7.5625 C4.55230469 8.34753906 4.91710937 9.13257813 5.29296875 9.94140625 C5.52628906 10.62074219 5.75960937 11.30007812 6 12 C5.67 12.66 5.34 13.32 5 14 C4.67 12.68 4.34 11.36 4 10 C3.01 10.33 2.02 10.66 1 11 C-1.125 3.375 -1.125 3.375 0 0 Z " fill="#2F2522" transform="translate(162,229)"/>
<path d="M0 0 C1.88391785 3.26545761 2.49287967 6.28111761 3 10 C1.68 10 0.36 10 -1 10 C-1.9765625 3.9453125 -1.9765625 3.9453125 -2 2 C-1.34 1.34 -0.68 0.68 0 0 Z " fill="#2D201D" transform="translate(355,196)"/>
<path d="M0 0 C0.99 0 1.98 0 3 0 C4.06775224 1.96466413 5.06553465 3.96855359 6 6 C5.67 6.66 5.34 7.32 5 8 C4.67 6.68 4.34 5.36 4 4 C3.34 5.32 2.68 6.64 2 8 C2 7.34 2 6.68 2 6 C1.34 6 0.68 6 0 6 C-0.33 6.66 -0.66 7.32 -1 8 C-0.67 5.36 -0.34 2.72 0 0 Z " fill="#E0DDD9" transform="translate(386,192)"/>
<path d="M0 0 C1.32 0.66 2.64 1.32 4 2 C3.34 2 2.68 2 2 2 C2 2.66 2 3.32 2 4 C1.01 4.495 1.01 4.495 0 5 C0 5.66 0 6.32 0 7 C-5.75 5.25 -5.75 5.25 -8 3 C-5.36 2.67 -2.72 2.34 0 2 C0 1.34 0 0.68 0 0 Z " fill="#E3DFDC" transform="translate(294,106)"/>
<path d="M0 0 C3.46941546 0.45822468 6.67395049 0.89131683 10 2 C10 3.32 10 4.64 10 6 C6.40992874 4.66654496 3.20429093 3.1056769 0 1 C0 0.67 0 0.34 0 0 Z " fill="#E0DCD7" transform="translate(171,378)"/>
<path d="M0 0 C2.12300942 3.53834904 2.69690596 6.90823045 3 11 C2.34 11.66 1.68 12.32 1 13 C-0.6290678 8.20862412 -1.20577428 4.94367454 0 0 Z " fill="#D6CFCB" transform="translate(301,364)"/>
<path d="M0 0 C2.96659857 3.55991828 5.381348 7.65222543 7 12 C6.67 12.66 6.34 13.32 6 14 C3.21249856 12.60624928 3.10733713 10.83755139 2 8 C1.34 7.34 0.68 6.68 0 6 C-0.125 2.875 -0.125 2.875 0 0 Z " fill="#C9C3BF" transform="translate(149,320)"/>
<path d="M0 0 C3.64553172 1.2808625 5.16671013 2.16671013 8 5 C5.03 5.66 2.06 6.32 -1 7 C-0.67 5.68 -0.34 4.36 0 3 C0 2.01 0 1.02 0 0 Z " fill="#2A1F17" transform="translate(324,217)"/>
<path d="M0 0 C0.99 0 1.98 0 3 0 C3 3.3 3 6.6 3 10 C2.01 9.34 1.02 8.68 0 8 C-0.40843923 5.28796348 -0.13336867 2.7562858 0 0 Z " fill="#F9F4F0" transform="translate(273,195)"/>
<path d="M0 0 C0.33 0 0.66 0 1 0 C1.375 3.25 1.375 3.25 1 7 C-2.15266558 9.92747518 -4.07603983 10.93155851 -8.375 11.25 C-9.24125 11.1675 -10.1075 11.085 -11 11 C-11 10.67 -11 10.34 -11 10 C-10.071875 9.731875 -9.14375 9.46375 -8.1875 9.1875 C-5.1688359 8.06289965 -4.0844857 7.29293427 -2 5 C-1.34 5 -0.68 5 0 5 C0 3.35 0 1.7 0 0 Z " fill="#D1CBC7" transform="translate(253,195)"/>
<path d="M0 0 C0.33 0 0.66 0 1 0 C1.125 7.625 1.125 7.625 0 11 C-2.0625 11.6875 -2.0625 11.6875 -4 12 C-2.66666667 8 -1.33333333 4 0 0 Z " fill="#E8E4E0" transform="translate(110,192)"/>
<path d="M0 0 C-1.1427919 1.16964602 -2.28931715 2.33564556 -3.4375 3.5 C-4.07558594 4.1496875 -4.71367187 4.799375 -5.37109375 5.46875 C-7 7 -7 7 -8 7 C-8.25 4.6875 -8.25 4.6875 -8 2 C-5.17904206 -1.02245494 -3.81217262 -1.16927984 0 0 Z " fill="#FBF9F4" transform="translate(247,192)"/>
<path d="M0 0 C4 1 4 1 7 3 C7.6875 5.625 7.6875 5.625 8 8 C7.01 8.495 7.01 8.495 6 9 C4.02 6.03 2.04 3.06 0 0 Z " fill="#221512" transform="translate(367,155)"/>
<path d="M0 0 C0.639375 0.33 1.27875 0.66 1.9375 1 C6.01236841 2.33056928 9.75190425 2.16659199 14 2 C14 2.33 14 2.66 14 3 C7.95170514 3.89604368 2.1105424 4.11269443 -4 4 C-2.68 2.68 -1.36 1.36 0 0 Z " fill="#2D231E" transform="translate(218,98)"/>
<path d="M0 0 C0.99 0 1.98 0 3 0 C2.71125 0.70125 2.4225 1.4025 2.125 2.125 C0.97866412 5.05452503 -0.02625654 8.00921653 -1 11 C-1.66 11 -2.32 11 -3 11 C-2.44894091 7.0507432 -1.61064629 3.65079826 0 0 Z " fill="#D9D3CB" transform="translate(211,253)"/>
<path d="M0 0 C1.5 1.375 1.5 1.375 3 3 C3 3.66 3 4.32 3 5 C2.01 5 1.02 5 0 5 C-0.33 6.32 -0.66 7.64 -1 9 C-1.66 9 -2.32 9 -3 9 C-2.4140625 2.84765625 -2.4140625 2.84765625 -2 1 C-1.34 0.67 -0.68 0.34 0 0 Z " fill="#FBF9F8" transform="translate(182,259)"/>
<path d="M0 0 C0.99 0.33 1.98 0.66 3 1 C3.33 2.98 3.66 4.96 4 7 C3.34 6.34 2.68 5.68 2 5 C1.34 5.66 0.68 6.32 0 7 C-0.99 7 -1.98 7 -3 7 C-1.125 2.25 -1.125 2.25 0 0 Z " fill="#2B1C16" transform="translate(227,223)"/>
<path d="M0 0 C2.04436837 3.06655255 2.54390211 4.87109668 3.1875 8.4375 C3.36667969 9.38496094 3.54585938 10.33242187 3.73046875 11.30859375 C3.98919608 13.89211739 3.81315079 15.56054763 3 18 C0.22528921 11.75690073 -0.37634203 6.80203375 0 0 Z " fill="#C8C2BE" transform="translate(395,210)"/>
<path d="M0 0 C0.33 0.66 0.66 1.32 1 2 C1.66 2 2.32 2 3 2 C3.33 4.31 3.66 6.62 4 9 C2.02 9 0.04 9 -2 9 C-1.34 8.67 -0.68 8.34 0 8 C0 5.36 0 2.72 0 0 Z " fill="#F5EEEB" transform="translate(259,197)"/>
<path d="M0 0 C1.98 0.495 1.98 0.495 4 1 C3.34 3.97 2.68 6.94 2 10 C0.35835645 6.7167129 -0.52087355 4.54553576 -1 1 C-0.67 0.67 -0.34 0.34 0 0 Z " fill="#F1EDEB" transform="translate(354,186)"/>
<path d="M0 0 C3.3 1.65 6.6 3.3 10 5 C9.01 5.66 8.02 6.32 7 7 C3.535 5.02 3.535 5.02 0 3 C0 2.01 0 1.02 0 0 Z " fill="#1D140E" transform="translate(289,111)"/>
<path d="M0 0 C5.44567686 1.02862785 10.11817117 2.24614784 15 5 C14.34 5.66 13.68 6.32 13 7 C13 6.34 13 5.68 13 5 C11.68 5.33 10.36 5.66 9 6 C8.67 5.01 8.34 4.02 8 3 C5.69 3 3.38 3 1 3 C0.67 2.01 0.34 1.02 0 0 Z " fill="#362C28" transform="translate(271,104)"/>
<path d="M0 0 C0.66 0.66 1.32 1.32 2 2 C1.9375 4.4375 1.9375 4.4375 1 7 C-1.5625 8.8125 -1.5625 8.8125 -4 10 C-3.67 8.35 -3.34 6.7 -3 5 C-2.34 5 -1.68 5 -1 5 C-0.67 3.35 -0.34 1.7 0 0 Z " fill="#291F1B" transform="translate(301,375)"/>
<path d="M0 0 C0 0.99 0 1.98 0 3 C-0.66 3.66 -1.32 4.32 -2 5 C-1.67 5.66 -1.34 6.32 -1 7 C-3.64 7.33 -6.28 7.66 -9 8 C-6.14723863 5.06799526 -3.34920216 2.35684596 0 0 Z " fill="#312725" transform="translate(342,368)"/>
<path d="M0 0 C2.2477975 2.05233685 3.0022242 3.00667261 4 6 C1.33333333 6 -1.33333333 6 -4 6 C-2.25 1.125 -2.25 1.125 0 0 Z " fill="#2E221C" transform="translate(340,161)"/>
<path d="M0 0 C0.99 0.33 1.98 0.66 3 1 C1.1875 4 1.1875 4 -1 7 C-1.99 7 -2.98 7 -4 7 C-3.67 5.68 -3.34 4.36 -3 3 C-2.34 3 -1.68 3 -1 3 C-0.67 2.01 -0.34 1.02 0 0 Z " fill="#F0EDE8" transform="translate(172,136)"/>
<path d="M0 0 C-2.88628401 1.57554035 -5.53342384 2.46276373 -8.75 3.125 C-9.54921875 3.29257813 -10.3484375 3.46015625 -11.171875 3.6328125 C-11.77515625 3.75398438 -12.3784375 3.87515625 -13 4 C-13 3.34 -13 2.68 -13 2 C-4.738041 -1.62870159 -4.738041 -1.62870159 0 0 Z " fill="#2A201D" transform="translate(208,105)"/>
<path d="M0 0 C0.66 0.33 1.32 0.66 2 1 C0.4375 2.20442708 -1.125 3.40885417 -2.6875 4.61328125 C-4.34370205 6.04491137 -4.34370205 6.04491137 -4 9 C-4.66 9 -5.32 9 -6 9 C-6 8.34 -6 7.68 -6 7 C-7.32 7.33 -8.64 7.66 -10 8 C-6.97727468 4.74475735 -3.74281699 2.38179263 0 0 Z " fill="#D2CECA" transform="translate(211,445)"/>
<path d="M0 0 C0.99 0 1.98 0 3 0 C6.34821429 6.96428571 6.34821429 6.96428571 5 11 C4.15841464 9.73461631 3.32700252 8.46246221 2.5 7.1875 C1.80390625 6.12595703 1.80390625 6.12595703 1.09375 5.04296875 C0 3 0 3 0 0 Z " fill="#E4E0DD" transform="translate(120,325)"/>
<path d="M0 0 C0.66 0.99 1.32 1.98 2 3 C0.35 5.64 -1.3 8.28 -3 11 C-4 7 -4 7 -3.22265625 5.078125 C-1.61132812 2.5390625 -1.61132812 2.5390625 0 0 Z " fill="#D3CAC5" transform="translate(315,273)"/>
<path d="M0 0 C0.99 0 1.98 0 3 0 C3 2.64 3 5.28 3 8 C2.01 8 1.02 8 0 8 C0 5.36 0 2.72 0 0 Z " fill="#352C29" transform="translate(263,197)"/>
<path d="M0 0 C2.93200474 2.85276137 5.64315404 5.65079784 8 9 C7.67 9.66 7.34 10.32 7 11 C2.34012809 7.9342948 1.14514798 5.41342681 0 0 Z " fill="#D6CFCC" transform="translate(368,157)"/>
<path d="M0 0 C2.88437779 1.29299694 4.87219421 2.65941363 7 5 C6.67 5.66 6.34 6.32 6 7 C4.0625 6.1875 4.0625 6.1875 2 5 C1.67 4.01 1.34 3.02 1 2 C0.34 1.67 -0.32 1.34 -1 1 C-0.67 0.67 -0.34 0.34 0 0 Z " fill="#F0EBE8" transform="translate(337,128)"/>
<path d="M0 0 C0.66 0 1.32 0 2 0 C1.6189482 2.76262553 1.16402868 3.84143894 -0.875 5.8125 C-1.57625 6.204375 -2.2775 6.59625 -3 7 C-3.99 6.67 -4.98 6.34 -6 6 C-5.67 5.01 -5.34 4.02 -5 3 C-3.67696283 2.6278958 -2.34262065 2.29369827 -1 2 C-0.67 1.34 -0.34 0.68 0 0 Z " fill="#F0EDE7" transform="translate(241,464)"/>
<path d="M0 0 C0.33 0.66 0.66 1.32 1 2 C1.99 1.67 2.98 1.34 4 1 C4.33 2.32 4.66 3.64 5 5 C4.01 5 3.02 5 2 5 C2 5.66 2 6.32 2 7 C1.01 6.67 0.02 6.34 -1 6 C-0.67 4.02 -0.34 2.04 0 0 Z " fill="#F0EBE9" transform="translate(307,383)"/>
<path d="M0 0 C0.99 0.66 1.98 1.32 3 2 C1.7636832 2.89422914 0.51028438 3.76487891 -0.75 4.625 C-1.44609375 5.11226563 -2.1421875 5.59953125 -2.859375 6.1015625 C-5 7 -5 7 -7.265625 6.1484375 C-7.83796875 5.76945312 -8.4103125 5.39046875 -9 5 C-7.68 5 -6.36 5 -5 5 C-4.67 4.34 -4.34 3.68 -4 3 C-2.69084721 1.96854629 -1.35917857 0.96457834 0 0 Z " fill="#EBE5E3" transform="translate(333,372)"/>
<path d="M0 0 C2.13586678 3.20380017 2.23132175 4.01939967 2.125 7.6875 C2.10695312 8.49574219 2.08890625 9.30398438 2.0703125 10.13671875 C2.04710937 10.75160156 2.02390625 11.36648438 2 12 C0.48046875 10.79296875 0.48046875 10.79296875 -1 9 C-1.07421875 6.73828125 -1.07421875 6.73828125 -0.6875 4.3125 C-0.56761719 3.50425781 -0.44773438 2.69601562 -0.32421875 1.86328125 C-0.21722656 1.24839844 -0.11023438 0.63351562 0 0 Z " fill="#E4E0DE" transform="translate(147,314)"/>
<path d="M0 0 C3 1 3 1 4.25 2.875 C5 5 5 5 4 8 C3.34 8 2.68 8 2 8 C0.23537317 4.91190305 0 3.76687864 0 0 Z " fill="#F1EFEC" transform="translate(346,168)"/>
<path d="M0 0 C0.99 0 1.98 0 3 0 C3 0.66 3 1.32 3 2 C4.32 2.33 5.64 2.66 7 3 C6.01 3.495 6.01 3.495 5 4 C4.67 4.99 4.34 5.98 4 7 C2 6 2 6 0.875 2.9375 C0.58625 1.968125 0.2975 0.99875 0 0 Z " fill="#291E18" transform="translate(333,425)"/>
<path d="M0 0 C0 0.66 0 1.32 0 2 C0.66 2.33 1.32 2.66 2 3 C-0.64 3.33 -3.28 3.66 -6 4 C-6 3.01 -6 2.02 -6 1 C-4 0 -4 0 0 0 Z " fill="#C1BBB8" transform="translate(288,391)"/>
<path d="M0 0 C0.6875 1.625 0.6875 1.625 1 4 C-0.4375 7.25 -0.4375 7.25 -2 10 C-2.99 9.67 -3.98 9.34 -5 9 C-3.50163895 5.88801935 -1.80066242 2.9465385 0 0 Z " fill="#D6CDC9" transform="translate(338,342)"/>
<path d="M0 0 C0.53625 0.2475 1.0725 0.495 1.625 0.75 C0.625 2.75 0.625 2.75 -2.25 3.75 C-3.28125 4.08 -4.3125 4.41 -5.375 4.75 C-6.365 5.41 -7.355 6.07 -8.375 6.75 C-8.375 5.76 -8.375 4.77 -8.375 3.75 C-3.35945596 -0.35362694 -3.35945596 -0.35362694 0 0 Z " fill="#CBC2BD" transform="translate(361.375,229.25)"/>
<path d="M0 0 C1.65 0.33 3.3 0.66 5 1 C4.34 3.31 3.68 5.62 3 8 C2.67 7.01 2.34 6.02 2 5 C1.34 5 0.68 5 0 5 C-0.33 4.01 -0.66 3.02 -1 2 C-0.67 1.34 -0.34 0.68 0 0 Z " fill="#2F231D" transform="translate(106,189)"/>
<path d="M0 0 C1.65 0.33 3.3 0.66 5 1 C4.67 2.32 4.34 3.64 4 5 C2.125 5.625 2.125 5.625 0 6 C-0.66 5.34 -1.32 4.68 -2 4 C-1.01 4 -0.02 4 1 4 C0.67 2.68 0.34 1.36 0 0 Z " fill="#FAF6F4" transform="translate(208,105)"/>
<path d="M0 0 C0.66 0.99 1.32 1.98 2 3 C-0.31 4.32 -2.62 5.64 -5 7 C-4.60196439 4.11424181 -4.20990931 3.17810487 -1.9375 1.25 C-1.298125 0.8375 -0.65875 0.425 0 0 Z " fill="#EDEAE6" transform="translate(278,433)"/>
<path d="M0 0 C4.875 4.75 4.875 4.75 6 7 C5.67 7.66 5.34 8.32 5 9 C2.1997768 7.5998884 1.43223902 5.73427449 0 3 C0 2.01 0 1.02 0 0 Z " fill="#D7D1CA" transform="translate(320,411)"/>
<path d="M0 0 C2.00720923 0.28674418 4.0085944 0.61866701 6 1 C3.61426621 2.89213369 1.92824652 4.02391783 -1 5 C-1 1 -1 1 0 0 Z " fill="#211412" transform="translate(244,413)"/>
<path d="M0 0 C0.66 0 1.32 0 2 0 C1.67 2.64 1.34 5.28 1 8 C0.01 8.33 -0.98 8.66 -2 9 C-2.33 7.35 -2.66 5.7 -3 4 C-2.34 4 -1.68 4 -1 4 C-0.67 2.68 -0.34 1.36 0 0 Z " fill="#1E100C" transform="translate(316,391)"/>
<path d="M0 0 C4.875 4.75 4.875 4.75 6 7 C4.68 7 3.36 7 2 7 C2 6.34 2 5.68 2 5 C1.01 4.67 0.02 4.34 -1 4 C-0.67 2.68 -0.34 1.36 0 0 Z " fill="#E0DBD7" transform="translate(169,355)"/>
<path d="M0 0 C0.99 0.33 1.98 0.66 3 1 C3 1.66 3 2.32 3 3 C4.98 2.67 6.96 2.34 9 2 C7.8125 3.5 7.8125 3.5 6 5 C3.3125 5.1875 3.3125 5.1875 1 5 C0.67 3.35 0.34 1.7 0 0 Z " fill="#EAE4DF" transform="translate(281,201)"/>
<path d="M0 0 C0 0.99 0 1.98 0 3 C-2.64 3.66 -5.28 4.32 -8 5 C-7.67 4.01 -7.34 3.02 -7 2 C-4.56723614 0.81480735 -2.71982714 0 0 0 Z " fill="#EAE6E2" transform="translate(301,424)"/>
<path d="M0 0 C0.99 0.33 1.98 0.66 3 1 C-1.75 5.875 -1.75 5.875 -4 7 C-4.33 6.01 -4.66 5.02 -5 4 C-3.35 3.34 -1.7 2.68 0 2 C0 1.34 0 0.68 0 0 Z " fill="#261A16" transform="translate(239,417)"/>
<path d="M0 0 C1.32 0 2.64 0 4 0 C6.125 4.625 6.125 4.625 5 8 C4.16382818 6.8562364 3.33113541 5.70992861 2.5 4.5625 C2.0359375 3.92441406 1.571875 3.28632813 1.09375 2.62890625 C0 1 0 1 0 0 Z " fill="#261C17" transform="translate(320,409)"/>
<path d="M0 0 C0.66 0 1.32 0 2 0 C1.65120368 3.25543229 0.97866739 4.01873107 -1.5625 6.25 C-2.366875 6.8275 -3.17125 7.405 -4 8 C-3.49396008 5.83125748 -3.00016187 4.00032373 -2 2 C-1.34 2 -0.68 2 0 2 C0 1.34 0 0.68 0 0 Z " fill="#F1EDE9" transform="translate(347,360)"/>
<path d="M0 0 C5.875 4.625 5.875 4.625 7 8 C6.34 8 5.68 8 5 8 C5 7.34 5 6.68 5 6 C2.525 5.01 2.525 5.01 0 4 C0 2.68 0 1.36 0 0 Z " fill="#352C29" transform="translate(133,346)"/>
<path d="M0 0 C1.125 1.6875 1.125 1.6875 2 4 C1.125 6.75 1.125 6.75 0 9 C-0.99 8.67 -1.98 8.34 -3 8 C-1.125 2.25 -1.125 2.25 0 0 Z " fill="#1D100C" transform="translate(348,316)"/>
<path d="M0 0 C2.59482129 2.59482129 2.69990302 4.39883625 3 8 C2.34 8.66 1.68 9.32 1 10 C0.63720544 8.71073008 0.28503302 7.41846728 -0.0625 6.125 C-0.35833984 5.04605469 -0.35833984 5.04605469 -0.66015625 3.9453125 C-1 2 -1 2 0 0 Z " fill="#29201B" transform="translate(170,248)"/>
<path d="M0 0 C1.32 0.33 2.64 0.66 4 1 C4.625 2.8125 4.625 2.8125 5 5 C4.01 6.485 4.01 6.485 3 8 C3 7.01 3 6.02 3 5 C2.01 5 1.02 5 0 5 C0 3.35 0 1.7 0 0 Z " fill="#241712" transform="translate(99,208)"/>
<path d="M0 0 C2.31 0.66 4.62 1.32 7 2 C5.68 3.65 4.36 5.3 3 7 C2.01 4.69 1.02 2.38 0 0 Z " fill="#201411" transform="translate(276,192)"/>
<path d="M0 0 C3.82689618 0.79177162 6.20458537 2.20458537 9 5 C8.01 5.33 7.02 5.66 6 6 C2.8125 3.625 2.8125 3.625 0 1 C0 0.67 0 0.34 0 0 Z " fill="#312824" transform="translate(344,132)"/>
<path d="M0 0 C1.9375 0.25 1.9375 0.25 4 1 C4.66 1.99 5.32 2.98 6 4 C5.01 4.33 4.02 4.66 3 5 C1.68 3.68 0.36 2.36 -1 1 C-0.67 0.67 -0.34 0.34 0 0 Z " fill="#1F140F" transform="translate(306,123)"/>
<path d="M0 0 C-1.98 0.99 -3.96 1.98 -6 3 C-6 3.99 -6 4.98 -6 6 C-6.66 6 -7.32 6 -8 6 C-8 5.01 -8 4.02 -8 3 C-8.66 2.67 -9.32 2.34 -10 2 C-8.71211992 1.46987262 -7.41953322 0.9511671 -6.125 0.4375 C-5.40570313 0.14746094 -4.68640625 -0.14257812 -3.9453125 -0.44140625 C-2 -1 -2 -1 0 0 Z " fill="#CEC9C7" transform="translate(202,108)"/>
<path d="M0 0 C3.26954202 0.56371414 4.82575883 1.49962266 7 4 C5.1875 4.6875 5.1875 4.6875 3 5 C1.25 3.6875 1.25 3.6875 0 2 C0 1.34 0 0.68 0 0 Z " fill="#211613" transform="translate(148,467)"/>
<path d="M0 0 C0 0.99 0 1.98 0 3 C-2.375 4.0625 -2.375 4.0625 -5 5 C-5.66 4.67 -6.32 4.34 -7 4 C-3.375 0 -3.375 0 0 0 Z " fill="#EFEAE6" transform="translate(234,427)"/>
<path d="M0 0 C0.66 0.33 1.32 0.66 2 1 C2 1.99 2 2.98 2 4 C0.1875 4.625 0.1875 4.625 -2 5 C-2.99 4.34 -3.98 3.68 -5 3 C-2.625 1.4375 -2.625 1.4375 0 0 Z " fill="#2B1F1B" transform="translate(331,376)"/>
<path d="M0 0 C0.33 0.99 0.66 1.98 1 3 C-0.98 4.32 -2.96 5.64 -5 7 C-4.75 4.625 -4.75 4.625 -4 2 C-1.9375 0.6875 -1.9375 0.6875 0 0 Z " fill="#EEE9E7" transform="translate(341,366)"/>
<path d="M0 0 C2.375 0.625 2.375 0.625 5 2 C6.3125 5.125 6.3125 5.125 7 8 C2.60841671 6.5361389 2.12052567 4.02168662 0 0 Z " fill="#D3CECA" transform="translate(128,339)"/>
<path d="M0 0 C0 0.99 0 1.98 0 3 C-2.3125 5.25 -2.3125 5.25 -5 7 C-5.99 6.67 -6.98 6.34 -8 6 C-5.36 4.02 -2.72 2.04 0 0 Z " fill="#DAD4D1" transform="translate(162,127)"/>
<path d="M0 0 C-0.33 1.65 -0.66 3.3 -1 5 C-2.65 4.67 -4.3 4.34 -6 4 C-2.25 0 -2.25 0 0 0 Z " fill="#372D29" transform="translate(208,112)"/>
<path d="M0 0 C0.99 0.33 1.98 0.66 3 1 C0.94766315 3.2477975 -0.00667261 4.0022242 -3 5 C-3.66 4.34 -4.32 3.68 -5 3 C-2.6875 1.4375 -2.6875 1.4375 0 0 Z " fill="#1B100A" transform="translate(286,387)"/>
<path d="M0 0 C0.33 0.66 0.66 1.32 1 2 C2.32 1.67 3.64 1.34 5 1 C4.67 1.66 4.34 2.32 4 3 C3.34 3 2.68 3 2 3 C2 3.66 2 4.32 2 5 C0.35 4.67 -1.3 4.34 -3 4 C-2.67 3.01 -2.34 2.02 -2 1 C-1.34 0.67 -0.68 0.34 0 0 Z " fill="#FCFBFA" transform="translate(179,375)"/>
<path d="M0 0 C0.66 0 1.32 0 2 0 C0.8141763 3.37503669 -0.27573689 5.64722731 -3 8 C-3.33 6.68 -3.66 5.36 -4 4 C-3.34 4 -2.68 4 -2 4 C-2 3.34 -2 2.68 -2 2 C-1.34 2 -0.68 2 0 2 C0 1.34 0 0.68 0 0 Z " fill="#E9E4E2" transform="translate(376,328)"/>
<path d="M0 0 C2 2 2 2 2.125 4.625 C2.08375 5.40875 2.0425 6.1925 2 7 C0.68 7.33 -0.64 7.66 -2 8 C-1.34 5.36 -0.68 2.72 0 0 Z " fill="#271C18" transform="translate(394,292)"/>
<path d="M0 0 C1.98 1.65 3.96 3.3 6 5 C5 7 5 7 3 8 C0 3.375 0 3.375 0 0 Z " fill="#DED9D7" transform="translate(274,285)"/>
<path d="M0 0 C2.18975773 3.28463659 2.99806563 6.20696275 4 10 C2.68 9.67 1.36 9.34 0 9 C0 6.03 0 3.06 0 0 Z " fill="#413732" transform="translate(349,178)"/>
<path d="M0 0 C0.66 0.33 1.32 0.66 2 1 C1.1875 3.9375 1.1875 3.9375 0 7 C-0.99 7.33 -1.98 7.66 -3 8 C-1.125 2.25 -1.125 2.25 0 0 Z " fill="#39312E" transform="translate(154,168)"/>
<path d="M0 0 C0.639375 0.2475 1.27875 0.495 1.9375 0.75 C2.2675 1.74 2.5975 2.73 2.9375 3.75 C1.9475 4.245 1.9475 4.245 0.9375 4.75 C-0.7125 3.43 -2.3625 2.11 -4.0625 0.75 C-2.0625 -0.25 -2.0625 -0.25 0 0 Z " fill="#2F211C" transform="translate(338.0625,124.25)"/>
<path d="M0 0 C1.65 0.33 3.3 0.66 5 1 C4.01 1.495 4.01 1.495 3 2 C1.86649466 4.01669827 1.86649466 4.01669827 1 6 C-0.0625 4.125 -0.0625 4.125 -1 2 C-0.67 1.34 -0.34 0.68 0 0 Z " fill="#2C1E18" transform="translate(140,457)"/>
<path d="M0 0 C2.64 0.33 5.28 0.66 8 1 C4.77208445 3.1519437 3.71599191 3.20086443 0 3 C0 2.01 0 1.02 0 0 Z " fill="#241713" transform="translate(210,396)"/>
<path d="M0 0 C4.455 0.99 4.455 0.99 9 2 C7.02 2.99 7.02 2.99 5 4 C5 3.34 5 2.68 5 2 C3.02 2.33 1.04 2.66 -1 3 C-0.67 2.01 -0.34 1.02 0 0 Z " fill="#382D28" transform="translate(201,393)"/>
<path d="M0 0 C0.53625 0.391875 1.0725 0.78375 1.625 1.1875 C-4.66071429 3.61607143 -4.66071429 3.61607143 -8.375 2.1875 C-2.95961538 -1.0125 -2.95961538 -1.0125 0 0 Z " fill="#302624" transform="translate(296.375,389.8125)"/>
<path d="M0 0 C0.66 1.32 1.32 2.64 2 4 C-0.64738916 5.4606285 -1.89448334 6 -5 6 C-5 5.34 -5 4.68 -5 4 C-3.37373596 2.61767557 -1.7074998 1.28062485 0 0 Z " fill="#D2CBC7" transform="translate(303,380)"/>
<path d="M0 0 C0.66 0 1.32 0 2 0 C1.67 0.99 1.34 1.98 1 3 C0.67 2.01 0.34 1.02 0 0 Z M-5 4 C-3.02 4.495 -3.02 4.495 -1 5 C-2.98 5.99 -2.98 5.99 -5 7 C-5 6.01 -5 5.02 -5 4 Z " fill="#E8E2DF" transform="translate(337,347)"/>
<path d="M0 0 C1.37562854 1.28965176 2.70766393 2.62689293 4 4 C4 4.66 4 5.32 4 6 C2.68 6 1.36 6 0 6 C-1.125 2.25 -1.125 2.25 0 0 Z " fill="#E4E0DD" transform="translate(161,344)"/>
<path d="M0 0 C1.80411967 2.75924185 2.0127245 3.88972103 1.625 7.25 C1.41875 8.1575 1.2125 9.065 1 10 C-0.80411967 7.24075815 -1.0127245 6.11027897 -0.625 2.75 C-0.41875 1.8425 -0.2125 0.935 0 0 Z " fill="#F0ECE9" transform="translate(107,290)"/>
<path d="M0 0 C0.33 0.66 0.66 1.32 1 2 C0.06553465 4.03144641 -0.93224776 6.03533587 -2 8 C-2.66 7.01 -3.32 6.02 -4 5 C-3 2 -3 2 0 0 Z " fill="#201611" transform="translate(311,278)"/>
<path d="M0 0 C0.33 0 0.66 0 1 0 C1.33 3.63 1.66 7.26 2 11 C1.34 11 0.68 11 0 11 C-0.33 11.66 -0.66 12.32 -1 13 C-0.67 8.71 -0.34 4.42 0 0 Z " fill="#BCB4B2" transform="translate(362,267)"/>
<path d="M0 0 C2.475 0.99 2.475 0.99 5 2 C4.34 3.65 3.68 5.3 3 7 C0.64046906 4.64046906 0.50858587 3.22104383 0 0 Z " fill="#352B27" transform="translate(185,254)"/>
<path d="M0 0 C0.66 0 1.32 0 2 0 C2 0.66 2 1.32 2 2 C2.66 2 3.32 2 4 2 C3.67 3.98 3.34 5.96 3 8 C2.34 7.67 1.68 7.34 1 7 C0.59270772 4.67843403 0.25561323 2.3431213 0 0 Z " fill="#322825" transform="translate(180,240)"/>
<path d="M0 0 C-4.625 4 -4.625 4 -8 4 C-8 3.01 -8 2.02 -8 1 C-2.25 -1.125 -2.25 -1.125 0 0 Z " fill="#E4E0DA" transform="translate(282,223)"/>
<path d="M0 0 C2.86724686 0.57344937 3.8614515 0.8614515 6 3 C4.02 3.33 2.04 3.66 0 4 C0 2.68 0 1.36 0 0 Z " fill="#38302D" transform="translate(284,200)"/>
<path d="M0 0 C-1.75 4.875 -1.75 4.875 -4 6 C-4.33 4.68 -4.66 3.36 -5 2 C-2 0 -2 0 0 0 Z " fill="#1C0E0A" transform="translate(113,185)"/>
<path d="M0 0 C0.99 0 1.98 0 3 0 C1.92598892 2.91517292 1.22189824 4.77810176 -1 7 C-1.625 5.1875 -1.625 5.1875 -2 3 C-1.34 2.01 -0.68 1.02 0 0 Z " fill="#EEEAE8" transform="translate(155,161)"/>
<path d="M0 0 C1.32 1.32 2.64 2.64 4 4 C3.67 4.66 3.34 5.32 3 6 C2.34 5.67 1.68 5.34 1 5 C0.67 5.66 0.34 6.32 0 7 C-0.93423645 3.98968256 -1.04449911 3.13349732 0 0 Z " fill="#372D29" transform="translate(329,144)"/>
</svg>
